<svg xmlns="http://www.w3.org/2000/svg" viewBox="0 0 711.98 337.34"><defs><style>.cls-1{isolation:isolate;}.cls-2{fill:#eafcfc;}.cls-3{opacity:0.1;}.cls-16,.cls-20,.cls-23,.cls-24,.cls-3{mix-blend-mode:multiply;}.cls-4{fill:#86b1f2;}.cls-5{fill:#355389;}.cls-6{fill:#3c8f7c;}.cls-7{fill:#50bfa5;}.cls-8{fill:#367f6c;}.cls-9{fill:#29446d;}.cls-10{fill:#184655;}.cls-11{fill:#96d9c9;}.cls-12{fill:#327765;}.cls-13,.cls-18,.cls-22,.cls-33{fill:#fff;}.cls-13{opacity:0.8;}.cls-14{fill:#fcf5eb;}.cls-15,.cls-16,.cls-20{fill:#fae0b2;}.cls-17,.cls-24{fill:#e25a44;}.cls-18,.cls-20{opacity:0.5;}.cls-18,.cls-22{mix-blend-mode:overlay;}.cls-19{fill:#accbf9;}.cls-21{fill:#f47458;}.cls-22{opacity:0.2;}.cls-23,.cls-30{fill:#f7cc7f;}.cls-23,.cls-24{opacity:0.3;}.cls-25{fill:#f4f4f4;}.cls-26{fill:#466eb6;}.cls-27{fill:#f7a491;}.cls-28{fill:#b75742;}.cls-29{fill:#f48c7f;}.cls-31{fill:#07345a;}.cls-32{fill:#9bc1f9;}</style></defs><title>Asset 97</title><g class="cls-1"><g id="Layer_2" data-name="Layer 2"><g id="Layer_1-2" data-name="Layer 1"><path class="cls-2" d="M434.5,2.55S265.38,23.45,281.13,61s-84.16-13.32-124,.2c-28.38,9.62-17,38.92-30.76,50.73-31.49,27.07-63.69-7-103.75,13.43s6,207.3,22.33,207.27l588.48,3.48,7.39.2s45.32-54.94,4.3-87-12.86-46.75-7.87-59.15c5.72-14.23,26.22-54.88-32.17-72.68-42.33-12.89-43.46-58-41.74-66.17,0,0,16.37-64.7-128.81-48.68Z"/><g class="cls-3"><path class="cls-4" d="M26,229.24h18.5v-40H62.32v17.81H77.06V166h24.12v37.53l7.22.24V165.94h8.42V149.82h5.05V139H141.6v10.83h5.05v16.12h8.42v20.5l3.89.24L160.12,126h26v32.31l9.14.24V108h3.13V97.35H225.8V108h3.13v68h5.77V154.83h4.82V144.46h7V114.18H256.6v30.28h7v10.37h4.82v35.9h3.36l2.65,0V149.11l71.21.68v10.46h6v-9.11h15V90.36h13.72V99h6.26v17.75h21.66v12.27H426.6v20.77l29-.68v41.59l2.65,0h3.37V154.87h4.81V144.49h7V114.21h10.11v30.28h7v10.38h4.81v21.21h5.78V108h3.12V97.39h27.44V108h3.13v50.49l9.14-.24V126h26l1.17,60.72,3.89-.24V166h8.42V149.85h5.05V139H608.2v10.83h5V166h8.42v37.84l6.39-.21c-6.87,10.42-10.5,24.11,17,45.63,34.95,27.34,7.23,71.26-1.74,83.67l-295.79,0H93.32l-48.4-.29c-4.74,0-12-15.76-18.91-38.64Z"/><path class="cls-4" d="M637.22,190.08c-1.51,3.75-5.13,7.7-8.33,12.28V166h16C643.44,176,639.33,184.83,637.22,190.08Z"/></g><rect class="cls-5" x="130.69" y="266.76" width="1.65" height="28.87" transform="translate(263.02 562.39) rotate(180)"/><polygon class="cls-6" points="131.08 215.28 139.2 273.56 122.96 273.56 131.08 215.28"/><polygon class="cls-7" points="138.68 269.86 124.11 265.27 124.33 263.69 138.44 268.14 138.68 269.86"/><polygon class="cls-7" points="136.12 251.45 126.46 248.41 126.68 246.83 135.88 249.72 136.12 251.45"/><rect class="cls-5" x="144.89" y="268.81" width="1.4" height="15.51" transform="translate(291.17 553.13) rotate(180)"/><polygon class="cls-6" points="145.59 238.73 150.15 275.63 141.02 275.63 145.59 238.73"/><polygon class="cls-7" points="148.5 262.25 141.99 267.83 142.24 265.81 148.29 260.61 148.5 262.25"/><polygon class="cls-7" points="147.5 254.16 143.51 255.52 143.7 254.01 147.32 252.77 147.5 254.16"/><path class="cls-6" d="M331,281.9a11.72,11.72,0,0,1-.17-2.07c0-7.84,7.35-14.2,16.42-14.2s16.42,6.36,16.42,14.2a11.72,11.72,0,0,1-.17,2.07Z"/><path class="cls-7" d="M312.37,278.41a25.45,25.45,0,0,1-.17-2.92c0-11.06,7.35-20,16.42-20s16.43,9,16.43,20a23.36,23.36,0,0,1-.18,2.92Z"/><path class="cls-7" d="M318.38,290.69a11.89,11.89,0,0,0,.18-2.07c0-7.85-7.36-14.21-16.43-14.21s-16.42,6.36-16.42,14.21a12.94,12.94,0,0,0,.17,2.07Z"/><path class="cls-8" d="M344.67,290.69a18.76,18.76,0,0,0,.22-2.92c0-11.07-9.32-20-20.82-20s-20.82,9-20.82,20a18.76,18.76,0,0,0,.22,2.92Z"/><path class="cls-7" d="M328.68,267.73A17.91,17.91,0,0,1,343,275a23.67,23.67,0,0,1,5.46-.63c10.21,0,18.48,6.36,18.48,14.21,0,.7-5.43,15.49-5.56,16.16L310.4,290.69a21.59,21.59,0,0,1-.19-2.92C310.21,276.7,318.48,267.73,328.68,267.73Z"/><path class="cls-6" d="M545.39,252.46c26.18-2.24,76.47,18.37,116.38,38.27-1.46,10.94-5.95,21.37-10.4,29.48l-17.7-.3,15.12,0c-8.93-.23-152.46-17.59-250.12-28.22C451.49,276,504.5,256,545.39,252.46Z"/><path class="cls-9" d="M201.37,212.84c0-.49-.68-.86-1-.43s-.34.14-.68,1.06a30,30,0,0,1-4.13,7.45,31.19,31.19,0,0,1-10.07,8.6,29,29,0,0,0,2.63-10.59,8.46,8.46,0,0,0-.55-3.9.46.46,0,0,0-.83.11c-.3,1.87.15,3.28-.46,6.63-1.45,8-7.18,16.47-12.71,22.4,1.06-10,1.57-21.47-.33-31.6-.31-1.67-.8-3.25-1.26-4.87a.31.31,0,0,0-.59.16c.1.54,1,7.52,1.06,8a124.88,124.88,0,0,1,0,24.07,48.17,48.17,0,0,1-8.51-19.66c-.4-2.09-.5-4.25-1.06-6.31-.08-.28-.54-.31-.6,0-.57,3.08.57,8.52,1.4,11.48a47.4,47.4,0,0,0,8.1,16.17c.14.18-5.94,47.09-5.78,47.68.28,1,2,1.71,2.3-.07.11-.72,3.45-29.24,5-42.45.57-.32.93-.87,2.4-2.52a63.27,63.27,0,0,0,9-13c1.34-.08,11.06-4.79,15.88-15.53.14-.31.76-1.77.85-2.09A2.33,2.33,0,0,0,201.37,212.84Z"/><path class="cls-10" d="M170.17,197.63c.11-1.44.17-2.92.17-4.42,0-16.76-7.12-30.34-15.92-30.34s-15.91,13.58-15.91,30.34c0,1.5.06,3,.17,4.42Z"/><path class="cls-6" d="M188.19,190.17q.17-3,.17-6.23c0-23.63-7.13-42.78-15.92-42.78s-15.92,19.15-15.92,42.78q0,3.18.17,6.23Z"/><path class="cls-6" d="M182.36,216.39c-.11-1.44-.17-2.92-.17-4.42,0-16.76,7.13-30.34,15.92-30.34S214,195.21,214,212c0,1.5-.06,3-.17,4.42Z"/><path class="cls-10" d="M156.89,216.39c-.14-2-.22-4.12-.22-6.24,0-23.62,9-42.78,20.18-42.78S197,186.53,197,210.15q0,3.18-.21,6.24Z"/><path class="cls-6" d="M172.38,167.37c-5.57,0-10.55,6.08-13.83,15.61a11.27,11.27,0,0,0-5.29-1.35c-9.89,0-17.91,13.58-17.91,30.34,0,1.5.07,3,.19,4.42h54.55q.19-3.06.19-6.24C190.28,186.53,182.27,167.37,172.38,167.37Z"/><path class="cls-11" d="M153.51,303H658.93c-6,18.6-18.14,33.27-18.14,33.27l-7.39-.2-479.89-.37Z"/><path class="cls-6" d="M220.62,261.25c40.89,3.49,93.89,23.5,146.72,39.25-97.66,10.64-241.2,28-250.12,28.22l15.11,0-21.31.36-58.16-.82C80,310,179.72,257.75,220.62,261.25Z"/><path class="cls-9" d="M43.92,301.2a174.57,174.57,0,0,1-6.23-18.31c-5.06-19.28-3.84-33.33-3.65-40.08,0-.9-1.41-1.14-1.53-.22a73.13,73.13,0,0,0-.55,9.59,120.83,120.83,0,0,0,1,16.22c-3.71,1-7.22-.48-10.1-3.08-4.95-4.49-6.72-10.47-7.5-17.09-.08-.68-.11-1.32-.66-1.71a.38.38,0,0,0-.75.07c-.79.8-.41,2.42-.29,3.47,1.64,14.1,10.21,20.94,17.12,20.88a10.06,10.06,0,0,0,2.5-.27q.74,5.06,1.92,10a146.57,146.57,0,0,0,5.88,18.45c7.87,20.65,10.39,31.2,12.62,37.18a.94.94,0,0,0,1.81-.52C55.38,335.38,49.23,315,43.92,301.2Z"/><path class="cls-9" d="M75.46,246.92c-.08-.45-.34-.74-.43-1.16s-1-.6-1.12,0c-.06.35-.25.56-.32.91-.24,1.14.34,7.57-1.18,17.4a43,43,0,0,1-1.72,7.71,27.05,27.05,0,0,1-7.15,11.13,171.26,171.26,0,0,0-1.14-17.24c-.41-3.42-.94-6.83-1.57-10.22-.31-1.65-.64-3.29-1-4.93a18.76,18.76,0,0,0-1.56-4.93.52.52,0,0,0-1,.27,20.57,20.57,0,0,0,.62,4.42c.32,1.48.62,3,.89,4.45a165.9,165.9,0,0,1,2.81,31.81A67.06,67.06,0,0,1,48,253.18c-.21-1.84-.33-3.68-.37-5.53l-.06-2.87c0-.49-.2-2-1-1.54s-.69,1.29-.75,2.07-.08,1.7-.07,2.55c0,1.63.11,3.27.26,4.89a69,69,0,0,0,12.3,33A34.63,34.63,0,0,0,61.59,290c-.28,18.85-3.08,42.67-3.13,44.57a7.83,7.83,0,0,0,.14,1.27c.13.85,1.26.66,1.48,0,.44-1.24.39-1.73,1-8.61,1.16-12.26,2.45-40.36,2.45-41.5,4-2.88,6.85-7.32,8.71-12a36.2,36.2,0,0,0,2-7.6A90.54,90.54,0,0,0,75.46,246.92Z"/><path class="cls-10" d="M47.87,231.53a35.62,35.62,0,0,0,.24-4.16c0-15.77-9.8-28.55-21.89-28.55S4.34,211.6,4.34,227.37a38,38,0,0,0,.23,4.16Z"/><path class="cls-6" d="M72.64,224.51q.23-2.87.23-5.87c0-22.23-9.8-40.26-21.88-40.26s-21.89,18-21.89,40.26q0,3,.23,5.87Z"/><path class="cls-10" d="M29.6,249.18q-.29-2.87-.29-5.87c0-22.23,12.42-40.26,27.74-40.26s27.75,18,27.75,40.26a56.39,56.39,0,0,1-.3,5.87Z"/><path class="cls-6" d="M50.91,203.05c-7.66,0-14.5,5.72-19,14.69a21.58,21.58,0,0,0-7.27-1.27C11,216.47,0,229.25,0,245a33.42,33.42,0,0,0,.26,4.16h75q.26-2.87.26-5.87C75.52,221.08,64.5,203.05,50.91,203.05Z"/><path class="cls-12" d="M84.78,285.44l-3.57-4.56a7.56,7.56,0,0,1,1.18-10.62h0c8.14-6.12,20-4.07,26.53,4.58l4.75,6.32a9.14,9.14,0,0,0,8.44,3.66,8,8,0,0,1,7.4,3.26l2.51,3.34a15.22,15.22,0,0,1,2.7,12.43,9.22,9.22,0,0,0,1.69,7.54l3.55,4.72c3.93,5.22,3.13,12.45-1.79,16.15l-2.8,2.11c-4.92,3.69-12.08,2.46-16-2.76h0c-4.15-7.2-9-9.54-12.86-10a21.67,21.67,0,0,1-14.63-8.5l-.5-.67a21.54,21.54,0,0,1-3.89-17.3C88,292.5,87.61,289.21,84.78,285.44Z"/><path class="cls-7" d="M164.06,335.57s-18.41-24.46-30-28.21-2.53,9.17-2.53,9.17-18.7-20.5-26.24-18.48c-6.92,1.86,0,15.8,0,15.8s-7.79-7.72-17.24-7.72S95.35,335,95.35,335Z"/><path class="cls-11" d="M105.29,335.44s-15-37.72-30.58-33.83c-12.63,3.16-5.21,17.49-6,16.72s-3.59-5.61-14.55-5.61.19,13.64.19,13.64-20.19-5.42-22,2.24c-1.52,6.36,7,6.84,7,6.84Z"/><path class="cls-13" d="M425.91,57.34a11.58,11.58,0,0,1,14.19-8.61,17,17,0,0,1,20.49-9,21,21,0,0,1,37.71,3.67,14.39,14.39,0,0,1,21.4,12.59c0,.47,0,.94-.07,1.4Z"/><path class="cls-13" d="M326.48,101.83a4.79,4.79,0,0,0-5.85-3.55,7,7,0,0,0-6.36-4,6.92,6.92,0,0,0-2.09.32,8.64,8.64,0,0,0-15.53,1.51,5.93,5.93,0,0,0-8.82,5.19c0,.2,0,.39,0,.58Z"/><path class="cls-13" d="M464,109.3a6.23,6.23,0,0,0-6.06-4.82,6.31,6.31,0,0,0-1.57.2,9.12,9.12,0,0,0-8.28-5.28,9.37,9.37,0,0,0-2.72.41,11.28,11.28,0,0,0-20.25,2,7.74,7.74,0,0,0-11.49,6.77,6.28,6.28,0,0,0,0,.75Z"/><rect class="cls-14" x="397.85" y="206.19" width="8.07" height="99.87" transform="translate(803.77 512.25) rotate(180)"/><rect class="cls-15" x="349.52" y="166.21" width="56.67" height="32.76"/><rect class="cls-16" x="399.51" y="166.21" width="6.68" height="32.76"/><rect class="cls-10" x="346.93" y="164.63" width="60.51" height="3.16"/><rect class="cls-4" x="349.45" y="174.48" width="17.29" height="12.93" transform="translate(539.05 -177.15) rotate(90)"/><rect class="cls-4" x="365.63" y="174.48" width="17.29" height="12.93" transform="translate(555.22 -193.33) rotate(90)"/><rect class="cls-4" x="381.47" y="174.48" width="17.29" height="12.93" transform="translate(571.07 -209.17) rotate(90)"/><rect class="cls-15" x="503.38" y="166.21" width="56.67" height="32.76" transform="translate(1063.43 365.17) rotate(180)"/><rect class="cls-16" x="503.38" y="166.21" width="6.68" height="32.76" transform="translate(1013.44 365.17) rotate(180)"/><rect class="cls-15" x="334.7" y="199.45" width="71.63" height="109.23"/><rect class="cls-4" x="344.9" y="201.05" width="17.29" height="27.53" transform="translate(568.36 -138.72) rotate(90)"/><rect class="cls-4" x="344.9" y="221.12" width="17.29" height="27.53" transform="translate(588.43 -118.66) rotate(90)"/><rect class="cls-4" x="344.9" y="241.18" width="17.29" height="27.53" transform="translate(608.49 -98.6) rotate(90)"/><rect class="cls-4" x="344.9" y="261.24" width="17.29" height="27.53" transform="translate(628.55 -78.54) rotate(90)"/><rect class="cls-4" x="344.9" y="281.3" width="17.29" height="27.53" transform="translate(648.61 -58.48) rotate(90)"/><rect class="cls-4" x="375.43" y="201.05" width="17.29" height="27.53" transform="translate(598.89 -169.25) rotate(90)"/><rect class="cls-4" x="375.43" y="221.12" width="17.29" height="27.53" transform="translate(618.95 -149.19) rotate(90)"/><rect class="cls-4" x="375.43" y="241.18" width="17.29" height="27.53" transform="translate(639.02 -129.13) rotate(90)"/><rect class="cls-4" x="375.43" y="261.24" width="17.29" height="27.53" transform="translate(659.08 -109.07) rotate(90)"/><rect class="cls-4" x="375.43" y="281.3" width="17.29" height="27.53" transform="translate(679.14 -89) rotate(90)"/><rect class="cls-15" x="503.38" y="199.45" width="71.63" height="109.23" transform="translate(1078.39 508.13) rotate(180)"/><rect class="cls-10" x="503.38" y="306.07" width="72.47" height="2.61" transform="translate(1079.24 614.75) rotate(180)"/><rect class="cls-10" x="334.07" y="306.07" width="72.47" height="2.61" transform="translate(740.61 614.75) rotate(180)"/><rect class="cls-16" x="503.38" y="199.45" width="6.68" height="109.23" transform="translate(1013.44 508.13) rotate(180)"/><rect class="cls-10" x="502.2" y="164.63" width="60.45" height="3.16" transform="translate(1064.84 332.42) rotate(180)"/><rect class="cls-15" x="405.94" y="175.5" width="97.44" height="22.68" transform="translate(909.33 373.67) rotate(180)"/><rect class="cls-15" x="405.94" y="201.36" width="97.44" height="107.31" transform="translate(909.33 510.04) rotate(180)"/><rect class="cls-4" x="547.51" y="201.05" width="17.29" height="27.53" transform="translate(770.98 -341.34) rotate(90)"/><rect class="cls-4" x="547.51" y="221.12" width="17.29" height="27.53" transform="translate(791.04 -321.28) rotate(90)"/><rect class="cls-4" x="547.51" y="241.18" width="17.29" height="27.53" transform="translate(811.1 -301.21) rotate(90)"/><rect class="cls-4" x="547.51" y="261.24" width="17.29" height="27.53" transform="translate(831.16 -281.15) rotate(90)"/><rect class="cls-4" x="547.51" y="281.3" width="17.29" height="27.53" transform="translate(851.23 -261.09) rotate(90)"/><rect class="cls-4" x="516.98" y="201.05" width="17.29" height="27.53" transform="translate(740.45 -310.81) rotate(90)"/><rect class="cls-4" x="542.83" y="174.48" width="17.29" height="12.93" transform="translate(732.42 -370.53) rotate(90)"/><rect class="cls-4" x="526.65" y="174.48" width="17.29" height="12.93" transform="translate(716.25 -354.35) rotate(90)"/><rect class="cls-4" x="510.81" y="174.48" width="17.29" height="12.93" transform="translate(700.4 -338.51) rotate(90)"/><rect class="cls-4" x="516.98" y="221.12" width="17.29" height="27.53" transform="translate(760.51 -290.75) rotate(90)"/><rect class="cls-4" x="516.98" y="241.18" width="17.29" height="27.53" transform="translate(780.57 -270.69) rotate(90)"/><rect class="cls-4" x="516.98" y="261.24" width="17.29" height="27.53" transform="translate(800.64 -250.62) rotate(90)"/><rect class="cls-4" x="516.98" y="281.3" width="17.29" height="27.53" transform="translate(820.7 -230.56) rotate(90)"/><rect class="cls-17" x="440.01" y="281.76" width="27.96" height="27.17" transform="translate(907.97 590.69) rotate(180)"/><rect class="cls-10" x="544.65" y="188.97" width="13.65" height="0.9" transform="translate(1102.95 378.84) rotate(180)"/><rect class="cls-10" x="528.48" y="188.97" width="13.65" height="0.9" transform="translate(1070.6 378.84) rotate(180)"/><rect class="cls-10" x="512.63" y="188.97" width="13.65" height="0.9" transform="translate(1038.91 378.84) rotate(180)"/><rect class="cls-10" x="383.46" y="188.97" width="13.65" height="0.9" transform="translate(780.57 378.84) rotate(180)"/><rect class="cls-10" x="367.29" y="188.97" width="13.65" height="0.9" transform="translate(748.22 378.84) rotate(180)"/><rect class="cls-10" x="351.44" y="188.97" width="13.65" height="0.9" transform="translate(716.53 378.84) rotate(180)"/><polygon class="cls-18" points="556.73 302.81 572.54 302.81 554.25 206.18 538.43 206.18 556.73 302.81"/><rect class="cls-15" x="569.92" y="206.17" width="5.08" height="98.33" transform="translate(1144.93 510.67) rotate(180)"/><polygon class="cls-18" points="536.4 302.81 545.2 302.81 526.9 206.18 518.1 206.18 536.4 302.81"/><rect class="cls-10" x="511.52" y="222.57" width="28.21" height="0.9" transform="translate(1051.26 446.03) rotate(180)"/><rect class="cls-10" x="542.05" y="242.63" width="28.21" height="0.9" transform="translate(1112.32 486.16) rotate(180)"/><rect class="cls-10" x="511.52" y="242.63" width="28.21" height="0.9" transform="translate(1051.26 486.16) rotate(180)"/><rect class="cls-10" x="542.05" y="262.69" width="28.21" height="0.9" transform="translate(1112.32 526.28) rotate(180)"/><rect class="cls-10" x="511.52" y="262.69" width="28.21" height="0.9" transform="translate(1051.26 526.28) rotate(180)"/><rect class="cls-10" x="542.05" y="282.75" width="28.21" height="0.9" transform="translate(1112.32 566.41) rotate(180)"/><rect class="cls-10" x="511.52" y="282.75" width="28.21" height="0.9" transform="translate(1051.26 566.41) rotate(180)"/><rect class="cls-10" x="542.05" y="302.82" width="28.21" height="0.9" transform="translate(1112.32 606.53) rotate(180)"/><rect class="cls-10" x="511.52" y="302.82" width="28.21" height="0.9" transform="translate(1051.26 606.53) rotate(180)"/><rect class="cls-10" x="542.05" y="222.57" width="28.21" height="0.9" transform="translate(1112.32 446.03) rotate(180)"/><rect class="cls-15" x="539.4" y="206.06" width="3" height="98.44" transform="translate(1081.79 510.56) rotate(180)"/><rect class="cls-15" x="511.52" y="283.65" width="59.42" height="2.77" transform="translate(1082.47 570.07) rotate(180)"/><rect class="cls-15" x="511.52" y="263.59" width="59.42" height="2.77" transform="translate(1082.47 529.95) rotate(180)"/><rect class="cls-15" x="511.52" y="243.53" width="59.42" height="2.77" transform="translate(1082.47 489.83) rotate(180)"/><rect class="cls-15" x="511.52" y="223.47" width="59.42" height="2.77" transform="translate(1082.47 449.7) rotate(180)"/><polygon class="cls-18" points="389.32 302.81 405.13 302.81 386.83 206.18 371.02 206.18 389.32 302.81"/><polygon class="cls-18" points="364.3 302.81 373.11 302.81 354.81 206.18 346 206.18 364.3 302.81"/><rect class="cls-15" x="367.3" y="206.06" width="3" height="98.44" transform="translate(737.6 510.56) rotate(180)"/><rect class="cls-15" x="339.43" y="283.65" width="59.42" height="2.77" transform="translate(738.28 570.07) rotate(180)"/><rect class="cls-15" x="339.43" y="263.59" width="59.42" height="2.77" transform="translate(738.28 529.95) rotate(180)"/><rect class="cls-15" x="339.43" y="243.53" width="59.42" height="2.77" transform="translate(738.28 489.83) rotate(180)"/><rect class="cls-15" x="339.43" y="223.47" width="59.42" height="2.77" transform="translate(738.28 449.7) rotate(180)"/><polygon class="cls-18" points="551.83 188.97 555.9 188.97 551.16 172.3 547.08 172.3 551.83 188.97"/><polygon class="cls-18" points="535 188.97 537.85 188.97 533.1 172.3 530.25 172.3 535 188.97"/><polygon class="cls-18" points="522.88 188.97 525.16 188.97 520.41 172.3 518.14 172.3 522.88 188.97"/><polygon class="cls-18" points="390.96 188.97 395.04 188.97 390.29 172.3 386.21 172.3 390.96 188.97"/><polygon class="cls-18" points="374.13 188.97 376.98 188.97 372.24 172.3 369.38 172.3 374.13 188.97"/><polygon class="cls-18" points="362.02 188.97 364.29 188.97 359.54 172.3 357.27 172.3 362.02 188.97"/><rect class="cls-10" x="339.49" y="222.57" width="28.21" height="0.9" transform="translate(707.19 446.03) rotate(180)"/><rect class="cls-10" x="370.02" y="242.63" width="28.21" height="0.9" transform="translate(768.25 486.16) rotate(180)"/><rect class="cls-10" x="339.49" y="242.63" width="28.21" height="0.9" transform="translate(707.19 486.16) rotate(180)"/><rect class="cls-10" x="370.02" y="262.69" width="28.21" height="0.9" transform="translate(768.25 526.28) rotate(180)"/><rect class="cls-10" x="339.49" y="262.69" width="28.21" height="0.9" transform="translate(707.19 526.28) rotate(180)"/><rect class="cls-10" x="370.02" y="282.75" width="28.21" height="0.9" transform="translate(768.25 566.41) rotate(180)"/><rect class="cls-10" x="339.49" y="282.75" width="28.21" height="0.9" transform="translate(707.19 566.41) rotate(180)"/><rect class="cls-10" x="370.02" y="302.82" width="28.21" height="0.9" transform="translate(768.25 606.53) rotate(180)"/><rect class="cls-10" x="339.49" y="302.82" width="28.21" height="0.9" transform="translate(707.19 606.53) rotate(180)"/><rect class="cls-10" x="370.02" y="222.57" width="28.21" height="0.9" transform="translate(768.25 446.03) rotate(180)"/><rect class="cls-19" x="446.52" y="206.51" width="17.29" height="27.53" transform="translate(675.44 -234.89) rotate(90)"/><rect class="cls-19" x="477.05" y="206.51" width="17.29" height="27.53" transform="translate(705.97 -265.42) rotate(90)"/><rect class="cls-10" x="441.11" y="228.02" width="28.21" height="0.9" transform="translate(910.43 456.95) rotate(180)"/><rect class="cls-19" x="416.13" y="206.51" width="17.29" height="27.53" transform="translate(645.05 -204.5) rotate(90)"/><rect class="cls-10" x="410.72" y="228.02" width="28.21" height="0.9" transform="translate(849.65 456.95) rotate(180)"/><rect class="cls-10" x="471.64" y="228.02" width="28.21" height="0.9" transform="translate(971.49 456.95) rotate(180)"/><rect class="cls-19" x="446.52" y="229.89" width="17.29" height="27.53" transform="translate(698.82 -211.51) rotate(90)"/><rect class="cls-19" x="477.05" y="229.89" width="17.29" height="27.53" transform="translate(729.35 -242.04) rotate(90)"/><rect class="cls-10" x="441.11" y="251.4" width="28.21" height="0.9" transform="translate(910.43 503.7) rotate(180)"/><rect class="cls-19" x="416.13" y="229.89" width="17.29" height="27.53" transform="translate(668.43 -181.12) rotate(90)"/><rect class="cls-10" x="410.72" y="251.4" width="28.21" height="0.9" transform="translate(849.65 503.7) rotate(180)"/><rect class="cls-10" x="471.64" y="251.4" width="28.21" height="0.9" transform="translate(971.49 503.7) rotate(180)"/><rect class="cls-20" x="405.94" y="175.5" width="97.44" height="7.56" transform="translate(909.33 358.55) rotate(180)"/><rect class="cls-10" x="403.79" y="174.06" width="101.75" height="3.16" transform="translate(909.32 351.27) rotate(180)"/><rect class="cls-21" x="453.87" y="281.76" width="0.22" height="27.17" transform="translate(907.97 590.69) rotate(180)"/><rect class="cls-21" x="411.79" y="281.76" width="5.05" height="26.91" transform="translate(828.62 590.44) rotate(180)"/><rect class="cls-21" x="492.55" y="281.76" width="5.05" height="26.91" transform="translate(990.15 590.44) rotate(180)"/><rect class="cls-4" x="451.1" y="288" width="19.61" height="10.01" transform="translate(753.92 -167.9) rotate(90)"/><rect class="cls-4" x="437.26" y="288" width="19.61" height="10.01" transform="translate(740.07 -154.06) rotate(90)"/><polygon class="cls-22" points="460.65 302.81 465.02 302.81 461.57 283.2 457.2 283.2 460.65 302.81"/><polygon class="cls-22" points="446.61 302.81 450.97 302.81 447.52 283.2 443.16 283.2 446.61 302.81"/><rect class="cls-15" x="397.85" y="257.92" width="7.27" height="47.35" transform="translate(802.98 563.18) rotate(180)"/><rect class="cls-16" x="399.24" y="201.01" width="6.68" height="107.09"/><rect class="cls-23" x="490.88" y="185.63" width="6.33" height="2.42" transform="translate(988.09 373.68) rotate(180)"/><rect class="cls-23" x="495.87" y="189.32" width="6.33" height="2.42" transform="translate(998.07 381.07) rotate(180)"/><rect class="cls-23" x="491.78" y="193.34" width="6.47" height="2.05" transform="translate(990.03 388.72) rotate(180)"/><rect class="cls-23" x="487.75" y="189.53" width="6.29" height="2.05" transform="translate(981.8 381.11) rotate(180)"/><rect class="cls-23" x="449.2" y="193.54" width="5.11" height="1.83" transform="translate(903.52 388.91) rotate(180)"/><rect class="cls-23" x="445.82" y="190.55" width="5.11" height="1.83" transform="translate(896.75 382.94) rotate(180)"/><rect class="cls-23" x="475.49" y="288.2" width="5.11" height="1.83" transform="translate(956.09 578.23) rotate(180)"/><rect class="cls-23" x="472.1" y="285.21" width="5.11" height="1.83" transform="translate(949.32 572.26) rotate(180)"/><rect class="cls-23" x="420.97" y="287.3" width="5.11" height="1.83" transform="translate(847.06 576.44) rotate(180)"/><rect class="cls-23" x="418.44" y="290.64" width="5.11" height="1.83" transform="translate(841.99 583.11) rotate(180)"/><rect class="cls-23" x="420.39" y="186.48" width="6.33" height="2.42"/><rect class="cls-23" x="405.95" y="192.95" width="2.06" height="2.42"/><rect class="cls-23" x="405.9" y="189.06" width="4.4" height="2.42"/><rect class="cls-23" x="417.25" y="189.66" width="6.33" height="2.42"/><rect class="cls-23" x="464.14" y="190.47" width="6.33" height="2.42"/><rect class="cls-23" x="467.92" y="186.83" width="6.33" height="2.42"/><rect class="cls-23" x="419.34" y="193.34" width="6.47" height="2.05"/><rect class="cls-23" x="430.15" y="295.87" width="6.33" height="2.42"/><rect class="cls-23" x="427.01" y="299.06" width="6.33" height="2.42"/><rect class="cls-23" x="429.1" y="302.73" width="6.47" height="2.05"/><rect class="cls-23" x="478.09" y="296.37" width="6.33" height="2.42" transform="translate(962.5 595.16) rotate(180)"/><rect class="cls-23" x="481.22" y="299.55" width="6.33" height="2.42" transform="translate(968.77 601.53) rotate(180)"/><rect class="cls-23" x="478.98" y="303.23" width="6.47" height="2.05" transform="translate(964.44 608.51) rotate(180)"/><rect class="cls-23" x="424.75" y="190.08" width="6.29" height="2.05"/><rect class="cls-17" x="411.7" y="253.89" width="85.92" height="18.51" transform="translate(909.33 526.28) rotate(180)"/><rect class="cls-24" x="411.7" y="264.57" width="85.92" height="7.82" transform="translate(909.33 536.97) rotate(180)"/><path class="cls-25" d="M436.8,268.55a2.41,2.41,0,0,1-.72-.54,1.27,1.27,0,0,1-.24-.34l.42-.84a1.3,1.3,0,0,0,.21.27,2.38,2.38,0,0,0,.59.44,1.82,1.82,0,0,0,.86.2,1,1,0,0,0,.8-.36,1.44,1.44,0,0,0,.29-.95,1.33,1.33,0,0,0-.15-.65,1.83,1.83,0,0,0-.38-.48l-.64-.49a6.29,6.29,0,0,1-.87-.69,2.78,2.78,0,0,1-.59-.86,3.19,3.19,0,0,1-.24-1.31,3.4,3.4,0,0,1,.3-1.48,2.2,2.2,0,0,1,.83-1,2.13,2.13,0,0,1,1.2-.34,2.31,2.31,0,0,1,.83.15,2.79,2.79,0,0,1,.67.32l.27.19-.18,1-.27-.19a3.4,3.4,0,0,0-.55-.3,1.75,1.75,0,0,0-.67-.14.8.8,0,0,0-.67.31,1.29,1.29,0,0,0-.26.85,1.45,1.45,0,0,0,.3,1,4.3,4.3,0,0,0,.92.79,7.65,7.65,0,0,1,.88.71,2.63,2.63,0,0,1,.57.85,3.33,3.33,0,0,1,.24,1.35,3.08,3.08,0,0,1-.34,1.5,2.31,2.31,0,0,1-.91,1,2.43,2.43,0,0,1-1.28.34A2.63,2.63,0,0,1,436.8,268.55Z"/><path class="cls-25" d="M442.18,267.53a6.26,6.26,0,0,1-.85-3.48,7.67,7.67,0,0,1,.39-2.57,3.67,3.67,0,0,1,1.13-1.71,2.65,2.65,0,0,1,1.75-.61,3.09,3.09,0,0,1,1,.17,5.44,5.44,0,0,1,.86.36l.35.2-.15,1.05-.38-.22a4.37,4.37,0,0,0-.71-.32,2.05,2.05,0,0,0-.78-.16,1.39,1.39,0,0,0-1,.36,2.21,2.21,0,0,0-.58,1.18A9.77,9.77,0,0,0,443,264a6.52,6.52,0,0,0,.46,2.89,1.47,1.47,0,0,0,1.4.86,1.51,1.51,0,0,0,.93-.29,2.91,2.91,0,0,0,.66-.65,1.85,1.85,0,0,0,.24-.39l.49.69a2.11,2.11,0,0,1-.29.51,3,3,0,0,1-.86.83,2.43,2.43,0,0,1-1.38.38A2.8,2.8,0,0,1,442.18,267.53Z"/><path class="cls-25" d="M448.15,268.64v-9.33h1.53v4.08h2.48v-4.08h1.53v9.33h-1.53v-4.25h-2.48v4.25Z"/><path class="cls-25" d="M455.78,267.52a7.84,7.84,0,0,1,0-7.06,2.71,2.71,0,0,1,2.41-1.3,2.75,2.75,0,0,1,2.42,1.3,7.65,7.65,0,0,1,0,7.05,2.91,2.91,0,0,1-4.83,0Zm3.63-.64a11.32,11.32,0,0,0,0-5.78,1.26,1.26,0,0,0-2.41,0,8.15,8.15,0,0,0-.37,2.89,8.4,8.4,0,0,0,.36,2.89,1.27,1.27,0,0,0,2.43,0Z"/><path class="cls-25" d="M463.11,267.52a7.84,7.84,0,0,1,0-7.06,2.71,2.71,0,0,1,2.41-1.3,2.75,2.75,0,0,1,2.42,1.3,7.65,7.65,0,0,1,0,7.05,2.91,2.91,0,0,1-4.83,0Zm3.63-.64a8.35,8.35,0,0,0,.37-2.89,8.1,8.1,0,0,0-.38-2.89,1.26,1.26,0,0,0-1.21-.9,1.24,1.24,0,0,0-1.2.9A8.15,8.15,0,0,0,464,264a8.4,8.4,0,0,0,.36,2.89,1.25,1.25,0,0,0,1.21.9A1.27,1.27,0,0,0,466.74,266.88Z"/><path class="cls-25" d="M470.05,268.64v-9.33h1.52v8.3h2.79v1Z"/><polygon class="cls-18" points="491.98 228.09 497.16 228.09 488.55 211.63 483.37 211.63 491.98 228.09"/><polygon class="cls-18" points="484.16 228.09 489.33 228.09 480.72 211.63 475.54 211.63 484.16 228.09"/><polygon class="cls-18" points="461.5 228.09 466.68 228.09 458.07 211.63 452.89 211.63 461.5 228.09"/><polygon class="cls-18" points="453.68 228.09 458.85 228.09 450.24 211.63 445.06 211.63 453.68 228.09"/><polygon class="cls-18" points="431.02 228.09 436.2 228.09 427.59 211.63 422.41 211.63 431.02 228.09"/><polygon class="cls-18" points="423.2 228.09 428.38 228.09 419.76 211.63 414.58 211.63 423.2 228.09"/><polygon class="cls-18" points="491.98 251.48 497.16 251.48 488.55 235.02 483.37 235.02 491.98 251.48"/><polygon class="cls-18" points="484.16 251.48 489.33 251.48 480.72 235.02 475.54 235.02 484.16 251.48"/><polygon class="cls-18" points="461.5 251.48 466.68 251.48 458.07 235.02 452.89 235.02 461.5 251.48"/><polygon class="cls-18" points="453.68 251.48 458.85 251.48 450.24 235.02 445.06 235.02 453.68 251.48"/><polygon class="cls-18" points="431.02 251.48 436.2 251.48 427.59 235.02 422.41 235.02 431.02 251.48"/><polygon class="cls-18" points="423.2 251.48 428.38 251.48 419.76 235.02 414.58 235.02 423.2 251.48"/><rect class="cls-10" x="409.79" y="273.95" width="89.75" height="7.81" transform="translate(909.33 555.71) rotate(180)"/><rect class="cls-10" x="331.95" y="197.74" width="101.75" height="3.64"/><rect class="cls-10" x="420.39" y="197.74" width="157.37" height="3.64" transform="translate(998.14 399.11) rotate(180)"/><path class="cls-9" d="M660,293.25a207.91,207.91,0,0,0,7.37-21.68c6-22.83,4.55-39.47,4.33-47.47,0-1.06,1.66-1.35,1.81-.26a89.83,89.83,0,0,1,.65,11.36A143.89,143.89,0,0,1,673,254.41c4.4,1.14,8.56-.57,12-3.65,5.87-5.31,8-12.39,8.89-20.24.09-.8.12-1.56.77-2a.46.46,0,0,1,.9.08c.93.95.48,2.87.34,4.11-1.94,16.7-12.09,24.8-20.27,24.72a11.37,11.37,0,0,1-3-.32q-.89,6-2.27,11.89a174.59,174.59,0,0,1-7,21.85c-9.33,24.45-12.3,36.95-15,44a1.11,1.11,0,1,1-2.13-.61C646.41,333.73,653.68,309.64,660,293.25Z"/><path class="cls-9" d="M622.62,229c.09-.53.4-.88.52-1.37.15-.65,1.21-.72,1.32,0,.07.41.29.66.38,1.08.29,1.35-.4,9,1.39,20.6a51.53,51.53,0,0,0,2,9.13c1.66,4.77,4.7,9.92,8.47,13.17a198.67,198.67,0,0,1,1.35-20.4q.74-6.09,1.86-12.11c.36-1.95.76-3.9,1.18-5.84A22.51,22.51,0,0,1,643,227.4a.62.62,0,0,1,1.16.32,24.34,24.34,0,0,1-.74,5.23c-.37,1.75-.73,3.5-1,5.26A196.55,196.55,0,0,0,639,275.89a79.29,79.29,0,0,0,16.17-39.51c.24-2.17.39-4.36.44-6.55,0-1.13,0-2.26.07-3.39,0-.59.23-2.34,1.22-1.83s.81,1.53.89,2.46.09,2,.08,3q0,2.9-.31,5.79a81.52,81.52,0,0,1-14.57,39,39.88,39.88,0,0,1-4,5.07c.34,22.33,3.66,50.54,3.72,52.79a9.44,9.44,0,0,1-.17,1.5c-.16,1-1.49.78-1.76,0-.51-1.47-.46-2-1.23-10.19-1.37-14.53-2.9-47.8-2.89-49.15-4.75-3.41-8.12-8.66-10.32-14.15a42.84,42.84,0,0,1-2.36-9C622.28,241.23,622.34,230.69,622.62,229Z"/><path class="cls-10" d="M655.29,210.74a44.12,44.12,0,0,1-.27-4.92c0-18.67,11.6-33.81,25.91-33.81s25.92,15.14,25.92,33.81a44.1,44.1,0,0,1-.28,4.92Z"/><path class="cls-6" d="M626,202.44q-.27-3.41-.27-6.95c0-26.34,11.6-47.68,25.91-47.68s25.92,21.34,25.92,47.68c0,2.36-.1,4.68-.28,6.95Z"/><path class="cls-10" d="M676.93,231.65c.22-2.27.34-4.59.34-7,0-26.33-14.71-47.68-32.85-47.68s-32.85,21.35-32.85,47.68c0,2.36.12,4.68.34,7Z"/><path class="cls-6" d="M651.7,177c9.07,0,17.17,6.78,22.52,17.4a25.31,25.31,0,0,1,8.61-1.5c16.1,0,29.15,15.13,29.15,33.8a38,38,0,0,1-.31,4.93H622.86q-.32-3.41-.31-7C622.55,198.37,635.6,177,651.7,177Z"/><path class="cls-12" d="M634.8,297.53l2.7-3.45a5.71,5.71,0,0,0-.89-8h0c-6.16-4.64-15.15-3.09-20.07,3.46l-3.6,4.79a6.89,6.89,0,0,1-6.38,2.76,6.1,6.1,0,0,0-5.6,2.47l-1.9,2.53a11.47,11.47,0,0,0-2,9.4,7,7,0,0,1-1.28,5.71l-2.68,3.57A8.7,8.7,0,0,0,594.4,333l2.12,1.59a8.69,8.69,0,0,0,12.11-2.08h0c3.15-5.45,6.79-7.22,9.74-7.58a16.36,16.36,0,0,0,11.06-6.43l.38-.51a16.28,16.28,0,0,0,3-13.09C632.34,302.87,632.66,300.38,634.8,297.53Z"/><path class="cls-7" d="M581.32,335.47S595.26,317,604,314.12s1.92,6.94,1.92,6.94,14.15-15.52,19.86-14c5.23,1.4,0,11.95,0,11.95s5.89-5.84,13-5.84-5.53,21.86-5.53,21.86Z"/><path class="cls-6" d="M625.8,335.36s9.65-27.23,21.45-24.29c9.56,2.39,2.63,17,3.22,16.39s5.71-9.29,14-9.29-2.54,11.75-2.54,11.75,17.67-5.52,19.06.27c1.14,4.81-5.28,5.17-5.28,5.17Z"/><path class="cls-26" d="M290.82,262.47s4.47,22,2.43,24-13.32,6.2-15.88,5.25-7.83-26.05-6.37-28.54S289.63,259,290.82,262.47Z"/><path class="cls-27" d="M289,327.71s-.29,2.52-.29,3v.43l.21.43.08.17-1.51,2.12-6.19.09c-.14,0,.81-1.46.81-1.46s2-1.51,2.36-2.57a7.4,7.4,0,0,0-.3-3.27Z"/><path class="cls-27" d="M318.21,312.61s2.16,1.34,2.5,1.61l.33.26.21.44.09.17,2.59.13,3.92-4.79c.09-.11-1.1.16-1.1.16a10.86,10.86,0,0,1-3.48,0,15.12,15.12,0,0,1-3.18-2.48Z"/><path class="cls-28" d="M298.6,288.94l23.25,19.8-3.58,5.07s-22.82-14.34-24.07-14.51-3.21.28-3.45,1.19-1,27.92-1,27.92h-6.21L280.34,294Z"/><path class="cls-27" d="M265.11,260.7c-1.72-1.13-5.76-5.47-7.13-6.94a4.67,4.67,0,0,0-1.25-2.45c-.78-.9-1.36-3-1.87-2.38s.75,2.22.17,2.23-3.45-3.22-3.91-2.69,2.45,3.4,1.93,3.41-2.88-2.9-3.54-2.16,3.11,3.17,2.76,3.57-2.68-1.19-3.21-.59,3.29,2,3,2-2.5-.05-2.52.37,5.57,1.23,6.25,2h0c1.46,2.33,4.06,6.57,6.68,8.43,3.22,2.28,10.66,7.11,10.66,7.11l3.69-4.77S267.15,262,265.11,260.7Z"/><path class="cls-29" d="M255,252.19a2.29,2.29,0,0,0-.22.89,2.23,2.23,0,0,0,.72,1.81A3.85,3.85,0,0,1,255,252.19Z"/><path class="cls-27" d="M299.19,255.48c1.36-1.54,4.13-6.78,5.06-8.56a4.69,4.69,0,0,1,.57-2.7c.51-1.07.54-3.2,1.19-2.78s-.15,2.34.41,2.2,2.49-4,3.07-3.63-1.48,3.93-1,3.8,2-3.55,2.86-3-2.17,3.86-1.73,4.16,2.28-1.85,2.94-1.41-2.64,2.81-2.35,2.73,2.41-.7,2.53-.3-5.05,2.64-5.49,3.62h0c-.8,2.62-2.2,7.39-4.25,9.88-2.51,3-8.42,9.64-8.42,9.64l-4.81-3.64S297.57,257.3,299.19,255.48Z"/><path class="cls-29" d="M306.69,244.63a2.33,2.33,0,0,1,.22,2.74A3.83,3.83,0,0,0,306.69,244.63Z"/><path class="cls-30" d="M295.29,259l4.34,5.66-5.39,8s.51,5.95,1.28,7.81,5.28,9.5,5.28,9.5-10.92,6.69-21.6,5.71c0,0-3-15.48-3.85-17s-9-8.85-9-8.85l4-6.39,6.82,3.79s12.48-2,13.08-2.62S295.29,259,295.29,259Z"/><path class="cls-21" d="M281.21,247.42s4.21-2.23,5.65,1.47c0,0,3.79-.39,3.13,3.53,0,0,3.81,1.92,1.4,6.85,0,0,1.06,4.64-4.37,4.93a3,3,0,0,1-3.29,1.27c-2.48-.39-3.11-1-3.11-1s-4.39,1.28-5.72-2.68c0,0-3-.72-1-4.6,0,0-2.64-5,2-6.53C275.91,250.62,276.46,245.48,281.21,247.42Z"/><path class="cls-27" d="M279.51,258.3c.34,1,.09,1.92-.55,2.15s-1.45-.35-1.79-1.31-.1-1.92.55-2.15S279.16,257.35,279.51,258.3Z"/><path class="cls-27" d="M290.87,256c.05,1-.47,1.86-1.15,1.89s-1.28-.76-1.33-1.77.47-1.87,1.15-1.9S290.82,255,290.87,256Z"/><path class="cls-27" d="M286.05,262.67c0,.07.55,2.42.84,3.66a1,1,0,0,1-.56,1.14c-1.16.53-3.44,1.27-5-.16a.66.66,0,0,1-.21-.51l.19-5.61Z"/><path class="cls-29" d="M286.34,264a4.53,4.53,0,0,1-4.49-.38,7.4,7.4,0,0,1-.62-.41l.07-2,4.75,1.48S286.18,263.27,286.34,264Z"/><path class="cls-27" d="M282.68,249.71a6,6,0,0,0-3.29,2.57c-1.22,2-1.89,7.85,2.46,10.4s7.52-1.4,7.44-5.14S287.54,249,282.68,249.71Z"/><path class="cls-26" d="M290.11,335.36c.92-.12-.68-3.32-1.19-3.84l-6.81.92a24,24,0,0,0-4.06,2.3c-.18.18-.2.5.6.62A68.45,68.45,0,0,0,290.11,335.36Z"/><path class="cls-26" d="M323.59,318.28c-.8.48-2.26-2.64-2.34-3.36l5.5-4.33s4.24-1.22,5.1-.36S325.4,317.19,323.59,318.28Z"/><path class="cls-26" d="M277.47,289.44c4.39-4.39,3.52-17.88,2.72-23.58l-1.89.27c.68,4.82,1.61,18.18-2.17,22Z"/><path class="cls-26" d="M296.21,281.88l.21-1.71a151.92,151.92,0,0,0-6.57-15.94l-1.7.86C288.18,265.15,291.78,273.66,296.21,281.88Z"/><path class="cls-15" d="M211.88,264.11s-7.49-1-10.22.42-4.23,18.24-4.23,18.24l2.43.74s-.34,11.65,1.51,12.46,14.88-1.7,17.85-4.67-2.62-27.81-2.62-27.81Z"/><path class="cls-27" d="M226.67,252.23c.87-2,2-8,2.33-10.1a5,5,0,0,1-.29-2.86c.18-1.22-.46-3.36.31-3.13s.59,2.36,1.1,2.05,1.21-4.78,1.92-4.57-.24,4.36.22,4.08.9-4.17,1.89-3.89-.94,4.53-.41,4.68,1.69-2.55,2.48-2.32-1.74,3.62-1.47,3.46,2.17-1.46,2.42-1.1-4.19,4.21-4.32,5.32h0c0,2.86.14,8-1.11,11.16-1.54,3.81-5.33,12.24-5.33,12.24l-5.93-2.1S225.63,254.55,226.67,252.23Z"/><path class="cls-29" d="M230.7,239.09a2.21,2.21,0,0,1,.7.66,2.33,2.33,0,0,1,.39,2A4,4,0,0,0,230.7,239.09Z"/><path class="cls-27" d="M188.71,265.62a4.37,4.37,0,0,0-.39-2.56c-.42-1-.37-3-1-2.65s0,2.18-.45,2-2.07-3.86-2.61-3.53,1.17,3.73.73,3.59-1.67-3.42-2.43-2.95,1.79,3.72,1.38,4-2-1.84-2.57-1.46,2.25,2.75,2,2.66-2.12-.78-2.25-.41,3.71,2.11,4.07,3,6.26,10.52,8.22,10.73,11.39-4.79,12.24-6.66.27-4-1-4.41-10.09,4.62-10.48,4.49S188.71,265.62,188.71,265.62Z"/><path class="cls-29" d="M187,263.11a2.45,2.45,0,0,0-.24,2.85A3.94,3.94,0,0,1,187,263.11Z"/><path class="cls-27" d="M196.72,310.3a12.17,12.17,0,0,1-2.85-2.21c-2.35,1.82-7.23,7.49-7.23,7.49a2,2,0,0,0,1.69.28c.78-.35,4.36-2,6-1.38.44.15,5.29,1.8,9.6,2.91.53-1.54-.93-4.63-.21-6.08C201.44,310.56,197.06,310.42,196.72,310.3Z"/><path class="cls-31" d="M195.55,309.58s-4.22,4.32-4.64,5.08-5.57,2.77-5.83,2,6.23-9.38,7.25-9.69S195.55,309.58,195.55,309.58Z"/><path class="cls-27" d="M222.89,322.84a11.81,11.81,0,0,1-2.25,2.77c1.91,2.25,7.85,6.9,7.85,6.9a1.8,1.8,0,0,0,.26-1.64c-.37-.74-2.27-5.39-1.69-7a38.21,38.21,0,0,1,2.3-5.31,44.82,44.82,0,0,1-4.69-1.93C223.92,318.85,223,322.52,222.89,322.84Z"/><path class="cls-28" d="M222.23,289.39s11,10.85,12.11,12.94c.83,1.56-4.24,17.64-4.24,17.64s-4.76-.36-6.76-2.28c0,0,2.53-11.22,2-11.73s-13.08-7.78-13.08-7.78l1.56-6.65Z"/><path class="cls-21" d="M219.81,289.1s-2.87,6.66-2.87,9.26c0,2,.88,17.93-3.32,19.46-2.38.87-13.61-.41-13.61-.41l1-7.22s5.34.8,5.81.34-4.28-12.47-3.29-16.59,9.23-6.64,9.23-6.64Z"/><path class="cls-32" d="M223.37,258.16s1.34.4,5.46,6l-6.62,10.46-4-9.72Z"/><path class="cls-32" d="M213.72,265a34,34,0,0,0,5-.89c1.32-.47,9.95,28,6.93,28.68-6.31,1.35-22.7,5-22.7,5a10.46,10.46,0,0,1,.6-4.44c1.53-4.87,2.4-16,2.4-18,0-1.16-6,2.84-6,2.84l-2.51-9.05a105.19,105.19,0,0,1,10.31-3.62C208.49,265.35,213.72,265,213.72,265Z"/><path class="cls-15" d="M225.1,283.3c-1-4.65-9.13-18.61-9.2-18.74l1.67-.9c.3.55,6.91,12.35,7.93,17.27Z"/><path class="cls-31" d="M222.24,323.89s4.76,4.34,5.62,4.76c.71.35,2.33,5.49,1.44,5.77s-9.74-6.09-10.1-7.15S222.24,323.89,222.24,323.89Z"/><path class="cls-15" d="M203.46,289.41l-.86-1.36c.07-.05,7.3-4.66,8.12-10.55s-3.37-12.21-3.41-12.27l1.33-.91c.18.28,4.59,6.82,3.68,13.4S203.78,289.21,203.46,289.41Z"/><path class="cls-10" d="M213.82,246a4.08,4.08,0,0,1,4.76,1.88c1.87,2.93.86,2.65,1.77,4.11s3.28,1.17,3.28,3.44-1.06,2.62-1.06,2.62a3.88,3.88,0,0,1-.1,3.59,6.76,6.76,0,0,1-5.92,3.13,10.25,10.25,0,0,1-6.66,1c-3.33-.86-2.17-.86-3.53-.86s-5.05-1.87-4.44-4.59c0,0-2.25-2.67-.07-4.85s2.59-4.39,3.85-7.32S212.31,245.24,213.82,246Z"/><path class="cls-27" d="M215.75,261.54s-.12,4,.26,4.4a1.47,1.47,0,0,1,.35,2c-.56,1-3,.35-4.09-.2a5.37,5.37,0,0,1-1.78-1.51l.57-6.37Z"/><path class="cls-28" d="M214.15,263.21a5.66,5.66,0,0,1-3.17-2.5l.08-.89,4.69,1.72s0,1,0,2A5.47,5.47,0,0,1,214.15,263.21Z"/><path class="cls-27" d="M210.23,255.27s-.12-2.36-1.57-1.9-.34,4,.86,3.91S210.23,255.27,210.23,255.27Z"/><path class="cls-27" d="M214.79,247.55a4.31,4.31,0,0,1,3.44,1.72c1.16,1.77,2.42,6.82.5,10.3s-4.37,2.63-5.38,2.27a6,6,0,0,1-4-4.39C208.33,254.19,209.06,246.87,214.79,247.55Z"/><rect class="cls-10" x="20.37" y="335.18" width="665.65" height="2.16" transform="translate(706.38 672.52) rotate(180)"/><path class="cls-33" d="M218,257.74h-3.62a1.59,1.59,0,0,0,1.68,1.43C218,259.22,218,257.74,218,257.74Z"/><path class="cls-33" d="M286.67,259.49l-3.61.33a1.59,1.59,0,0,0,1.8,1.27C286.8,261,286.67,259.49,286.67,259.49Z"/></g></g></g></svg>