<?xml version="1.0" encoding="utf-8"?>
<!-- Generator: Adobe Illustrator 24.0.0, SVG Export Plug-In . SVG Version: 6.00 Build 0)  -->
<svg version="1.1" id="Layer_1" xmlns="http://www.w3.org/2000/svg" xmlns:xlink="http://www.w3.org/1999/xlink" x="0px" y="0px"
	 viewBox="0 0 440.7 100.8" style="enable-background:new 0 0 440.7 100.8;" xml:space="preserve">
<style type="text/css">
	.st0{fill:#2E3190;}
	.st1{clip-path:url(#SVGID_2_);}
	.st2{clip-path:url(#SVGID_4_);}
	.st3{clip-path:url(#SVGID_6_);}
</style>
<title>footer-logo</title>
<g id="Layer_2_1_">
	<g id="Layer_1-2">
		<path class="st0" d="M309,74.6c0,0-0.9-2-2-4.4s-2-4.5-2.1-4.7c-0.3-0.4-0.7-0.7-1.2-0.9c-0.3-0.1-0.5-0.1-0.5-0.3
			s0.2-0.1,2.7-0.1s2.8,0,2.8,0.1s-0.1,0.1-0.4,0.2c-0.4,0.1-0.8,0.3-1.1,0.6c-0.1,0.1-0.1,0.3-0.1,0.5c0.4,1.2,0.8,2.4,1.4,3.5
			c0.9,1.9,1.2,2.5,1.3,2.5c0.9-1.8,1.7-3.7,2.3-5.6c0.1-0.4,0.1-0.6,0.1-0.7c-0.3-0.4-0.8-0.6-1.2-0.7c-0.3-0.1-0.4-0.1-0.4-0.2
			s0.1-0.1,2.3-0.1s2.3,0,2.3,0.1s-0.1,0.2-0.4,0.3c-0.3,0.1-0.6,0.3-0.8,0.6c-0.5,0.6-1.6,2.5-3.9,7.9
			C309.2,74.5,309.1,74.7,309,74.6L309,74.6z M272.5,74.3c-1.4-0.1-2.6-1.2-2.7-2.6c-0.1-0.8-0.2-1.6-0.3-2.5
			c-0.3-3.2-0.5-3.8-1-4.3c-0.2-0.2-0.4-0.3-0.6-0.3c-0.8-0.1-0.8-0.1-0.8-0.3s0-0.2,1-0.2c0.5,0,1.4-0.1,2-0.1h1l0.1,0.3
			c0,0.2,0.1,1.3,0.1,2.5c0.1,2.4,0.3,4.4,0.4,4.9c0.2,0.5,0.6,0.9,1,1.2c0.6,0.4,1.2,0.5,1.9,0.5c1,0.1,1.9-0.3,2.5-1.2
			c0.5-1.6,0.8-3.2,0.8-4.8c0.1-1.4,0-1.8-0.4-2.3c-0.3-0.4-0.7-0.6-1.2-0.7c-0.3,0-0.4-0.1-0.4-0.2s0.1-0.1,2.6-0.1s2.6,0,2.6,0.1
			s-0.2,0.2-0.5,0.2c-0.4,0.1-0.8,0.2-1.1,0.5c-0.7,0.9-1,1.9-1,3c-0.1,1.2-0.2,2.4-0.5,3.6c-0.2,1.3-1.2,2.3-2.5,2.6
			C274.6,74.5,273.6,74.5,272.5,74.3z M342.7,74.2c-0.6-0.1-1.1-0.3-1.6-0.6l-0.4-0.2v-1.6c0-1.6,0-1.6,0.1-1.6s0.2,0.1,0.4,0.7
			c0.5,1.9,1.5,2.8,2.8,2.8c0.9-0.1,1.6-0.9,1.6-1.8c0-0.1,0-0.2-0.1-0.3c-0.1-0.3-0.3-0.6-0.5-0.8c-0.5-0.4-1-0.8-1.6-1
			c-0.7-0.3-1.4-0.8-1.6-0.9c-1-0.7-1.3-2-0.8-3.1c0.6-1.2,1.9-1.9,3.3-1.8c0.7,0,1.4,0.1,2,0.3c0.4,0.1,0.4,0.2,0.4,0.5v1.4
			c-0.1,1-0.1,1.1-0.2,1s-0.2-0.1-0.3-0.6c-0.1-0.8-0.6-1.5-1.3-1.9c-0.7-0.4-1.6-0.2-2.1,0.5c-0.3,0.4-0.4,0.9-0.2,1.4
			c0.2,0.7,0.6,1,2.1,1.8c0.8,0.3,1.5,0.8,2.1,1.4c0.7,0.8,0.8,1.9,0.3,2.9c-0.5,0.8-1.3,1.4-2.3,1.5
			C344.1,74.3,343.4,74.3,342.7,74.2L342.7,74.2z M423.6,74.1c-0.3-0.1-0.8-0.3-1.1-0.3l-0.4-0.2V72c0-1.4,0-1.6,0.1-1.6
			s0.1,0.1,0.3,0.7c0.5,2,1.7,3.1,3.1,2.8c0.9-0.3,1.5-1.3,1.2-2.2c0-0.1-0.1-0.2-0.1-0.3c-0.3-0.6-0.7-0.8-2.1-1.5
			c-2.1-1-2.5-1.6-2.5-2.9c0-0.9,0.4-1.8,1.2-2.3c1.3-0.8,2.9-0.8,4.3-0.2l0.3,0.1l-0.1,0.8c-0.1,1.7-0.1,1.9-0.3,1.9
			s-0.1-0.1-0.2-0.3c-0.1-0.8-0.6-1.6-1.2-2.1c-0.5-0.3-1.1-0.3-1.6-0.1c-0.6,0.2-1,0.8-1,1.5c0,0.9,0.5,1.4,2.1,2.2
			c1.7,0.8,2.3,1.2,2.6,2c0.2,0.7,0.2,1.5-0.1,2.1c-0.4,0.8-1.2,1.4-2.1,1.6C425.2,74.3,424.3,74.3,423.6,74.1L423.6,74.1z
			 M433,74.1c-0.3-0.1-0.8-0.3-1.1-0.3l-0.5-0.2V72c0-1.6,0-1.6,0.1-1.6s0.1,0.1,0.2,0.3c0.2,0.9,0.6,1.8,1.2,2.5
			c0.8,0.8,2,0.8,2.8,0.1c0.1-0.1,0.2-0.3,0.3-0.4c0.4-0.7,0.2-1.6-0.5-2.1c-0.5-0.4-1.1-0.7-1.6-1c-2-1-2.5-1.5-2.5-2.8
			c-0.1-1,0.4-1.9,1.2-2.4c1.3-0.8,3-0.8,4.4-0.2l0.4,0.1l-0.1,1c-0.1,1.5-0.1,1.7-0.3,1.7s-0.2-0.2-0.3-0.7
			c-0.2-0.7-0.6-1.3-1.2-1.8c-0.3-0.2-0.7-0.3-1-0.2c-0.3,0-0.6,0-0.8,0.2c-0.6,0.4-0.9,1.1-0.7,1.8c0.2,0.6,0.7,1,2.2,1.8
			c1.7,0.9,2.1,1.2,2.5,1.9c0.2,0.3,0.3,0.7,0.2,1.1c0.1,0.4,0,0.8-0.2,1.2c-0.4,0.8-1.2,1.4-2.1,1.6
			C434.7,74.4,433.8,74.3,433,74.1L433,74.1z M337.7,74.1c-0.5,0-1.1-0.1-1.2-0.1c-1.3-0.6-2.3-1.6-3-2.8c-0.5-0.7-0.9-1.4-1.3-2.2
			l0.4-0.1c1-0.2,1.6-1,1.5-2c0.1-0.6-0.2-1.1-0.6-1.5c-0.6-0.5-1.3-0.7-2-0.8h-0.3v3.8c0,4.2,0.1,4.3,0.5,4.8
			c0.4,0.3,0.9,0.5,1.4,0.6c0.3,0.1,0.4,0.1,0.4,0.2s-0.1,0.1-3,0.1s-3,0-3-0.1s0.1-0.1,0.5-0.3c0.7-0.1,1-0.3,1.2-0.8
			s0.1-0.3,0.1-3.7v-3.4l-0.2-0.3c-0.2-0.4-0.5-0.6-1.2-0.8c-0.5-0.1-0.5-0.1-0.5-0.3s0.1-0.1,2.9-0.1c3.2,0,3.4,0,4.5,0.5
			c0.8,0.3,1.3,1.1,1.3,1.9c0,1-0.6,1.9-1.6,2.2l-0.5,0.2l0.2,0.3c0.8,1.4,1.8,2.6,3,3.6c0.4,0.3,0.9,0.6,1.5,0.8
			c0.2,0.1,0.3,0.1,0.3,0.3s-0.1,0.2-0.2,0.1C338.4,74.2,338,74.1,337.7,74.1z M407.9,74.1c-0.4,0-0.9-0.1-1.3-0.2
			c-1.2-0.3-2.4-1.6-3.8-4.1l-0.5-1l0.4-0.1c1.1-0.3,1.6-0.8,1.6-1.7c0.1-1.4-0.8-2.3-2.5-2.5l-0.4-0.1v2.9c0,1.6,0,3.4,0.1,4
			c0.1,1.6,0.4,2,1.6,2.2c0.5,0.1,0.6,0.1,0.6,0.3s-0.1,0.1-2.9,0.1s-2.9,0-2.9-0.1s0.1-0.1,0.5-0.3c1.2-0.3,1.3-0.6,1.4-2.5
			c0.1-1.1,0.1-2.2,0-3.4c-0.1-1.9-0.1-2.1-0.3-2.4s-0.5-0.6-1.3-0.8c-0.4-0.1-0.4-0.1-0.4-0.3v-0.2h2.9c3.2,0.1,3.5,0.1,4.4,0.6
			c0.5,0.2,0.9,0.6,1.1,1c0.2,0.6,0.2,1.3,0,1.9c-0.3,0.5-0.8,1-1.3,1.2c-0.3,0.1-0.5,0.3-0.5,0.3c0.4,0.7,0.8,1.4,1.4,2.1
			c0.6,0.8,1.3,1.5,2.1,2c0.3,0.2,0.6,0.3,0.9,0.4c0.4,0.1,0.5,0.2,0.5,0.3C409.2,74.2,409.4,74.2,407.9,74.1L407.9,74.1z
			 M282.3,73.9c0-0.1,0.1-0.1,0.4-0.2c0.6-0.1,1.2-0.5,1.4-1.1c0.3-1.8,0.4-3.7,0.3-5.6l-0.1-1.1l-0.5-0.5c-0.4-0.4-0.9-0.7-1.5-0.9
			c-0.1-0.1-0.3-0.1-0.3-0.2s0.1-0.1,1.6-0.1h1.6l0.5,0.7c0.7,0.8,1.3,1.5,2.8,3c0.6,0.7,1.6,1.6,2.1,2.2l1,1c0.1,0,0.1-3.6,0-4.5
			c0-0.5-0.1-1.1-0.5-1.5c-0.4-0.3-1-0.5-1.5-0.6c-0.4-0.1-0.5-0.1-0.5-0.2s0.1-0.1,2.6-0.1s2.6,0,2.6,0.1s-0.1,0.1-0.4,0.2
			c-0.4,0.1-0.8,0.3-1,0.6c-0.3,0.7-0.5,3.7-0.4,6.9l0.1,1.9h-0.3c-0.2,0-0.3-0.1-1-0.8c-0.4-0.5-1.6-1.6-2.5-2.7s-2.2-2.3-2.7-2.8
			c-0.3-0.4-0.6-0.7-1-1c-0.1,0-0.1,0.3-0.1,2.3c0.1,2.5,0.1,3.2,0.3,3.6s0.7,0.8,1.8,0.9c0.5,0.1,0.6,0.1,0.6,0.2s-0.1,0.1-2.7,0.1
			S282.4,73.9,282.3,73.9L282.3,73.9z M296.5,73.9c0-0.1,0.1-0.1,0.1-0.2c1.4-0.3,1.6-0.5,1.8-1.6c0.1-2,0.1-3.9,0-5.9
			c-0.1-0.6-0.2-0.9-0.4-1.1c-0.4-0.3-0.8-0.4-1.2-0.5c-0.3-0.1-0.4-0.1-0.4-0.2s0.1-0.1,2.9-0.1s2.9,0,2.9,0.1s-0.1,0.1-0.5,0.3
			c-0.5,0.1-1,0.4-1.3,0.9c-0.1,0.3-0.2,0.3-0.1,3.4c0,2.8,0,3.2,0.1,3.6c0.2,0.7,0.7,1,1.6,1.2c0.2,0.1,0.3,0.1,0.3,0.2
			s-0.1,0.1-2.9,0.1S296.5,74,296.5,73.9L296.5,73.9z M316.3,73.9c0-0.1,0.1-0.1,0.4-0.2c0.4-0.1,0.9-0.2,1.2-0.5
			c0.4-0.4,0.5-1.4,0.5-4.3c0-3.2-0.1-3.7-0.9-4.1c-0.2-0.1-0.5-0.2-0.8-0.3c-0.3-0.1-0.4-0.1-0.4-0.2s0.1-0.1,4.3-0.1h4.3l-0.1,0.1
			c0,0.1-0.1,0.7-0.1,1.3v1.2h-0.2c-0.1,0-0.2,0-0.2-0.1c-0.1-0.5-0.3-1-0.7-1.4c-0.5-0.6-1-0.7-2.4-0.7h-1.1v3.8h0.8
			c1,0,1.8-0.1,1.9-0.3c0.1-0.2,0.2-0.4,0.3-0.6c0.1-0.4,0.2-0.6,0.3-0.6s0.1,0,0.1,0.9c0,0.5,0,1.4-0.1,2c-0.1,1-0.1,1.1-0.2,1.1
			s-0.1-0.1-0.2-0.3c0-0.5-0.3-0.9-0.7-1.1c-0.3-0.1-0.5-0.1-1.4-0.1h-1.1v1.6c0,1.9,0.1,2.1,0.7,2.3c0.3,0.2,0.7,0.2,1.1,0.2
			c0.4,0.1,0.9,0,1.2-0.3c0.9-0.5,1.6-1.4,1.9-2.4c0.1-0.3,0.2-0.5,0.4-0.5c0,0,0.1,0,0.1,0.1c-0.2,1-0.4,2-0.7,3l-0.1,0.4h-4.2
			C316.3,74,316.3,74,316.3,73.9L316.3,73.9z M349.5,73.9c0-0.1,0.1-0.1,0.2-0.2c1-0.2,1.4-0.4,1.6-0.9c0.3-1.4,0.4-2.8,0.3-4.3
			c-0.1-2.5-0.1-3-0.4-3.4c-0.4-0.3-0.8-0.5-1.3-0.6c-0.2-0.1-0.3-0.1-0.3-0.2s0.1-0.1,2.9-0.1s2.9,0,2.9,0.1s-0.1,0.1-0.4,0.2
			c-0.7,0.1-1.3,0.5-1.5,1.2c-0.1,2.1-0.1,4.3,0,6.4c0.1,1,0.5,1.2,1.4,1.5c0.5,0.1,0.6,0.1,0.6,0.3s-0.1,0.1-2.9,0.1
			C349.5,74,349.5,74,349.5,73.9z M358.9,73.9c0-0.1,0.1-0.1,0.3-0.2c0.5,0,1-0.2,1.4-0.6c0.2-0.2,0.3-0.4,0.3-0.7
			c0.1-0.4,0.1-0.9,0.1-4V65h-1c-1.2,0-1.7,0.1-2,0.6c-0.3,0.5-0.5,1-0.5,1.6c0,0.3-0.1,0.3-0.2,0.3s-0.1-0.1-0.2-0.1
			c0-0.9,0-1.8,0.1-2.8l0.1-0.3h9.2l0.1,1.4c0.1,0.8,0.1,1.4,0.1,1.5s0,0.2-0.1,0.1s-0.2-0.1-0.4-0.6c-0.3-1-0.6-1.4-1.2-1.7
			c-0.7-0.1-1.3-0.1-2-0.1h-0.2v3.4c0,4.7,0.1,4.9,1.2,5.2c0.2,0.1,0.4,0.1,0.7,0.1c0.3,0.1,0.4,0.1,0.4,0.2s-0.1,0.1-3,0.1
			S358.8,74.1,358.9,73.9L358.9,73.9z M370.7,73.9c0-0.1,0.1-0.1,0.3-0.2c1-0.1,1.5-0.5,1.7-1c0.1-0.4,0.2-0.8,0.1-1.2l0.1-1
			l-0.3-0.6c-0.9-1.6-1.9-3.2-3.1-4.7c-0.4-0.3-0.8-0.5-1.2-0.6c-0.3-0.1-0.3-0.1-0.3-0.2s0.1-0.1,2.5-0.1s2.5,0,2.5,0.1
			s-0.1,0.1-0.4,0.2c-0.2,0.1-0.4,0.2-0.5,0.3c-0.4,0.3-0.3,0.8,1.2,3c1.1,1.7,0.9,1.6,1.6,0.2c0.5-0.8,0.8-1.7,1-2.6
			c0-0.4-0.1-0.6-0.6-0.8c-0.2-0.1-0.3-0.1-0.3-0.3s0.1-0.1,2-0.1s2,0,2,0.1s-0.1,0.1-0.5,0.3c-0.6,0.2-1.2,0.6-1.5,1.1
			c-0.7,1.1-1.3,2.2-1.9,3.4l-0.5,1v1.1c0,1.2,0.1,1.7,0.5,2c0.4,0.3,0.8,0.5,1.3,0.6c0.3,0.1,0.3,0.1,0.3,0.2s0,0-3,0
			S370.7,74,370.7,73.9L370.7,73.9z M386.7,73.9c0-0.1,0.1-0.1,0.3-0.2c0.5-0.1,0.9-0.2,1.2-0.6c0.3-0.3,0.4-0.8,0.4-3.6
			c0.1-4.2-0.1-4.5-1.5-4.8c-0.4-0.1-0.5-0.1-0.5-0.3s0.1-0.1,0.5-0.2c0.3,0,1.6-0.1,2.9,0c1-0.1,2.1,0,3.1,0.2
			c1.4,0.3,2.1,0.8,2.5,1.6c0.3,0.9,0.2,1.8-0.3,2.6c-0.7,0.8-1.7,1.3-2.8,1.4c-0.9,0.1-1,0.1-1-0.1s0.1-0.2,0.5-0.3
			c1.4-0.3,1.8-0.8,1.9-2.1c0-0.4,0-0.7-0.1-1.1c-0.3-0.6-0.7-1-1.3-1.3c-0.6-0.3-1.3-0.4-1.9-0.5h-0.3v3.8c-0.1,1.4,0,2.8,0.1,4.3
			c0.2,0.6,0.7,0.9,1.7,1c0.3,0.1,0.3,0.1,0.3,0.2s-0.1,0.1-3,0.1S386.7,74,386.7,73.9L386.7,73.9z M410.3,73.9
			c0-0.1,0.1-0.1,0.6-0.3c0.8-0.2,1.1-0.4,1.3-1.1c0.1-0.4,0.1-0.9,0.1-3.5c0-3.2,0-3.4-0.4-3.8c-0.3-0.3-0.7-0.5-1.2-0.6
			c-0.4-0.1-0.5-0.1-0.5-0.2s0.2-0.1,4.2-0.1h4.2v1.2c0,0.7-0.1,1.3-0.1,1.4s-0.1,0.1-0.2,0.1s-0.2-0.2-0.3-0.6
			c-0.4-1.3-1.2-1.7-3.2-1.7h-0.8l-0.1,0.4c0,0.2-0.1,1.1-0.1,1.9v1.5l1.2-0.1c0.5,0,1,0,1.4-0.1c0.3-0.2,0.5-0.5,0.5-0.9
			c0.1-0.2,0.1-0.3,0.2-0.3h0.2v1.4c0,1.9-0.1,2.5-0.2,2.5s-0.1-0.1-0.2-0.4c0-0.4-0.2-0.8-0.5-1c-0.2-0.1-0.4-0.1-1.4-0.1H414v1.3
			c-0.1,0.8,0,1.6,0.3,2.3c0.4,0.6,2.1,0.7,3.1,0.1c0.8-0.6,1.3-1.4,1.6-2.3c0.1-0.3,0.1-0.4,0.3-0.4c0.1,0,0.1,0.1,0.1,0.1
			c-0.1,1-0.3,1.9-0.6,2.8l-0.1,0.6h-4.2C410.4,74,410.3,74,410.3,73.9L410.3,73.9z M278.5,53c-3.4-0.2-6.6-1.6-9-4
			c-1-1-1.8-2.1-2.3-3.3c-1-2-1.5-4.3-1.4-6.6c0-1.3,0.1-2.6,0.4-3.8c1.2-4.7,5-8.4,9.8-9.4c1.4-0.3,2.9-0.5,4.3-0.5
			c6.8,0,11.9,3.4,13.7,9c1,3.1,1,6.4,0.1,9.5c-1.1,3.4-3.6,6.2-6.9,7.6c-1.6,0.8-3.4,1.3-5.2,1.5C280.8,53.1,279.6,53.1,278.5,53
			L278.5,53z M282.1,51.7c3.5-0.5,5.8-2.7,6.9-6.6c0.7-2.8,0.9-5.8,0.5-8.6c-0.2-2.6-1.4-5.1-3.1-7.1c-1.2-1.3-2.7-2.2-4.4-2.6
			c-0.7-0.2-1.4-0.3-2.1-0.2c-2.3-0.1-4.6,0.8-6.1,2.5c-2.1,2.2-3.4,6.5-3,11c0.3,4.1,1.2,6.7,3.4,8.9
			C276.1,51.2,279.1,52.3,282.1,51.7L282.1,51.7z M364.5,53c-0.1,0-0.5-0.1-0.9-0.1c-1.1-0.1-2.1-0.4-3.2-0.8
			c-3.8-1.3-6.8-4.3-8.2-8.1c-0.5-1.6-0.8-3.2-0.8-4.8c0-1.6,0.2-3.2,0.7-4.7c1.6-4.9,6-8.3,11.8-9c1.4-0.1,2.7-0.1,4.1,0
			c5,0.5,8.9,3.1,10.9,7.1c1.5,3.1,1.9,6.6,1.2,10c-0.4,1.7-1.1,3.3-2.1,4.7c-0.8,1-1.6,1.9-2.6,2.7c-2.8,2.1-6.2,3.1-9.7,3
			C365.3,53,364.7,53,364.5,53z M367.8,51.8c4.3-0.5,6.9-3.4,7.7-9.1c0.2-2,0.2-4,0-6c-0.3-2-0.9-3.9-2-5.6c-2.3-3.4-5.4-4.9-9-4.3
			c-1.6,0.2-3.2,0.9-4.4,2.1c-1.9,1.7-3,4.5-3.3,8c-0.1,1.7-0.1,3.5,0.1,5.2c0.2,1.4,0.6,2.8,1.2,4.1c0.5,1,1.1,2,1.9,2.8
			C362,51.1,364.9,52.2,367.8,51.8L367.8,51.8z M296.4,51.8c0-0.5,0.1-0.5,0.5-0.5c0.1,0,0.5-0.1,1-0.1c2.8-0.5,4.2-1.5,6.3-4.5
			c1.4-2,4.6-6.5,4.6-6.6c0-0.2-0.1-0.3-0.2-0.5c-0.1-0.2-1.2-1.9-2.3-3.8s-2.3-3.7-2.5-4.1c-1.2-1.7-2.8-3.1-4.7-4
			c-0.7-0.2-1.4-0.4-2.1-0.5c-0.5,0-0.5-0.1-0.5-0.5v-0.4h8.5l0.7,1.1c0.4,0.6,1.9,2.9,3.2,5s2.5,3.9,2.6,3.9
			c0.9-1.1,1.6-2.2,2.3-3.4c1.5-2.5,2-3.9,1.6-4.6c-0.5-0.6-1.3-1-2.1-1l-0.5-0.1v-0.8h10.8v0.8h-0.3c-1.2,0.1-2.5,0.4-3.6,1
			c-0.9,0.5-1.6,1.1-2.3,1.8c-1,1.3-2,2.6-2.8,4c-2.3,3.4-2.3,3.5-2.3,3.6s5.8,9,6.3,9.7c1.6,2.3,3.1,3.4,4.9,3.9
			c0.7,0.2,1.5,0.2,2.2,0.1c1.3,0.1,2.6-0.1,3.8-0.3c1.6-0.3,2.8-1.4,3.3-2.9l0.2-0.6v-8.2c0-5.8,0-8.4-0.1-8.9
			c-0.3-1.9-1-2.6-3.1-3c-0.3,0-0.7-0.1-1-0.2c-0.3,0-0.3,0-0.3-0.4v-0.4h19.9l0.1,2.7c0.1,1.4,0.1,2.7,0.1,2.7s-0.1,0.1-0.3,0.1
			h-0.3l-0.1-0.5c-0.5-2.1-1.9-3.2-4.6-3.6c-1.2-0.1-2.3-0.2-3.5-0.1l-2.7-0.1v10.5l2.9-0.1c1.5,0,3-0.1,4.5-0.3
			c0.1-0.1,0.1,0.1,0.1,3v3.1h-0.3c-0.3,0-0.4-0.1-0.4-0.5c0-0.9-0.3-1.8-0.8-2.6c-0.8-0.8-1.8-1-4.4-0.9l-1.5,0.1v4.4
			c0,4.7,0.1,5,0.4,5.7c0.3,0.5,0.7,0.9,1.2,1.1c1,0.3,2,0.5,3,0.6c0.3,0.1,0.3,0.1,0.3,0.4v0.3h-25.5l-3.5-5.5
			c-1.9-3-3.6-5.5-3.6-5.5c-0.7,0.7-1.2,1.4-1.7,2.2c-1.3,1.7-2.4,3.5-3.2,5.5c-0.2,1.1,0.5,1.8,2.3,2.5l0.5,0.2v0.7h-11.2
			L296.4,51.8L296.4,51.8z M386.8,48.7c0-1.9,0.1-5.8,0.1-8.6c0.1-5.9,0.1-10.2-0.1-10.9c-0.3-1-0.7-1.6-1.4-1.8
			c-0.4-0.1-0.7-0.1-1.1-0.1l-0.8-0.1l0.1-0.3c0-0.1,0-0.2,0.1-0.3c0.1-0.1,5.1-0.2,7.5-0.2c2-0.1,4,0,6,0.3
			c3.6,0.5,5.8,1.9,6.5,4.1c0.3,1,0.3,2.1,0.1,3.1c-0.6,2.4-2.7,4.4-5.7,5.3l-0.6,0.2l0.2,0.3c0.1,0.1,0.8,0.9,1.4,1.7
			c5.6,6.4,9.3,9.5,11.9,10c0.8,0.1,1.5,0,2.3-0.1c1.5-0.2,2.7-1.3,3-2.8c0.3-1,0.3-1.8,0.3-9.7c0-7.2-0.1-7.9-0.1-8.4
			c-0.2-1-0.8-1.9-1.7-2.3c-0.8-0.3-1.6-0.6-2.4-0.7l-0.4-0.1v-0.7l1.6-0.1c3.6-0.1,10.2-0.1,11.5-0.1c5.9,0.4,9.9,1.8,12.5,4.5
			c2.2,2.4,3.2,5.5,2.9,8.7c0,1.1-0.2,2.2-0.5,3.2c-1.4,4.3-5.8,7.9-10.8,9c-1.5,0.3-1.8,0.3-11.4,0.3c-8.5,0-9.3,0-10.1-0.1
			c-1.9-0.3-3.4-1.1-6-2.8c-1.9-1.4-3.6-3-5.1-4.9c-0.8-1-3.7-4.8-3.8-5s0-0.1,0.3-0.1c0.8-0.1,1.6-0.4,2.3-0.8
			c1.5-0.8,2.7-2,3.6-3.4c0.3-0.7,0.5-1.5,0.4-2.3c-0.2-1.4-0.9-2.8-2-3.6c-1.5-1.1-3.3-1.6-5.1-1.6l-0.9-0.1l-0.1,2.5
			c-0.1,5.6-0.1,17.6-0.1,18.3c0.3,2.1,1,2.6,3.8,3c1.4,0.2,1.2,0.1,1.2,0.6V52H387L386.8,48.7L386.8,48.7z M427.1,50.8
			c4.2-0.7,7.1-3.6,8.1-8.2c0.3-1.7,0.3-3.3,0.1-5c-0.2-1.8-0.8-3.5-1.8-5c-2-2.8-5.1-4.7-8.6-5c-1.3-0.2-2.6-0.2-3.8-0.1l-0.4,0.1
			v10.4c0,9.3,0.1,10.4,0.1,10.7c0.2,1,1,1.8,2,2C424.2,51,425.6,51.1,427.1,50.8L427.1,50.8z"/>
		<g>
			<defs>
				<rect id="SVGID_1_" x="0.7" y="0" width="100" height="100"/>
			</defs>
			<clipPath id="SVGID_2_">
				<use xlink:href="#SVGID_1_"  style="overflow:visible;"/>
			</clipPath>
			<g class="st1">
				
					<image style="overflow:visible;enable-background:new    ;" width="260" height="174" xlink:href="B1F733E5.png"  transform="matrix(0.7073 0 0 0.7073 -41.4375 -9.4324)">
				</image>
			</g>
		</g>
		<g>
			<defs>
				<path id="SVGID_3_" d="M156.1,4.5h66.1v83.5h-25.4c0,0-8,11.9-14.1,0h-26.5V4.5z"/>
			</defs>
			<clipPath id="SVGID_4_">
				<use xlink:href="#SVGID_3_"  style="overflow:visible;"/>
			</clipPath>
			<g class="st2">
				<g>
					<defs>
						<rect id="SVGID_5_" x="94.1" y="3.6" width="191.4" height="124.6"/>
					</defs>
					<clipPath id="SVGID_6_">
						<use xlink:href="#SVGID_5_"  style="overflow:visible;"/>
					</clipPath>
					<g class="st3">
						
							<image style="overflow:visible;enable-background:new    ;" width="620" height="427" xlink:href="B1F733E7.jpeg"  transform="matrix(0.4 0 0 0.4 66.1425 -20.32)">
						</image>
					</g>
				</g>
			</g>
		</g>
	</g>
</g>
</svg>
