<svg xmlns="http://www.w3.org/2000/svg" viewBox="0 0 38.44 38.44"><defs><style>.cls-1{fill:#821966;}</style></defs><title>Asset 93</title><g id="Layer_2" data-name="Layer 2"><g id="Layer_1-2" data-name="Layer 1"><path class="cls-1" d="M12.86,18.75c1.21,0,2.35,0,3.48,0,.63,0,1,.27,1,.78a.9.9,0,0,1-1,1.06c-1.3,0-2.59,0-3.89,0-.37,0-.74,0-1.12,0a1.18,1.18,0,0,1-1.15-.6,1.22,1.22,0,0,1,.24-1.31C11.71,17.11,13,15.53,14.2,14l.21-.28c-.08-.14-.19-.07-.29-.08h-2.6a3.05,3.05,0,0,1-.6-.06.85.85,0,0,1-.63-1,.83.83,0,0,1,.62-.63,2.32,2.32,0,0,1,.59-.07h4.29a2.44,2.44,0,0,1,.76.09.88.88,0,0,1,.56,1.22,6.25,6.25,0,0,1-.8,1.24l-3.16,4a4.39,4.39,0,0,0-.29.39Z"/><path class="cls-1" d="M22.16,14.53a1.24,1.24,0,0,1,.72-.55,1,1,0,0,1,1.24.93c0,1.6,0,3.2,0,4.81a1,1,0,0,1-1.79.59c-.14-.17-.19-.2-.39,0a2.43,2.43,0,0,1-2.44.41,3.16,3.16,0,0,1-2.18-2.93A3.33,3.33,0,0,1,19,14.25a2.53,2.53,0,0,1,3.2.28Zm-2.84,2.93a1.78,1.78,0,0,0,.34,1,1.34,1.34,0,0,0,2.11,0,2,2,0,0,0,0-2.22,1.21,1.21,0,0,0-1-.51C19.93,15.64,19.31,16.33,19.32,17.46Zm8.4,0a3.41,3.41,0,1,1,6.82-.34,3.35,3.35,0,0,1-3.1,3.66,3.28,3.28,0,0,1-3.72-3.32Zm2-.19a1.85,1.85,0,0,0,.35,1.13,1.31,1.31,0,0,0,1.84.24,1.67,1.67,0,0,0,.23-.23,2,2,0,0,0,0-2.24,1.22,1.22,0,0,0-.95-.51A1.43,1.43,0,0,0,29.73,17.31ZM27,15.91c0,1.24,0,2.49,0,3.73a1,1,0,0,1-1,1.06,1.43,1.43,0,0,1-.29,0,1,1,0,0,1-.71-1V13.25c0-.37,0-.74,0-1.12a1,1,0,1,1,2,0C27,13.4,27,14.66,27,15.91Z"/><path class="cls-1" d="M19.22,0A19.22,19.22,0,1,0,38.44,19.22,19.24,19.24,0,0,0,19.22,0ZM31.87,31.67a20.63,20.63,0,0,1-14.22.11,2.34,2.34,0,0,0-1.41-.07c-.68.18-1.38.38-2,.59A12.64,12.64,0,0,1,8,32.78H8c-.15-.07-.26-.14-.08-.29a4,4,0,0,1,.34-.22,8.15,8.15,0,0,0,2.76-2.59,1.5,1.5,0,0,0-.24-2.17A15.66,15.66,0,0,1,6.07,13.45a15.91,15.91,0,0,1,4-8.13,16.46,16.46,0,0,1,3.32-2.85,17.41,17.41,0,0,1,5.85-1A17.75,17.75,0,0,1,31.87,31.67Z"/></g></g></svg>