<svg xmlns="http://www.w3.org/2000/svg" viewBox="0 0 38.44 38.44"><defs><style>.cls-1{fill:#821966;}</style></defs><title>Asset 92</title><g id="Layer_2" data-name="Layer 2"><g id="Layer_1-2" data-name="Layer 1"><path class="cls-1" d="M19.22,0A19.22,19.22,0,1,0,38.44,19.22,19.22,19.22,0,0,0,19.22,0ZM30.84,20.15a10.2,10.2,0,0,1-.37,2.14,11.49,11.49,0,0,1-1.2,2.84,10.47,10.47,0,0,1-.68,1c-.15.19-.29.39-.46.57l-.1.12a16.36,16.36,0,0,0-4.48-1.43,29.74,29.74,0,0,0,.61-6.18,29.64,29.64,0,0,0-.61-6.17A16.55,16.55,0,0,0,28,11.62l.08.09.49.62c.1.16.22.33.34.49s.21.33.32.5.31.57.46.85c0,0,0,0,0,.05a11.21,11.21,0,0,1,.72,1.93,11.76,11.76,0,0,1,.37,2.12c0,.32.05.63.05.95S30.87,19.83,30.84,20.15ZM8.33,23.41a10.77,10.77,0,0,1-.54-1.84,11,11,0,0,1-.2-1.42c0-.32,0-.62,0-.93s0-.63,0-.95a11,11,0,0,1,.2-1.4,11.35,11.35,0,0,1,.9-2.65s0,0,0-.05c.15-.28.3-.58.47-.85a8.69,8.69,0,0,1,.57-.87,10.19,10.19,0,0,1,.64-.83,16.69,16.69,0,0,0,4.51,1.43,29.61,29.61,0,0,0-.62,6.17,29.71,29.71,0,0,0,.62,6.18,16.69,16.69,0,0,0-4.51,1.43A10.19,10.19,0,0,1,9.74,26a10,10,0,0,1-.57-.87,7.84,7.84,0,0,1-.72-1.45A1.59,1.59,0,0,1,8.33,23.41Zm6.84-4.19a28.81,28.81,0,0,1,.6-6,22.79,22.79,0,0,0,3.45.24,22.75,22.75,0,0,0,3.44-.24,28.16,28.16,0,0,1,.6,6,28,28,0,0,1-.6,6A24.14,24.14,0,0,0,19.22,25a24.18,24.18,0,0,0-3.45.23A28.64,28.64,0,0,1,15.17,19.22Zm12.23-8.3a16.43,16.43,0,0,1-4.08,1.24,10.82,10.82,0,0,0-2.06-4.43A11.72,11.72,0,0,1,27.4,10.92ZM19,7.56h.45c1.13.21,2.26,1.94,3,4.74a22.55,22.55,0,0,1-3.23.22A22.89,22.89,0,0,1,16,12.3C16.72,9.5,17.87,7.77,19,7.56Zm-1.81.17a11,11,0,0,0-2.07,4.43A16.92,16.92,0,0,1,11,10.92,11.71,11.71,0,0,1,17.18,7.73ZM11,27.53a16.08,16.08,0,0,1,4.09-1.26,10.87,10.87,0,0,0,2.07,4.44A11.69,11.69,0,0,1,11,27.53Zm8.42,3.34a.82.82,0,0,1-.22,0,.9.9,0,0,1-.23,0c-1.12-.21-2.27-1.93-3-4.73a22.88,22.88,0,0,1,3.24-.23,22.53,22.53,0,0,1,3.23.23C21.7,28.94,20.57,30.66,19.44,30.87Zm1.82-.16a10.75,10.75,0,0,0,2.06-4.44,15.63,15.63,0,0,1,4.08,1.26A11.71,11.71,0,0,1,21.26,30.71Z"/><path class="cls-1" d="M17.89,21.41h0a.43.43,0,0,1-.4-.29l-1.26-3.47a.46.46,0,0,1,.28-.58.45.45,0,0,1,.57.27l.87,2.42.92-2.05a.45.45,0,0,1,.42-.27.46.46,0,0,1,.41.29l.76,2,.93-2.39a.45.45,0,0,1,.84.33l-1.35,3.47a.46.46,0,0,1-.42.29h0a.48.48,0,0,1-.42-.29l-.79-2.07-.93,2.09A.45.45,0,0,1,17.89,21.41Z"/><path class="cls-1" d="M26.08,21.41h0a.43.43,0,0,1-.41-.29l-1.25-3.47a.45.45,0,1,1,.84-.31l.88,2.42.92-2.05a.45.45,0,0,1,.42-.27.47.47,0,0,1,.41.29l.76,2,.93-2.39a.45.45,0,1,1,.83.33l-1.34,3.47a.47.47,0,0,1-.42.29h0a.46.46,0,0,1-.42-.29l-.8-2.07-.92,2.09A.48.48,0,0,1,26.08,21.41Z"/><path class="cls-1" d="M9.55,21.41h0a.43.43,0,0,1-.4-.29L7.87,17.64a.45.45,0,1,1,.85-.31l.87,2.42.92-2.05a.44.44,0,0,1,.42-.27.47.47,0,0,1,.41.29l.76,2L13,17.32a.45.45,0,0,1,.58-.25.45.45,0,0,1,.26.58l-1.35,3.47a.46.46,0,0,1-.42.29h0a.47.47,0,0,1-.42-.29l-.79-2.07L10,21.14A.46.46,0,0,1,9.55,21.41Z"/></g></g></svg>