<svg xmlns="http://www.w3.org/2000/svg" viewBox="0 0 175 49.24"><defs><style>.cls-1{fill:#2e3190;}</style></defs><title>Asset 96</title><g id="Layer_2" data-name="Layer 2"><g id="Layer_1-2" data-name="Layer 1"><path class="cls-1" d="M43.37,49.2s-.89-2-2-4.39-2-4.53-2.13-4.67a2.26,2.26,0,0,0-1.16-.89c-.28-.07-.48-.14-.48-.27s.2-.14,2.67-.14S43,38.84,43,39s-.07.13-.42.2a2,2,0,0,0-1.09.55c-.07.07-.07.28-.07.48a23.54,23.54,0,0,0,1.37,3.5c.89,1.92,1.17,2.54,1.3,2.47a35.81,35.81,0,0,0,2.34-5.62c.07-.42.13-.55.07-.69a2.15,2.15,0,0,0-1.24-.69c-.34-.07-.41-.13-.41-.2s.07-.14,2.26-.14,2.27,0,2.27.14-.14.2-.41.27a1.3,1.3,0,0,0-.83.55c-.55.55-1.58,2.54-3.91,7.89-.68,1.44-.82,1.65-.89,1.51ZM6.86,48.93a2.94,2.94,0,0,1-2.74-2.61,20.69,20.69,0,0,1-.28-2.47c-.34-3.16-.48-3.77-1-4.25a.82.82,0,0,0-.61-.28c-.76-.07-.76-.14-.76-.27s0-.21,1-.21c.55,0,1.44-.07,2-.07h1l.07.34c0,.21.07,1.31.14,2.48C5.76,44,6,46,6,46.46a2.77,2.77,0,0,0,1,1.23,3.29,3.29,0,0,0,1.92.48A2.64,2.64,0,0,0,11.39,47a16.87,16.87,0,0,0,.82-4.81c.07-1.37,0-1.78-.34-2.26a1.74,1.74,0,0,0-1.16-.69c-.28,0-.42-.07-.42-.2s.07-.14,2.61-.14,2.61,0,2.61.14-.21.2-.55.2a2.7,2.7,0,0,0-1.1.48,4.9,4.9,0,0,0-1,3,23.85,23.85,0,0,1-.48,3.57A3.25,3.25,0,0,1,10,48.93,11.41,11.41,0,0,1,6.86,48.93ZM77,48.86a7.54,7.54,0,0,1-1.64-.55l-.41-.21V46.53c0-1.58,0-1.58.13-1.58s.21.13.35.68c.48,1.86,1.51,2.82,2.81,2.75a1.7,1.7,0,0,0,1.51-2.13,1.18,1.18,0,0,0-.55-.82,4.68,4.68,0,0,0-1.65-1c-.68-.34-1.37-.76-1.58-.89a2.45,2.45,0,0,1-.75-3.09,3.4,3.4,0,0,1,3.29-1.79,5,5,0,0,1,2,.35c.42.13.42.2.42.48v1.37c-.07,1-.07,1.1-.21,1s-.21-.14-.34-.62a2.65,2.65,0,0,0-1.31-1.92,1.59,1.59,0,0,0-2.12.48,1.39,1.39,0,0,0-.21,1.37c.21.69.62,1,2.13,1.79A5.65,5.65,0,0,1,81,44.33a2.59,2.59,0,0,1,.35,2.88,3.29,3.29,0,0,1-2.27,1.51,5.21,5.21,0,0,1-2.06.14Zm80.91-.14c-.34-.07-.82-.27-1.1-.34l-.41-.21V46.59c0-1.44,0-1.57.14-1.57s.13.13.27.68c.48,2,1.72,3.09,3.09,2.75A1.78,1.78,0,0,0,161,46c-.28-.55-.69-.83-2.06-1.51-2.06-1-2.54-1.58-2.54-2.88a2.51,2.51,0,0,1,1.24-2.27,4.8,4.8,0,0,1,4.32-.21l.34.14-.07.83c-.07,1.71-.13,1.92-.27,1.92s-.14-.07-.21-.35a3.45,3.45,0,0,0-1.23-2.12,1.81,1.81,0,0,0-1.58-.14,1.57,1.57,0,0,0-1,1.51c0,.89.55,1.44,2.06,2.19,1.71.83,2.26,1.24,2.61,2.06a2.91,2.91,0,0,1-.07,2.13,3.1,3.1,0,0,1-2.13,1.58,6.46,6.46,0,0,1-2.54-.14Zm9.4,0c-.27-.07-.82-.27-1.1-.34l-.55-.21V46.59c0-1.57,0-1.57.14-1.57s.14.06.21.34a5.84,5.84,0,0,0,1.16,2.54,2,2,0,0,0,3.16-.34,1.71,1.71,0,0,0-.48-2.13,14.43,14.43,0,0,0-1.65-1c-2-1-2.47-1.51-2.54-2.75a2.49,2.49,0,0,1,1.24-2.4,4.93,4.93,0,0,1,4.39-.21l.34.14-.06,1c-.07,1.51-.07,1.72-.28,1.72s-.2-.21-.34-.69a3,3,0,0,0-1.17-1.78,1.41,1.41,0,0,0-1-.21,1.28,1.28,0,0,0-.82.21,1.63,1.63,0,0,0-.69,1.85c.21.62.69,1,2.2,1.78,1.71.9,2.06,1.17,2.47,1.93a1.68,1.68,0,0,1,.2,1.09,2,2,0,0,1-.2,1.17,2.93,2.93,0,0,1-2.06,1.58,8.2,8.2,0,0,1-2.61-.14ZM72,48.72c-.48,0-1.09-.14-1.23-.14a6.28,6.28,0,0,1-3-2.81,24.47,24.47,0,0,1-1.23-2.19l.41-.14a1.82,1.82,0,0,0,1.51-2,1.72,1.72,0,0,0-.62-1.51,3.39,3.39,0,0,0-2-.76h-.34V43c0,4.18.06,4.25.54,4.8a2.59,2.59,0,0,0,1.38.55c.34.07.41.07.41.21s-.14.13-3,.13-2.95,0-2.95-.13.13-.14.55-.28c.68-.14,1-.34,1.23-.75s.14-.35.14-3.71V40.42l-.21-.34c-.2-.42-.48-.62-1.23-.76-.48-.14-.55-.14-.55-.27s.07-.14,2.88-.14c3.23,0,3.43,0,4.46.48a2,2,0,0,1,1.31,1.92,2.37,2.37,0,0,1-1.58,2.2l-.48.2.2.35a12.45,12.45,0,0,0,2.95,3.56,4.09,4.09,0,0,0,1.44.76c.21.07.28.14.28.27s-.07.21-.21.14a8.1,8.1,0,0,1-1.1-.07Zm70.27,0a6.26,6.26,0,0,1-1.3-.2c-1.23-.35-2.4-1.58-3.77-4.05l-.55-1,.41-.14c1.1-.34,1.58-.82,1.65-1.72.13-1.37-.76-2.26-2.54-2.47l-.41-.07V42c0,1.58,0,3.36.06,4,.07,1.64.35,2,1.58,2.19.55.07.62.14.62.28s-.14.13-2.88.13-2.88,0-2.88-.13.13-.14.48-.28c1.16-.27,1.3-.55,1.37-2.47a26.74,26.74,0,0,0,0-3.36c-.07-1.92-.07-2.06-.28-2.4s-.55-.62-1.3-.76c-.41-.07-.41-.13-.41-.27V38.7H135c3.16.07,3.5.07,4.39.55a2.36,2.36,0,0,1,1.1,1,2.8,2.8,0,0,1,0,1.85,3.25,3.25,0,0,1-1.3,1.24c-.28.14-.48.27-.48.34a10.17,10.17,0,0,0,1.37,2.06,9.1,9.1,0,0,0,2.13,2,3.31,3.31,0,0,0,.89.41c.41.14.48.21.48.35,0,.34.14.34-1.31.2Zm-125.57-.2c0-.14.06-.14.41-.21a1.59,1.59,0,0,0,1.37-1.1,25.41,25.41,0,0,0,.27-5.56l-.06-1.09-.49-.48a3.11,3.11,0,0,0-1.5-.9c-.14-.07-.28-.13-.28-.2s.14-.14,1.65-.14h1.64l.55.69c.69.82,1.31,1.51,2.82,3,.61.68,1.58,1.64,2.12,2.19l1,1c.07,0,.07-3.64,0-4.53a2.22,2.22,0,0,0-.48-1.51,2.82,2.82,0,0,0-1.51-.55c-.41-.07-.55-.07-.55-.2s.14-.14,2.61-.14,2.61,0,2.61.14-.07.13-.41.2a1.7,1.7,0,0,0-1,.62c-.34.69-.48,3.71-.41,6.86l.07,1.92h-.28c-.2,0-.34-.06-1-.82-.41-.48-1.58-1.65-2.54-2.68s-2.19-2.26-2.67-2.74a4.72,4.72,0,0,0-1-1c-.07,0-.07.34-.07,2.33.07,2.54.14,3.23.34,3.64s.69.75,1.79.89c.48.07.61.14.61.21s-.13.13-2.74.13-2.81.07-2.81-.06Zm14.13,0c0-.07.07-.14.14-.21,1.37-.27,1.65-.48,1.78-1.58a41.47,41.47,0,0,0,0-5.9c-.13-.62-.2-.89-.41-1.1a2.37,2.37,0,0,0-1.23-.48c-.28-.07-.35-.07-.35-.2s.07-.14,2.88-.14,2.89,0,2.89.14-.14.13-.55.27a1.91,1.91,0,0,0-1.31.89c-.13.35-.2.35-.13,3.43,0,2.75,0,3.16.13,3.57.21.69.69,1,1.65,1.17.21.07.28.07.28.2s-.07.14-2.89.14-2.88-.07-2.88-.2Zm19.83,0c0-.14.07-.14.35-.21a3,3,0,0,0,1.23-.48c.34-.41.48-1.37.48-4.25,0-3.23-.14-3.71-.89-4.12a3.45,3.45,0,0,0-.75-.28c-.28-.07-.42-.07-.42-.2s.14-.14,4.26-.14h4.25l-.07.14c0,.07-.06.68-.06,1.3v1.17h-.21a.31.31,0,0,1-.21-.07A2.5,2.5,0,0,0,57.92,40c-.55-.55-1-.69-2.4-.69h-1.1v3.84h.82c1,0,1.79-.07,1.92-.27a1.72,1.72,0,0,0,.28-.62c.13-.41.2-.55.34-.55s.14,0,.14.89c0,.48,0,1.38-.07,2-.07,1-.07,1.1-.21,1.1s-.13-.07-.2-.34a1.28,1.28,0,0,0-.69-1.1c-.27-.14-.48-.14-1.37-.14h-1.1V45.7c0,1.86.07,2.06.69,2.34a2.29,2.29,0,0,0,1.09.2A1.79,1.79,0,0,0,57.3,48a4,4,0,0,0,1.92-2.34c.14-.34.21-.48.34-.48a.24.24,0,0,1,.14.07,23.42,23.42,0,0,1-.68,3l-.14.41H54.69c-4,0-4,0-4-.13Zm33.15,0c0-.07.07-.14.2-.21,1-.21,1.38-.41,1.58-.89a16.17,16.17,0,0,0,.28-4.26c-.07-2.47-.07-2.95-.42-3.43a2.33,2.33,0,0,0-1.3-.55c-.2-.07-.27-.07-.27-.2s.13-.14,2.88-.14,2.88,0,2.88.14-.07.13-.41.2a1.86,1.86,0,0,0-1.51,1.17,48.36,48.36,0,0,0,0,6.38c.14,1,.48,1.24,1.44,1.51.48.14.62.14.62.28s-.14.13-2.88.13c-3.09,0-3.09,0-3.09-.13Zm9.4,0c0-.14.07-.14.27-.21a2.59,2.59,0,0,0,1.38-.55,1.71,1.71,0,0,0,.34-.69c.14-.41.14-.89.14-4V39.6h-1c-1.24,0-1.72.13-2,.54a4.23,4.23,0,0,0-.55,1.58c0,.28-.07.35-.21.35s-.14-.07-.2-.07a22.73,22.73,0,0,1,.13-2.75l.07-.27h9.2l.06,1.37c.07.75.14,1.44.14,1.51s0,.21-.14.14-.2-.07-.34-.55c-.27-1-.62-1.44-1.23-1.65a14.94,14.94,0,0,0-2-.14H97.1V43c0,4.66.07,4.87,1.17,5.21a2.36,2.36,0,0,0,.68.14c.28.07.35.07.35.2s-.07.14-3,.14-3.09-.07-3.09-.2Zm11.8,0c0-.14.07-.14.28-.21,1-.14,1.51-.48,1.71-1a3.87,3.87,0,0,0,.14-1.23l.07-1-.34-.61a34.52,34.52,0,0,0-3.09-4.67,3.7,3.7,0,0,0-1.24-.62c-.27-.07-.34-.07-.34-.2s.07-.14,2.54-.14,2.54,0,2.54.14-.07.13-.35.2a2.12,2.12,0,0,0-.55.28c-.41.34-.27.75,1.17,2.95,1.1,1.65.89,1.58,1.65.2a9.55,9.55,0,0,0,1-2.6c0-.41-.14-.55-.62-.76-.21-.07-.34-.14-.34-.27s.07-.14,2-.14,2,0,2,.14-.14.13-.48.27a2.64,2.64,0,0,0-1.51,1.1,21.58,21.58,0,0,0-1.86,3.36l-.48,1v1.1c0,1.24.14,1.65.48,2a3.78,3.78,0,0,0,1.31.55c.27.07.34.07.34.21s-.07.13-3,.13-3,0-3-.13Zm16.06,0c0-.14.07-.14.34-.21a2.31,2.31,0,0,0,1.24-.55c.34-.34.41-.75.41-3.64.07-4.18-.07-4.52-1.51-4.8-.41-.07-.48-.14-.48-.27s.07-.14.55-.21c.27,0,1.58-.07,2.88,0a11.15,11.15,0,0,1,3.09.21c1.37.34,2.13.82,2.47,1.57a2.89,2.89,0,0,1-.28,2.61A4.14,4.14,0,0,1,127,44.6c-.89.14-1,.14-1-.06s.07-.21.48-.28c1.37-.27,1.79-.75,1.86-2.06a4.52,4.52,0,0,0-.07-1.1A2.71,2.71,0,0,0,127,39.8a5,5,0,0,0-1.92-.48h-.34v3.84a25.34,25.34,0,0,0,.13,4.26c.21.62.69.89,1.72,1,.27.07.34.07.34.2s-.14.14-3,.14-3-.14-3-.27Zm23.61,0c0-.14.13-.14.61-.28.83-.2,1.1-.41,1.31-1.1a15.12,15.12,0,0,0,.13-3.5c0-3.22,0-3.36-.41-3.84a1.57,1.57,0,0,0-1.16-.55c-.35-.07-.48-.14-.48-.2s.2-.14,4.18-.14H153L153,40.14c0,.69-.07,1.31-.07,1.38s-.07.07-.21.07-.2-.21-.27-.55c-.41-1.31-1.17-1.65-3.22-1.65h-.83l-.07.41c0,.21-.07,1.1-.07,1.92v1.51l1.17-.07a5.45,5.45,0,0,0,1.44-.13,1.81,1.81,0,0,0,.55-.9c.07-.2.07-.27.21-.27h.2v1.37c0,1.85-.07,2.47-.2,2.47s-.14-.07-.21-.41a1.5,1.5,0,0,0-.55-1c-.2-.14-.41-.14-1.37-.14h-1.17v1.31a5.05,5.05,0,0,0,.28,2.33c.41.62,2.12.69,3.09.14a4.33,4.33,0,0,0,1.64-2.27c.07-.27.14-.41.28-.41a.14.14,0,0,1,.13.14,20.15,20.15,0,0,1-.61,2.81l-.14.55h-4.19c-4-.07-4.11-.07-4.11-.2ZM12.83,27.65a14.29,14.29,0,0,1-9.06-4,11.57,11.57,0,0,1-2.33-3.3A13.88,13.88,0,0,1,0,13.72,16.81,16.81,0,0,1,.41,9.88,13,13,0,0,1,10.22.48,17.57,17.57,0,0,1,14.55,0c6.79,0,11.87,3.36,13.72,9a15.63,15.63,0,0,1,.07,9.54,12.74,12.74,0,0,1-6.86,7.62,16.19,16.19,0,0,1-5.15,1.44,20.46,20.46,0,0,1-3.5.06Zm3.57-1.3c3.5-.55,5.77-2.68,6.86-6.59a22.34,22.34,0,0,0,.48-8.64,12.08,12.08,0,0,0-3.15-7.07,9.06,9.06,0,0,0-4.4-2.61,6.06,6.06,0,0,0-2.05-.2A7.77,7.77,0,0,0,8,3.71c-2.13,2.19-3.36,6.45-3,11,.27,4.11,1.23,6.65,3.43,8.92a8.86,8.86,0,0,0,8,2.74Zm82.42,1.3a8.9,8.9,0,0,1-.9-.13,15.91,15.91,0,0,1-3.15-.76A13.07,13.07,0,0,1,86.6,18.6a15,15,0,0,1-.75-4.81,14.18,14.18,0,0,1,.68-4.66c1.65-4.94,6-8.31,11.81-9a40.24,40.24,0,0,1,4.11,0c5,.55,8.92,3.09,10.91,7.07a15.08,15.08,0,0,1,1.17,10A13.22,13.22,0,0,1,112.47,22a19.43,19.43,0,0,1-2.61,2.74,15.46,15.46,0,0,1-9.67,3,12.26,12.26,0,0,0-1.37-.07Zm3.29-1.23c4.32-.48,6.86-3.43,7.69-9.06a30.48,30.48,0,0,0,0-6,14,14,0,0,0-2-5.62c-2.27-3.37-5.36-4.88-9-4.33a7.56,7.56,0,0,0-4.4,2.06c-1.85,1.72-3,4.46-3.29,8a25.76,25.76,0,0,0,.14,5.22,13.89,13.89,0,0,0,1.23,4.11,10.85,10.85,0,0,0,1.92,2.82A8.63,8.63,0,0,0,102.11,26.42Zm-71.37,0c0-.48.07-.48.48-.48.14,0,.55-.07,1-.14,2.75-.48,4.19-1.51,6.32-4.53,1.44-2.06,4.59-6.52,4.59-6.58a1.15,1.15,0,0,0-.2-.49c-.14-.2-1.17-1.92-2.33-3.77s-2.27-3.71-2.54-4a11.6,11.6,0,0,0-4.67-4,9.14,9.14,0,0,0-2.06-.48c-.48,0-.55-.07-.55-.48V1h8.51l.69,1.1c.41.62,1.85,2.88,3.22,5S45.7,11,45.77,11A30.49,30.49,0,0,0,48.1,7.55c1.51-2.47,2-3.91,1.58-4.6a2.62,2.62,0,0,0-2.12-1l-.49-.07V1H57.92v.82h-.28a9.35,9.35,0,0,0-3.57,1,10.79,10.79,0,0,0-2.33,1.79,32.24,32.24,0,0,0-2.81,4c-2.27,3.43-2.34,3.5-2.27,3.56s5.84,9.06,6.25,9.68c1.58,2.27,3.09,3.43,4.94,3.91a7.48,7.48,0,0,0,2.19.14,14.59,14.59,0,0,0,3.85-.34,4.28,4.28,0,0,0,3.36-3l.21-.62V13.79c0-5.76,0-8.44-.07-8.92-.28-1.92-1-2.61-3.09-3a6.88,6.88,0,0,1-1-.2C63,1.58,63,1.58,63,1.24V.89H82.9L83,3.57c.07,1.44.14,2.67.14,2.74s-.14.07-.34.07h-.35l-.13-.55c-.48-2.12-1.92-3.22-4.6-3.63a33,33,0,0,0-3.5-.14L71.57,2V12.56l2.89-.07a28.89,28.89,0,0,0,4.46-.28c.13-.06.13.14.13,3v3.09h-.27c-.34,0-.41-.07-.41-.55a4.81,4.81,0,0,0-.83-2.6c-.75-.76-1.78-1-4.39-.9l-1.51.07v4.39c0,4.67.07,4.94.41,5.7a2.84,2.84,0,0,0,1.24,1.1,20,20,0,0,0,2.95.62c.27.06.27.06.27.41v.34H51l-3.5-5.49c-1.92-3-3.57-5.49-3.57-5.49a12.52,12.52,0,0,0-1.72,2.2,22.28,22.28,0,0,0-3.15,5.49c-.21,1.09.48,1.85,2.33,2.47l.55.2V27H30.67v-.55Zm90.45-3.09c0-1.92.07-5.76.13-8.64.07-5.91.07-10.23-.06-10.85-.28-1-.69-1.58-1.38-1.78a4.13,4.13,0,0,0-1.09-.14L118,1.85l.07-.34a.77.77,0,0,1,.07-.34c.07-.07,5.08-.21,7.55-.21a27.72,27.72,0,0,1,6,.28c3.56.54,5.76,1.92,6.52,4.11a6.7,6.7,0,0,1,.13,3.09c-.61,2.4-2.67,4.39-5.69,5.35L132,14l.21.27c.13.14.75.9,1.44,1.65,5.62,6.38,9.26,9.47,11.94,10a6.57,6.57,0,0,0,2.26-.14,3.48,3.48,0,0,0,3-2.81c.28-1,.28-1.78.28-9.74,0-7.21-.07-7.9-.14-8.45a3.26,3.26,0,0,0-1.72-2.33,9.42,9.42,0,0,0-2.4-.68l-.41-.07V1L148,.89c3.64-.14,10.15-.14,11.53-.07,5.9.42,9.88,1.79,12.49,4.46,2.12,2.2,3.08,5.08,3,8.72a9.66,9.66,0,0,1-.55,3.22c-1.44,4.33-5.77,7.9-10.84,9-1.51.35-1.79.35-11.4.35-8.5,0-9.33,0-10.08-.14-1.86-.27-3.43-1.1-6-2.81A25.85,25.85,0,0,1,131,18.73c-.82-1-3.71-4.8-3.77-5s0-.13.27-.13a6.51,6.51,0,0,0,2.33-.76A8.59,8.59,0,0,0,133.4,9.4a4.33,4.33,0,0,0,.41-2.26,5.31,5.31,0,0,0-2.05-3.64,8.66,8.66,0,0,0-5.08-1.65l-.9-.07-.06,2.47c-.14,5.56-.14,17.64-.07,18.33.27,2.06,1,2.6,3.77,3,1.37.2,1.24.13,1.24.61v.42h-9.34l-.13-3.3Zm40.21,2.13c4.19-.69,7.14-3.64,8.1-8.24a17.46,17.46,0,0,0,.13-5,11.18,11.18,0,0,0-1.78-4.94,11.87,11.87,0,0,0-8.58-5,18.58,18.58,0,0,0-3.84-.06l-.41.06v10.3c0,9.26.07,10.36.14,10.7a2.56,2.56,0,0,0,2,2,9.72,9.72,0,0,0,4.25.21Z"/></g></g></svg>