<svg xmlns="http://www.w3.org/2000/svg" viewBox="0 0 76.33 118.9"><defs><style>.cls-1{fill:#00994e;}.cls-2{fill:#fff350;}</style></defs><title>Asset 51</title><g id="Layer_2" data-name="Layer 2"><g id="Layer_1-2" data-name="Layer 1"><path class="cls-1" d="M23.49,101.11S6.7,50,46.28,0L68.77,17.52S54.7,64.31,74.45,101.11Z"/><path class="cls-1" d="M18.13,101.11S-1.39,68.4,16.45,4.76L34.7,14.39S9.76,56.51,22.79,101.11Z"/><path class="cls-1" d="M12.17,17.77,3,12.33c-.73,3.46-11.23,58,11.61,87.34h2.67s-17.48-30.6-5.15-81.9"/><path class="cls-2" d="M51.17,85.85c-2.94-.08-6.26.15-7.19,2.55-1.39-2.47-4.57-2.7-7.35-2.63-1,.08-2,.08-2.78.08L30.6,94.2c1.7.46,3.87-.54,6-1.24,2.63-.93,5.26-1.47,7.2,1.31.15-.15.61-.38.69-.53,2.16-2.17,4.41-1.78,6.65-.93,2.09.77,4,1.85,5.87,1.39l-2.93-8.27c-.85,0-1.86,0-2.94-.08M45.6,94.27c-1.62,2.33-2,2.41-3.32.08-.55-.93-2.55-1.46-5.65-.38a11.46,11.46,0,0,0-1.62.62h6.18c.62,0,1,2.16,2.79,2.23,2-.61,2.08-2.23,2.55-2.23h4.64l1.63-.08c-.62-.24-1.17-.47-1.63-.62-2.55-.85-4.8-.77-5.57.38m5.57-11.59a12.46,12.46,0,0,0,6.34-10.36,11.78,11.78,0,0,0-6.34-11.13,13.89,13.89,0,0,0-6.26-1.55v25c1.15.15,3.71-.47,6.26-2M48.46,63.81a14.88,14.88,0,0,1,2.71,1.55,7.18,7.18,0,0,1,2.7,6.8,9.59,9.59,0,0,1-2.7,6.19,9.38,9.38,0,0,1-2.71,1.85ZM35.16,82a6.79,6.79,0,0,0,1.47,1A10.68,10.68,0,0,0,43,84.77V72.09H39.33v8.19a9.06,9.06,0,0,1-2.7-1.93,9.2,9.2,0,0,1,0-12.53,8,8,0,0,1,6.27-2.55l-.08-3.55a12.85,12.85,0,0,0-6.19,1.54A11.43,11.43,0,0,0,34,63.12a12.72,12.72,0,0,0-3.63,9.35A12.46,12.46,0,0,0,35.16,82"/><path class="cls-1" d="M21.61,108.24H18v-1.1a2.17,2.17,0,0,0-.14-1,.5.5,0,0,0-.46-.21.56.56,0,0,0-.52.28,1.64,1.64,0,0,0-.18.86,2.36,2.36,0,0,0,.2,1.12,2.89,2.89,0,0,0,1.09.91,11.14,11.14,0,0,1,3.25,2.51,5.83,5.83,0,0,1,.66,3.16,5.51,5.51,0,0,1-.37,2.34,2.87,2.87,0,0,1-1.43,1.26,5.69,5.69,0,0,1-2.48.51,5.53,5.53,0,0,1-2.64-.58,2.93,2.93,0,0,1-1.44-1.5,7.79,7.79,0,0,1-.34-2.58v-1h3.59v1.81a2.37,2.37,0,0,0,.15,1.07.59.59,0,0,0,.54.24.64.64,0,0,0,.57-.3,1.77,1.77,0,0,0,.19-.9,2.8,2.8,0,0,0-.36-1.72,12,12,0,0,0-1.81-1.34,17.27,17.27,0,0,1-1.9-1.39,3.12,3.12,0,0,1-.78-1.19,5.32,5.32,0,0,1-.31-1.94,5.42,5.42,0,0,1,.44-2.5A3,3,0,0,1,15,103.88a5.52,5.52,0,0,1,2.34-.44,6.21,6.21,0,0,1,2.57.48,2.7,2.7,0,0,1,1.4,1.23,6.43,6.43,0,0,1,.34,2.5Z"/><path class="cls-1" d="M23.14,103.75h6.44v3H27v2.81h2.42v2.83H27v3.26h2.84v3h-6.7Z"/><path class="cls-1" d="M31,103.75h2.88a18.27,18.27,0,0,1,3.79.25,3,3,0,0,1,1.5.85,2.7,2.7,0,0,1,.64,1.3,20.64,20.64,0,0,1,.13,2.83v5.2a12.37,12.37,0,0,1-.19,2.67,2.1,2.1,0,0,1-.66,1.06,2.72,2.72,0,0,1-1.15.53,10.58,10.58,0,0,1-2.08.15H31Zm3.86,2.54v9.76c.55,0,.9-.11,1-.33a4.83,4.83,0,0,0,.2-1.82v-5.77a7.8,7.8,0,0,0-.07-1.29.62.62,0,0,0-.29-.42A1.88,1.88,0,0,0,34.81,106.29Z"/><path class="cls-1" d="M45.19,103.75v14.84H41.33V103.75Z"/><path class="cls-1" d="M46.73,103.75h2.89a18.09,18.09,0,0,1,3.78.25,3,3,0,0,1,1.5.85,2.63,2.63,0,0,1,.65,1.3,21.2,21.2,0,0,1,.12,2.83v5.2a12.59,12.59,0,0,1-.18,2.67,2.1,2.1,0,0,1-.66,1.06,2.76,2.76,0,0,1-1.16.53,10.4,10.4,0,0,1-2.07.15H46.73Zm3.86,2.54v9.76c.56,0,.9-.11,1-.33a4.91,4.91,0,0,0,.19-1.82v-5.77a8.26,8.26,0,0,0-.06-1.29.62.62,0,0,0-.29-.42A1.93,1.93,0,0,0,50.59,106.29Z"/><path class="cls-1" d="M66.13,110.21H62.27v-2.58a4.56,4.56,0,0,0-.13-1.4.52.52,0,0,0-.54-.28.57.57,0,0,0-.61.34,5.28,5.28,0,0,0-.13,1.46v6.9a5,5,0,0,0,.13,1.41.56.56,0,0,0,.58.33.54.54,0,0,0,.56-.33,5.25,5.25,0,0,0,.14-1.55v-1.87h3.86v.58a11.29,11.29,0,0,1-.33,3.27,3.41,3.41,0,0,1-1.44,1.69,5,5,0,0,1-2.75.72,5.65,5.65,0,0,1-2.79-.61,3,3,0,0,1-1.46-1.7,11.15,11.15,0,0,1-.36-3.27V109a19.78,19.78,0,0,1,.11-2.4,3.4,3.4,0,0,1,.66-1.55,3.75,3.75,0,0,1,1.51-1.17,5.56,5.56,0,0,1,2.22-.42,5.45,5.45,0,0,1,2.82.65,3.2,3.2,0,0,1,1.46,1.65,9.92,9.92,0,0,1,.35,3.06Z"/><path class="cls-1" d="M76.33,112.44c0,1.49,0,2.55-.11,3.17a3.55,3.55,0,0,1-2.15,2.88,5.57,5.57,0,0,1-2.2.41,5.64,5.64,0,0,1-2.15-.39,3.49,3.49,0,0,1-1.52-1.17,3.42,3.42,0,0,1-.69-1.69c-.07-.61-.11-1.68-.11-3.21V109.9c0-1.49,0-2.55.11-3.17a3.55,3.55,0,0,1,2.15-2.88,5.41,5.41,0,0,1,2.21-.41,5.83,5.83,0,0,1,2.14.38,3.59,3.59,0,0,1,2.21,2.87c.07.61.11,1.68.11,3.21Zm-3.86-4.88a4.87,4.87,0,0,0-.11-1.32.46.46,0,0,0-.48-.29.54.54,0,0,0-.46.23,3.29,3.29,0,0,0-.16,1.38v6.93a6.24,6.24,0,0,0,.11,1.6.46.46,0,0,0,.49.3.47.47,0,0,0,.5-.35,7.51,7.51,0,0,0,.11-1.66Z"/></g></g></svg>