<svg xmlns="http://www.w3.org/2000/svg" viewBox="0 0 212.16 212.16"><defs><style>.cls-1{isolation:isolate;}.cls-2{fill:#ef5ba1;}.cls-3{opacity:0.2;}.cls-10,.cls-12,.cls-14,.cls-16,.cls-18,.cls-20,.cls-22,.cls-24,.cls-26,.cls-28,.cls-30,.cls-31,.cls-4,.cls-6,.cls-8{fill:#87868a;}.cls-4{opacity:0.1;}.cls-5{opacity:0.26;}.cls-6{opacity:0.16;}.cls-7{opacity:0.31;}.cls-8{opacity:0.23;}.cls-9{opacity:0.37;}.cls-10{opacity:0.29;}.cls-11{opacity:0.43;}.cls-12{opacity:0.36;}.cls-13{opacity:0.49;}.cls-14{opacity:0.42;}.cls-15{opacity:0.54;}.cls-16{opacity:0.49;}.cls-17{opacity:0.6;}.cls-18{opacity:0.55;}.cls-19{opacity:0.66;}.cls-20{opacity:0.61;}.cls-21{opacity:0.71;}.cls-22{opacity:0.68;}.cls-23{opacity:0.77;}.cls-24{opacity:0.74;}.cls-25{opacity:0.83;}.cls-26{opacity:0.81;}.cls-27{opacity:0.89;}.cls-28{opacity:0.87;}.cls-29{opacity:0.94;}.cls-30{opacity:0.94;}.cls-32{fill:#821966;}.cls-33{fill:#cdced3;mix-blend-mode:multiply;}.cls-34{fill:#fff;}</style></defs><title>Asset 54</title><g class="cls-1"><g id="Layer_2" data-name="Layer 2"><g id="Layer_1-2" data-name="Layer 1"><circle class="cls-2" cx="106.08" cy="106.08" r="106.08"/><g class="cls-3"><circle class="cls-4" cx="116.1" cy="115.42" r="67.98"/></g><g class="cls-5"><circle class="cls-6" cx="115.42" cy="114.68" r="67.98"/></g><g class="cls-7"><circle class="cls-8" cx="114.73" cy="113.94" r="67.98"/></g><g class="cls-9"><circle class="cls-10" cx="114.05" cy="113.19" r="67.98"/></g><g class="cls-11"><circle class="cls-12" cx="113.37" cy="112.45" r="67.98"/></g><g class="cls-13"><circle class="cls-14" cx="112.68" cy="111.71" r="67.98"/></g><g class="cls-15"><circle class="cls-16" cx="112" cy="110.96" r="67.98"/></g><g class="cls-17"><circle class="cls-18" cx="111.32" cy="110.22" r="67.98"/></g><g class="cls-19"><circle class="cls-20" cx="110.63" cy="109.48" r="67.98"/></g><g class="cls-21"><circle class="cls-22" cx="109.95" cy="108.73" r="67.98"/></g><g class="cls-23"><circle class="cls-24" cx="109.27" cy="107.99" r="67.98"/></g><g class="cls-25"><circle class="cls-26" cx="108.58" cy="107.25" r="67.98"/></g><g class="cls-27"><circle class="cls-28" cx="107.9" cy="106.51" r="67.98"/></g><g class="cls-29"><circle class="cls-30" cx="107.22" cy="105.76" r="67.98"/></g><circle class="cls-31" cx="106.53" cy="105.02" r="67.98"/><circle class="cls-32" cx="106.06" cy="104.74" r="67.98"/><path class="cls-33" d="M106.06,36.76c-.32,0-.63,0-1,0v135.9c.32,0,.63,0,1,0a68,68,0,0,0,0-136Z"/><path class="cls-34" d="M146.58,95.48a24,24,0,0,0-6.85-14.14h0a19.44,19.44,0,0,0-28.12,0l-5.55,5.74-5.55-5.74a19.44,19.44,0,0,0-28.12,0h0a24,24,0,0,0-6.85,14.14c-1.54,13,5.35,30.16,40.51,49.73h0C141.23,125.64,148.12,108.5,146.58,95.48Z"/></g></g></g></svg>