<svg xmlns="http://www.w3.org/2000/svg" viewBox="0 0 207 207"><defs><style>.cls-1{fill:#fff;stroke:#821966;stroke-miterlimit:10;stroke-width:2px;}.cls-2{fill:#821966;}</style></defs><title>Asset 64</title><g id="Layer_2" data-name="Layer 2"><g id="Layer_1-2" data-name="Layer 1"><circle class="cls-1" cx="103.5" cy="103.5" r="102.5"/><path class="cls-2" d="M53.57,144.79a2.09,2.09,0,1,1-2.45-.57A1.81,1.81,0,0,1,53.57,144.79Z"/><rect class="cls-2" x="52.89" y="134.94" width="0.76" height="10.54"/><path class="cls-2" d="M61.92,142.85a2.09,2.09,0,1,1-2.45-.57A1.82,1.82,0,0,1,61.92,142.85Z"/><rect class="cls-2" x="61.25" y="132.71" width="0.76" height="10.54"/><polygon class="cls-2" points="52.88 136.33 62.02 134.15 62.02 131.86 52.88 133.95 52.88 136.33"/><polygon class="cls-2" points="53.25 137.51 53.08 136.76 61.55 134.8 61.72 135.54 53.25 137.51"/><path class="cls-2" d="M134.9,118.35a1.21,1.21,0,0,1-.82,1.47,1.06,1.06,0,1,1,.82-1.47Z"/><rect class="cls-2" x="134.44" y="111.75" width="0.51" height="7.06"/><path class="cls-2" d="M140.49,117.05a1.21,1.21,0,0,1-.82,1.47,1.05,1.05,0,1,1,.82-1.47Z"/><rect class="cls-2" x="140.04" y="110.25" width="0.51" height="7.06"/><polygon class="cls-2" points="134.44 112.68 140.55 111.22 140.55 109.69 134.44 111.09 134.44 112.68"/><path class="cls-2" d="M164,109.46a.79.79,0,0,1-1.38.61.79.79,0,0,1,1.38-.61Z"/><rect class="cls-2" x="163.72" y="105.68" width="0.27" height="3.94"/><path class="cls-2" d="M167.08,108.62a.69.69,0,0,1-.46.82.59.59,0,1,1-.46-1A.69.69,0,0,1,167.08,108.62Z"/><rect class="cls-2" x="166.84" y="104.85" width="0.27" height="3.94"/><path class="cls-2" d="M169.9,107.7c.13.28-.07.65-.46.82a.68.68,0,0,1-.91-.21.67.67,0,0,1,.46-.82A.66.66,0,0,1,169.9,107.7Z"/><rect class="cls-2" x="169.66" y="103.94" width="0.27" height="3.94"/><polygon class="cls-2" points="163.72 106.3 169.95 104.71 169.95 103.74 163.72 105.47 163.72 106.3"/><path class="cls-2" d="M24.4,106.38c.32,1.66-1.2,3.36-3.42,3.8s-4.28-.55-4.61-2.21,1.21-3.36,3.42-3.8S24.07,104.72,24.4,106.38Z"/><rect class="cls-2" x="15.48" y="96.42" width="21.4" height="1.1" transform="translate(-74.16 101.26) rotate(-77.34)"/><path class="cls-2" d="M86.44,120.29a2.22,2.22,0,0,1,1.45-2.71c1.23-.56,2.58-.28,3,.64a2.22,2.22,0,0,1-1.46,2.7C88.21,121.49,86.87,121.21,86.44,120.29Z"/><rect class="cls-2" x="86.43" y="119.58" width="0.66" height="12.85" transform="translate(-2.03 1.42) rotate(-0.93)"/><path class="cls-2" d="M77.45,142.29a2.27,2.27,0,1,1-2.72,0A2,2,0,0,1,77.45,142.29Z"/><path class="cls-2" d="M77.39,143.39a.29.29,0,0,1-.28-.24L74.74,132a.29.29,0,0,1,.23-.34.28.28,0,0,1,.35.22L77.68,143a.3.3,0,0,1-.23.35Z"/><path class="cls-2" d="M79.61,136.09h0a.29.29,0,0,1-.25-.34c.19-1.24-1-1.79-2.3-2.25l-.24-.09c-1.36-.51-1.75-.88-2-1.44a.3.3,0,0,1,.13-.39.29.29,0,0,1,.4.13c.18.36.42.67,1.7,1.15l.24.09c1,.37,3,1.07,2.68,2.89A.29.29,0,0,1,79.61,136.09Z"/><path class="cls-2" d="M80.17,138.75h0a.31.31,0,0,1-.25-.34c.19-1.24-1-1.79-2.29-2.25l-.25-.09c-1.35-.51-1.74-.89-2-1.44a.29.29,0,0,1,.13-.4.3.3,0,0,1,.39.13c.18.36.42.68,1.71,1.16l.24.09c1,.37,2.95,1.07,2.67,2.89A.29.29,0,0,1,80.17,138.75Z"/><path class="cls-2" d="M50.52,117.58c.21,1.1-.81,2.22-2.28,2.5s-2.84-.39-3.05-1.49.82-2.23,2.29-2.5S50.32,116.48,50.52,117.58Z"/><path class="cls-2" d="M50.18,118.47H50.1a.37.37,0,0,1-.28-.44l4-16.92a.36.36,0,0,1,.44-.27.35.35,0,0,1,.27.44l-4,16.92A.36.36,0,0,1,50.18,118.47Z"/><path class="cls-2" d="M57.24,108.45a.36.36,0,0,1-.2-.06.37.37,0,0,1-.1-.51c.87-1.3-.22-2.57-1.4-3.75l-.23-.23c-1.26-1.29-1.5-1.92-1.52-2.7a.35.35,0,0,1,.35-.37h0a.37.37,0,0,1,.37.35c0,.5.12,1,1.31,2.21l.22.22c1,1,2.77,2.77,1.5,4.68A.38.38,0,0,1,57.24,108.45Z"/><path class="cls-2" d="M56,114.16a.36.36,0,0,1-.2-.06.37.37,0,0,1-.1-.51c.87-1.3-.21-2.57-1.4-3.75l-.23-.23c-1.25-1.29-1.49-1.92-1.52-2.7a.35.35,0,0,1,.36-.37.32.32,0,0,1,.37.35c0,.5.12,1,1.31,2.21l.23.22c1,1,2.76,2.77,1.49,4.68A.38.38,0,0,1,56,114.16Z"/><path class="cls-2" d="M55.29,116.94a.42.42,0,0,1-.21-.06.37.37,0,0,1-.1-.51c.87-1.3-.21-2.57-1.4-3.75l-.23-.23c-1.25-1.29-1.49-1.92-1.52-2.69a.38.38,0,0,1,.36-.38.34.34,0,0,1,.37.35c0,.51.13,1,1.31,2.21l.22.22c1,1,2.78,2.77,1.5,4.68A.35.35,0,0,1,55.29,116.94Z"/><path class="cls-2" d="M56.63,111.22a.35.35,0,0,1-.21-.07.37.37,0,0,1-.1-.5c.87-1.3-.21-2.57-1.4-3.76l-.23-.23c-1.25-1.29-1.49-1.91-1.52-2.69a.38.38,0,0,1,.36-.38.34.34,0,0,1,.37.36c0,.5.13,1,1.32,2.2l.22.23c1,1,2.77,2.77,1.49,4.67A.36.36,0,0,1,56.63,111.22Z"/><path class="cls-2" d="M132.18,103.18a1.79,1.79,0,1,1-2.16.13A1.56,1.56,0,0,1,132.18,103.18Z"/><path class="cls-2" d="M132.15,103.81a.23.23,0,0,1-.22-.17l-3.15-10.59a.23.23,0,1,1,.44-.13l3.15,10.59a.23.23,0,0,1-.15.29Z"/><path class="cls-2" d="M132.88,96.05h0a.23.23,0,0,1-.21-.25c.07-1-.93-1.35-2-1.63l-.2,0c-1.1-.32-1.43-.59-1.69-1a.24.24,0,0,1,.08-.32.23.23,0,0,1,.32.08c.17.27.38.5,1.42.8l.19,0c.84.23,2.41.66,2.3,2.11A.24.24,0,0,1,132.88,96.05Z"/><path class="cls-2" d="M134,99.6h0a.24.24,0,0,1-.22-.25c.07-1-.93-1.34-2-1.62l-.2-.06c-1.09-.31-1.43-.58-1.68-1a.23.23,0,1,1,.39-.25c.17.28.38.51,1.42.81l.19,0c.84.23,2.41.65,2.31,2.11A.24.24,0,0,1,134,99.6Z"/><path class="cls-2" d="M133.41,97.77h0a.24.24,0,0,1-.22-.25c.07-1-.93-1.35-2-1.63l-.2,0c-1.09-.32-1.42-.59-1.68-1a.23.23,0,0,1,.07-.32.23.23,0,0,1,.32.08c.17.27.38.5,1.42.8l.19,0c.84.23,2.41.65,2.31,2.11A.23.23,0,0,1,133.41,97.77Z"/><path class="cls-2" d="M28.55,119.55c-.34-1.48,1-3,2.95-3.51s3.86.38,4.2,1.86-1,3-3,3.5S28.89,121,28.55,119.55Z"/><path class="cls-2" d="M25.42,138h-.1a.49.49,0,0,1-.39-.58l3.63-18.84a.5.5,0,0,1,.58-.39.49.49,0,0,1,.39.57L25.9,137.64A.49.49,0,0,1,25.42,138Z"/><path class="cls-2" d="M25.45,137.91a.42.42,0,0,1-.22,0,.5.5,0,0,1-.23-.66c.46-.94,1.11-1.58,3.36-2.48l.41-.16c2.12-.81,4.15-1.77,3.8-3.86a.49.49,0,0,1,.4-.57.51.51,0,0,1,.57.41c.52,3.05-2.69,4.28-4.42,4.94l-.39.16c-2.15.85-2.54,1.38-2.84,2A.48.48,0,0,1,25.45,137.91Z"/><path class="cls-2" d="M148.64,96.75A1.49,1.49,0,1,1,147.46,95,1.49,1.49,0,0,1,148.64,96.75Z"/><path class="cls-2" d="M149.56,106.21l-.51-.09,1.73-9a4,4,0,0,1-2.6,1.18h0A2.93,2.93,0,0,1,146,97.24l.38-.34a2.43,2.43,0,0,0,1.79.91h0a4.12,4.12,0,0,0,2.82-1.6.27.27,0,0,1,.31,0,.26.26,0,0,1,.13.28Z"/><path class="cls-2" d="M147.91,100.49a1.48,1.48,0,1,1-1.17-1.74A1.46,1.46,0,0,1,147.91,100.49Z"/><path class="cls-2" d="M147.46,102.06h0a2.93,2.93,0,0,1-2.17-1.08l.37-.34a2.47,2.47,0,0,0,1.8.91,4.24,4.24,0,0,0,2.84-1.6l.37.36A4.62,4.62,0,0,1,147.46,102.06Z"/><path class="cls-2" d="M102,127.28a1.63,1.63,0,1,1-1.93-1.26A1.63,1.63,0,0,1,102,127.28Z"/><path class="cls-2" d="M106.39,136.6l-2-9.84a4.45,4.45,0,0,1-2.16,2.32,3.3,3.3,0,0,1-2.66-.18l.24-.51a2.72,2.72,0,0,0,2.21.17,4.56,4.56,0,0,0,2.2-2.83.27.27,0,0,1,.28-.18.29.29,0,0,1,.26.23l2.23,10.7Z"/><path class="cls-2" d="M102.85,131.37a1.63,1.63,0,1,1-1.93-1.26A1.63,1.63,0,0,1,102.85,131.37Z"/><path class="cls-2" d="M102,133.38a3.77,3.77,0,0,1-1.58-.38l.23-.51a2.72,2.72,0,0,0,2.21.16,4.53,4.53,0,0,0,2.2-2.82l.53.2a5.06,5.06,0,0,1-2.52,3.14A2.8,2.8,0,0,1,102,133.38Z"/><rect class="cls-2" x="118.29" y="106.15" width="0.29" height="11.09"/><rect class="cls-2" x="118.29" y="106.15" width="0.29" height="11.09"/><rect class="cls-2" x="120.67" y="105.21" width="0.29" height="11.09"/><polygon class="cls-2" points="123.03 110.89 116.83 109.06 116.91 108.78 123.11 110.61 123.03 110.89"/><polygon class="cls-2" points="122.53 113.63 116.32 111.8 116.4 111.52 122.61 113.35 122.53 113.63"/><polygon class="cls-2" points="122.53 113.63 116.32 111.8 116.4 111.52 122.61 113.35 122.53 113.63"/><rect class="cls-2" x="173.64" y="111.12" width="0.26" height="5.73"/><rect class="cls-2" x="173.64" y="111.12" width="0.26" height="5.73"/><rect class="cls-2" x="174.87" y="110.64" width="0.26" height="5.73"/><polygon class="cls-2" points="176.13 113.63 172.92 112.68 173 112.44 176.21 113.38 176.13 113.63"/><polygon class="cls-2" points="175.87 115.04 172.66 114.09 172.74 113.85 175.94 114.79 175.87 115.04"/><polygon class="cls-2" points="175.87 115.04 172.66 114.09 172.74 113.85 175.94 114.79 175.87 115.04"/><path class="cls-2" d="M76.41,120.06a.83.83,0,1,1-.83-.83A.83.83,0,0,1,76.41,120.06Z"/><path class="cls-2" d="M76.41,123.58a.83.83,0,1,1-.83-.83A.83.83,0,0,1,76.41,123.58Z"/><path class="cls-2" d="M69.37,119.82a1.55,1.55,0,1,1-1.54-1.54A1.54,1.54,0,0,1,69.37,119.82Z"/><path class="cls-2" d="M69,129.45a10,10,0,0,0,2.36-2.07A9.56,9.56,0,0,0,73,124.66a7.05,7.05,0,0,0,.47-1.72,7.4,7.4,0,0,0,.08-1.83,3.48,3.48,0,0,0-1.69-2.71,3.34,3.34,0,0,0-2.69-.26,2,2,0,0,0-1.25,1.12,1.71,1.71,0,0,0-.13.61.77.77,0,1,1-1.54,0v-.18a3,3,0,0,1,.32-1.08,3.42,3.42,0,0,1,2.22-1.75,4.58,4.58,0,0,1,3.61.61,4.4,4.4,0,0,1,1.89,3.58,9.33,9.33,0,0,1-.19,2,7.91,7.91,0,0,1-.59,1.82,9.93,9.93,0,0,1-1.86,2.77,10.32,10.32,0,0,1-2.54,2,.14.14,0,0,1-.18,0A.13.13,0,0,1,69,129.45Z"/><path class="cls-2" d="M153.46,118.08c-3.62-2.77,1.16-5.31,1.16-5.31-1-.49-2-1.25-1.09-2.83,1-1.73,4.27-2.22,2.86-4.23,0,0,2.82.46.92,3.26-1.2,1.77-3.26,1.82-1.35,3.94C156,112.91,152.24,115.33,153.46,118.08Z"/><path class="cls-2" d="M14.86,91.19l2.05.64c.67.19,1.5.46,2.45.83s2.06.76,3.26,1.3a100.38,100.38,0,0,1,18.72,10.92c3.68,2.57,7.56,5.49,11.8,8.38a62.07,62.07,0,0,0,14.15,7.6,29.59,29.59,0,0,0,16.91,1.06,41.91,41.91,0,0,0,8.31-3,65.41,65.41,0,0,0,7.68-4.55c5-3.33,9.57-7.17,14.53-10.35a44,44,0,0,1,7.77-4,31.14,31.14,0,0,1,8.32-1.89,49.91,49.91,0,0,1,16,1.77c5,1.24,9.6,2.8,13.83,4.28,8.44,3,15.49,5.51,20.58,6.77,2.53.66,4.54,1.08,5.92,1.32l2.11.37-2.11-.37c-1.38-.23-3.4-.65-5.93-1.3-5.09-1.24-12.15-3.72-20.59-6.71-4.24-1.47-8.85-3-13.84-4.24a49.73,49.73,0,0,0-16-1.73,30.9,30.9,0,0,0-8.27,1.9,44,44,0,0,0-7.72,4c-4.94,3.19-9.53,7-14.49,10.39a66.61,66.61,0,0,1-7.7,4.6,42.35,42.35,0,0,1-8.37,3,29.89,29.89,0,0,1-17.1-1,62.2,62.2,0,0,1-14.25-7.61c-4.26-2.88-8.15-5.79-11.83-8.35A99.75,99.75,0,0,0,22.43,94.41c-1.19-.53-2.28-.94-3.23-1.27s-1.76-.64-2.44-.83l-2.05-.63Z"/><path class="cls-2" d="M14.86,99.59l2,.59c1.32.39,3.27,1,5.66,2a90.12,90.12,0,0,1,8.42,4c3.17,1.69,6.67,3.75,10.44,6.06s7.83,4.83,12.29,7.21a58.3,58.3,0,0,0,14.71,5.79A34.94,34.94,0,0,0,85.19,125c5.63-1.37,10.87-4.23,15.78-7.42s9.53-6.92,14.43-10,10.28-5.44,15.82-6a39.46,39.46,0,0,1,8.13,0c2.63.44,5.22.69,7.69,1.26,5,1,9.56,2.37,13.78,3.69s8.06,2.57,11.51,3.59,6.45,1.85,8.95,2.47,4.51.91,5.86,1.21l2.08.39-2.08-.39c-1.35-.29-3.37-.52-5.86-1.19s-5.54-1.39-9-2.45-7.29-2.28-11.52-3.55S152,103.93,147,102.9c-2.46-.57-5.07-.81-7.68-1.24a39.19,39.19,0,0,0-8.1,0c-5.51.54-10.86,2.88-15.73,6s-9.48,6.81-14.4,10.07-10.17,6.11-15.84,7.51a35.45,35.45,0,0,1-16.93.31,59,59,0,0,1-14.83-5.79c-4.48-2.38-8.54-4.92-12.33-7.2s-7.26-4.33-10.43-6a91.13,91.13,0,0,0-8.39-3.93c-2.38-1-4.29-1.58-5.61-2l-2-.59Z"/><path class="cls-2" d="M14.85,108l2,.53a58,58,0,0,1,5.67,1.69c1.2.44,2.55.85,4,1.44l4.59,1.94L36.2,116l5.59,2.83c3.89,2,8.07,4.18,12.64,6.18s9.53,3.86,14.92,4.62a41.73,41.73,0,0,0,16.59-.93c1.36-.42,2.7-.94,4-1.41.68-.25,1.36-.47,2-.74l1.93-1,3.87-2c1.24-.74,2.51-1.47,3.72-2.27,4.89-3.13,9.47-6.74,14.32-9.79a40.06,40.06,0,0,1,15.51-6.25,38.74,38.74,0,0,1,8-.4c2.61.29,5.18.37,7.64.83,4.95.77,9.56,1.83,13.78,2.91l11.52,3c3.42.91,6.44,1.58,8.93,2.1s4.47.78,5.81,1l2.06.34-2.06-.33c-1.34-.26-3.34-.45-5.82-1s-5.5-1.19-8.93-2.08l-11.53-3c-4.22-1.07-8.84-2.12-13.77-2.87-2.46-.46-5-.53-7.64-.82a39.23,39.23,0,0,0-8,.43A39.91,39.91,0,0,0,116,111.73c-4.83,3.06-9.39,6.69-14.3,9.83-1.21.82-2.46,1.54-3.71,2.29l-3.89,2-1.94,1c-.67.27-1.36.5-2,.75-1.37.48-2.71,1-4.08,1.43a41.84,41.84,0,0,1-16.72,1c-5.45-.74-10.42-2.7-15-4.6s-8.78-4.19-12.68-6.16L36,116.42,30.9,114l-4.56-1.91c-1.42-.59-2.76-1-3.95-1.42A53.78,53.78,0,0,0,16.74,109l-2-.53Z"/><path class="cls-2" d="M14.84,116.38l2,.45c1.31.31,3.26.63,5.68,1.39s5.34,1.65,8.64,2.84,7,2.74,10.92,4.43S50.39,129,55,130.62a71.37,71.37,0,0,0,15.05,3.56,47.08,47.08,0,0,0,16.4-1.47,50.45,50.45,0,0,0,7.93-3.09,68.19,68.19,0,0,0,7.55-4.11c4.88-3,9.54-6.41,14.35-9.4a52,52,0,0,1,15.23-6.55,23.3,23.3,0,0,1,3.95-.67c1.32-.15,2.61-.4,3.92-.46l3.85,0h1.88l1.87.17c2.46.2,4.86.4,7.15.82s4.52.72,6.63,1.18c4.24.8,8.08,1.74,11.52,2.45s6.41,1.34,8.89,1.79,4.45.65,5.78.87l2,.28-2.05-.27c-1.33-.22-3.31-.35-5.77-.86s-5.48-1-8.9-1.76-7.29-1.63-11.52-2.42c-2.12-.45-4.33-.83-6.63-1.16s-4.69-.6-7.15-.8l-1.85-.17-1.89,0-3.85,0c-1.29.06-2.59.32-3.89.47a23.21,23.21,0,0,0-3.94.68,51.69,51.69,0,0,0-15.16,6.57c-4.79,3-9.44,6.39-14.33,9.44a70.19,70.19,0,0,1-7.56,4.15,51.24,51.24,0,0,1-8,3.12,47.28,47.28,0,0,1-16.51,1.53A71.25,71.25,0,0,1,54.91,131c-4.67-1.65-9-3.44-13-5.11S34.29,122.74,31,121.5s-6.18-2.17-8.61-2.8-4.35-1.07-5.66-1.38l-2-.43Z"/><path class="cls-2" d="M14.83,124.78l2,.34c1.32.23,3.26.48,5.7,1.07a203.5,203.5,0,0,1,19.88,5.75c4.06,1.34,8.48,2.71,13.21,4a82.48,82.48,0,0,0,15.15,2.5A50.9,50.9,0,0,0,87,136.6l4-1.28c1.3-.54,2.58-1.14,3.88-1.71.64-.29,1.3-.56,1.93-.88l1.86-1c1.24-.7,2.5-1.37,3.73-2.1,4.84-3,9.52-6.25,14.27-9.26a60.81,60.81,0,0,1,15-6.85,33.34,33.34,0,0,1,3.89-.84,37.18,37.18,0,0,1,3.85-.63,66.42,66.42,0,0,1,7.54-.27l3.62.1c1.19,0,2.36.21,3.51.3l3.38.33,3.25.45c4.24.55,8.1,1.27,11.53,1.8s6.43,1,8.9,1.37,4.43.49,5.75.66l2,.21-2-.21c-1.32-.16-3.29-.25-5.76-.64s-5.47-.77-8.9-1.34S165,113.53,160.72,113l-3.25-.44-3.38-.32c-1.15-.09-2.31-.24-3.5-.29l-3.62-.09a66.42,66.42,0,0,0-7.53.29c-1.28.07-2.54.44-3.83.64a34.86,34.86,0,0,0-3.88.84,61.35,61.35,0,0,0-14.89,6.87c-4.73,3-9.4,6.3-14.26,9.32-1.22.73-2.48,1.4-3.72,2.11L97,133c-.64.33-1.3.6-1.94.9-1.31.57-2.59,1.18-3.9,1.72l-4,1.31a51.9,51.9,0,0,1-16.36,1.88,83.24,83.24,0,0,1-15.23-2.48c-4.74-1.26-9.18-2.62-13.25-4a199.35,199.35,0,0,0-19.84-5.67c-2.41-.59-4.37-.84-5.68-1.06l-2-.33Z"/><path class="cls-2" d="M14.81,133.18l2,.2c1.33.13,3.27.29,5.73.68,4.93.67,11.87,2.1,20.17,3.93s18,3.95,28.66,4.13a59.53,59.53,0,0,0,16.15-2,57.79,57.79,0,0,0,15.37-6.81c4.86-2.91,9.43-6.27,14.16-9.24a58.48,58.48,0,0,1,14.77-7,41.66,41.66,0,0,1,7.69-1.46c2.55-.19,5-.5,7.48-.44l3.6,0,3.49.14c2.29.08,4.5.24,6.62.44,4.24.32,8.1.81,11.54,1.17l8.89.95c2.46.27,4.41.36,5.73.48l2,.15-2-.15c-1.32-.11-3.27-.19-5.73-.46l-8.9-.92c-3.43-.35-7.3-.83-11.54-1.14-2.12-.19-4.32-.35-6.61-.42l-3.49-.13-3.6,0a58.21,58.21,0,0,0-15.13,1.93,58,58,0,0,0-14.7,7c-4.71,3-9.27,6.35-14.13,9.28a58.22,58.22,0,0,1-15.43,6.88,60.2,60.2,0,0,1-16.23,2.07c-10.68-.15-20.45-2.3-28.75-4.06s-15.25-3.21-20.15-3.86c-2.43-.39-4.38-.54-5.7-.67l-2-.19Z"/><path class="cls-2" d="M104.72,119.38a.59.59,0,0,1-.36.76A.59.59,0,0,1,104,119,.6.6,0,0,1,104.72,119.38Z"/><path class="cls-2" d="M103.77,119.77a.57.57,0,0,0,.27.29.87.87,0,0,0,1.06-.15,1.33,1.33,0,0,0-.09-1.63c-.36-.64-.83-1.34-1.3-2.11s-1-1.63-1.53-2.53a29.71,29.71,0,0,1-1.53-2.93c-.12-.27-.24-.54-.37-.81a3.55,3.55,0,0,1-.3-.92v-.26a1.43,1.43,0,0,1,0-.29.93.93,0,0,1,.44-.64.53.53,0,0,1,.48,0,1.87,1.87,0,0,1,.31.24,2.56,2.56,0,0,1,.37.35,4.57,4.57,0,0,1,.81,1.79,3.49,3.49,0,0,1-.08,2,5.3,5.3,0,0,1-.37.93,2.12,2.12,0,0,1-.11.21l-.1.19c-.08.14-.15.27-.2.38a4.43,4.43,0,0,0-.45,1.55,1.81,1.81,0,0,0,.46,1.37,2.24,2.24,0,0,0,1.38.63,3.2,3.2,0,0,0,2.77-1.12A1.58,1.58,0,0,0,106,115a1.85,1.85,0,0,0-.71-1,1.7,1.7,0,0,0-1.93-.11,1.75,1.75,0,0,0-.79,1.37,2.24,2.24,0,0,0,.25,1.12c.13.24.22.37.22.37l-.09-.07a1.83,1.83,0,0,1-.25-.22,2.07,2.07,0,0,1,.29-3.11,2,2,0,0,1,1.31-.39,2.07,2.07,0,0,1,1.36.62,2.34,2.34,0,0,1,.67,1.4,2.24,2.24,0,0,1-.44,1.55,3.89,3.89,0,0,1-3,1.44,2.79,2.79,0,0,1-1.79-.64,2.54,2.54,0,0,1-.84-1.84,4.82,4.82,0,0,1,.33-2c.06-.16.12-.31.18-.44l.19-.41a8.11,8.11,0,0,0,.28-.78,12.24,12.24,0,0,0,.32-1.6,3.07,3.07,0,0,0-.17-1.41c-.07-.19-.22-.47-.46-.45s-.31.69-.3.94a3.88,3.88,0,0,0,.26,1.26,20.49,20.49,0,0,0,1.45,2.93c.53.9,1.06,1.73,1.56,2.5s1,1.47,1.33,2.11c.09.17.18.32.26.51a1.21,1.21,0,0,1,.09.53,1.07,1.07,0,0,1-.38.86,1.12,1.12,0,0,1-1.24.13,1.06,1.06,0,0,1-.34-.31Z"/><path class="cls-2" d="M187.63,118.62a.33.33,0,1,1-.65,0,.33.33,0,0,1,.33-.32A.32.32,0,0,1,187.63,118.62Z"/><path class="cls-2" d="M187.06,118.63a.53.53,0,0,0,.09.21.48.48,0,0,0,.57.13.75.75,0,0,0,.29-.85c-.07-.4-.16-.86-.25-1.35s-.19-1-.28-1.61a14.31,14.31,0,0,1-.2-1.81l0-.49a1.67,1.67,0,0,1,0-.54v0s0,0,0,0v0l0-.06a.61.61,0,0,1,.07-.14.53.53,0,0,1,.36-.24.28.28,0,0,1,.24.1,1,1,0,0,1,.11.18,1.44,1.44,0,0,1,.12.26,2.44,2.44,0,0,1,.06,1.08,2,2,0,0,1-.44,1,2.4,2.4,0,0,1-.38.4.43.43,0,0,1-.1.09l-.09.08a1.45,1.45,0,0,0-.18.16,2.27,2.27,0,0,0-.54.7,1,1,0,0,0,0,.8,1.27,1.27,0,0,0,.59.6,1.78,1.78,0,0,0,1.65,0,.91.91,0,0,0,.43-.62A1,1,0,0,0,189,116a.94.94,0,0,0-1-.45,1,1,0,0,0-.69.55,1.13,1.13,0,0,0-.09.62,2.26,2.26,0,0,0,0,.24l0,0a1.44,1.44,0,0,1-.08-.17,1.13,1.13,0,0,1-.05-.72,1.15,1.15,0,0,1,1.58-.76,1.23,1.23,0,0,1,.57.6,1.3,1.3,0,0,1,.06.85,1.25,1.25,0,0,1-.53.71,2.13,2.13,0,0,1-1.85.13,1.51,1.51,0,0,1-.79-.69,1.38,1.38,0,0,1-.06-1.11,2.7,2.7,0,0,1,.56-.94,1.66,1.66,0,0,1,.18-.19l.18-.18a2.43,2.43,0,0,0,.3-.34,5.41,5.41,0,0,0,.48-.76,1.53,1.53,0,0,0,.2-.75c0-.12,0-.29-.14-.33s-.3.29-.34.42a2.17,2.17,0,0,0-.13.71,12.67,12.67,0,0,0,.16,1.79c.1.57.2,1.11.31,1.6s.19,1,.25,1.35c0,.11,0,.2,0,.31a.94.94,0,0,1-.06.3.6.6,0,0,1-.37.36.63.63,0,0,1-.41,0,.55.55,0,0,1-.25-.17.52.52,0,0,1-.12-.23Z"/><path class="cls-2" d="M168.42,97.58a18.08,18.08,0,0,0-9-9.41,17.66,17.66,0,0,0-11.93-1,18.15,18.15,0,0,0-5.64,2.59c-.16-1-.33-1.93-.48-2.91q-.47-2.81-.86-5.69a44.15,44.15,0,0,0,4.89-5.41,31,31,0,0,0,7-16c.59-5.83,1-11.82-.92-17.1a24.32,24.32,0,0,0-1.88-4.06,16.22,16.22,0,0,0-1.74-2.88,4.66,4.66,0,0,0-3.89-1.63,8,8,0,0,0-5.61,3.8,15.94,15.94,0,0,0-1.17,2.24c-.19.42-.28.7-.39,1l-.09.23c-.07.24,0,.22-.09.35l-.14.56a26.71,26.71,0,0,0-.5,8.45q.23,3.88.43,7.74c.11,4.06.43,8,.87,11.93a55.34,55.34,0,0,1-4.31,4.78L130.14,78c-.93.89-1.9,1.93-2.9,3.06a41.57,41.57,0,0,0-8.92,14.86c-1.93,5.6-1.82,12.28,1,17.57a24,24,0,0,0,12.51,10.9,34.86,34.86,0,0,0,14.74,2.23c.47,2.53.9,5,1.25,7.29,1.52,6.12-.65,11.64-4.47,13.54a7.57,7.57,0,0,1-7.33-.53l.59,0a5.16,5.16,0,1,0-5-5.29c0,.23,0,.45,0,.67h0a5.22,5.22,0,0,0,1.35,3c.15.2.3.41.48.63a9.65,9.65,0,0,0,3.92,2.77,10,10,0,0,0,6.54.14,9.58,9.58,0,0,0,5.85-5.8,11.9,11.9,0,0,0,.9-4.63,43.23,43.23,0,0,0-.5-4.9c-.36-2.3-.78-4.69-1.24-7.17a32.65,32.65,0,0,0,12-4.14,19.25,19.25,0,0,0,8.41-11.16A20.21,20.21,0,0,0,168.42,97.58Zm-27.68-50.2c.74-2.06,2.22-7.72,5.42-6.7,2,.64,2.27,3.38,2.25,5.13a25.93,25.93,0,0,1-3.09,12,110.49,110.49,0,0,1-6.17,10.07c-.2-3.08-.32-6.2-.32-9.35A33.16,33.16,0,0,1,140.74,47.38Zm-7.09,73.09c-4.05-2.13-7.56-5.39-9.19-9.42A15.85,15.85,0,0,1,125,98.41a37.69,37.69,0,0,1,8.56-11.15c.82-.78,1.72-1.6,2.8-2.46l1.44-1.22,1-.88c.22,1.51.45,3,.66,4.49.21,1.32.42,2.62.63,3.91a17.81,17.81,0,0,0-4.87,20.47,18,18,0,0,0,1.3,2.62l.52.84a30.35,30.35,0,0,1-.61-3.77,19.21,19.21,0,0,1,1.51-9.85,15,15,0,0,1,3.13-4.49c.94,5.45,1.9,10.68,2.81,15.64.68,3.84,1.4,7.51,2.07,11A27.31,27.31,0,0,1,133.65,120.47Zm32.93-10a13.72,13.72,0,0,1-6.83,9.74,25.76,25.76,0,0,1-11.31,3.33c-.7-3.62-1.49-7.42-2.32-11.38-1.1-5.26-2.23-10.84-3.29-16.68a14.39,14.39,0,0,1,21.3,4.36A15.75,15.75,0,0,1,166.58,110.44Z"/></g></g></svg>