<svg xmlns="http://www.w3.org/2000/svg" viewBox="0 0 207 207"><defs><style>.cls-1,.cls-4{fill:#fff;}.cls-1{stroke:#821966;stroke-miterlimit:10;stroke-width:2px;}.cls-2{fill:#755946;}.cls-3{fill:#ed7d77;}.cls-5{fill:#dbdbdb;}.cls-6{fill:#821966;}</style></defs><title>Asset 65</title><g id="Layer_2" data-name="Layer 2"><g id="Layer_1-2" data-name="Layer 1"><circle class="cls-1" cx="103.5" cy="103.5" r="102.5"/><path class="cls-2" d="M175.9,74.68c-8.47-4.87-18.77-8.21-28.29-10.49-15.17-3.63-30.36-3.86-45.87-3.86-5.83,0-11.48.84-17.19,1.11-2.5.11-6.23-1-9.14-1l.65-.12c-6-.42-13.18,2.82-19,4.1-5.08,1.11-10.53,2.37-15.5,3.73-7.34,2-19.71,8.22-15.57,17.65,2.84,6.45,7.34,11.75,11.77,17.23,8.94,11,20.75,19.31,34.81,22.08a162.55,162.55,0,0,0,62.9-.17c4.65-.91,9.76-1.69,13.77-4.37,2.75-1.84,4.64-4.7,7.05-7,3.24-3,6.76-5.54,9.38-9.15,4.26-5.84,9.69-10.75,13.79-16.69C182.89,82.76,180.92,77.56,175.9,74.68Z"/><path class="cls-3" d="M70.09,106.5c8.67,6.34,16.32,8.69,37.11,8.69,15,0,28-3.89,36.64-10.18-1.16-6.26-18.26-11.8-27.54-9.37-10.16,2.65-22.29-.65-28.63.8C80.71,98,72.41,100.82,70.09,106.5Z"/><path class="cls-4" d="M168.13,70.46s-11.13-4-12.3-4.27-52.91-7-52.91-7-51.75,6.73-52.92,7-12.3,4.27-12.3,4.27-2.05,13.29,0,15.05,5-.63,26.65-2.34c24-1.91,38.57-1.61,38.57-1.61s14.56-.3,38.57,1.61c21.6,1.71,24.59,4.1,26.64,2.34S168.13,70.46,168.13,70.46Z"/><path class="cls-5" d="M168.13,68.07s-11.13-2.73-12.3-2.93-52.91-4.81-52.91-4.81S51.17,64.94,50,65.14s-12.3,2.93-12.3,2.93-2.05,9.11,0,10.31,4.83.62,26.21-2.68c26.79-4.14,54.46-4.14,78.9,0,21.33,3.61,23.27,3.89,25.32,2.68S168.13,68.07,168.13,68.07Z"/><path class="cls-6" d="M182.38,79.49c-.61-4.65-15.5-15.49-35.47-20.91s-43.59-5.42-43.59-5.42-23.63,0-43.6,5.42S24.87,74.84,24.26,79.49s3.49,0,3.49,0c.29-3.36,18.15-8,37.47-10.58a326.39,326.39,0,0,1,38.1-2.59,326.16,326.16,0,0,1,38.09,2.59c19.32,2.58,37.18,7.22,37.48,10.58C178.89,79.49,183,84.14,182.38,79.49Z"/><path class="cls-4" d="M169,96s-12.28,6.18-24.1,7.76S103,106,103,106s-30-.31-39.89-1.53C51.21,103,38.8,96.91,38.8,96.91l25.86,26,38,2.7h.06l3.15.22v-.48l37.79-3.07Z"/><path class="cls-6" d="M182.76,80.7c-.73-5.3-3.87-1.21-3.87-1.21.54,6.93-24.52,33.34-38.54,37.82s-60.7,4.27-73.85,0c-14-4.53-39.32-30.9-38.75-37.83,0,0-2.94-5.34-3.49,1.05s18.82,39.18,35.32,48.77S103.5,140,103.5,140v-.17c2.74-.12,28.08-1.47,43.72-10.47C163.76,119.8,183.64,87.06,182.76,80.7Z"/><path class="cls-2" d="M21.66,77.7c.12-5.22,4.34-7.16,3.42-8.85-1.47-2.7-4.83.92-5.57,2.46-1.31,2.74-3.49,14.31,2.21,14C23.68,84.73,21.53,83.9,21.66,77.7Z"/><path class="cls-2" d="M188.41,74.87a10.14,10.14,0,0,0-2.66-5.64,6.38,6.38,0,0,0-2.64-1.84v0l-.1,0a1.38,1.38,0,0,0-1.39.66c-.77,1.09-.44,2.2.26,3.28a7.13,7.13,0,0,0,.63,1.51c1.23,2.2,2.66,3.73,3.19,6.51a26.12,26.12,0,0,1-.15,8.24c-.1.8-.44,2.5.33,3s1.58-.8,1.88-1.55C189.37,85,189.24,79.28,188.41,74.87Z"/><path class="cls-2" d="M85.09,181l-.65,3.11c-.21,1.07-.64,1.51-1.67,1.51a1.34,1.34,0,0,1-1.51-1.39,6.4,6.4,0,0,1,.19-1.32L84.52,170c.4-1.75.83-2.25,2.63-2.25,1.62,0,2.22.5,2.63,2.25l3,12.8a8.12,8.12,0,0,1,.24,1.31,1.43,1.43,0,0,1-1.58,1.49c-1.18,0-1.63-.48-1.94-2.09L89,181Zm3.44-2.54-1.41-7.15h0l-1.46,7.15Z"/><path class="cls-2" d="M96.24,182a2.08,2.08,0,0,1,1.91,2.3c0,2.56-1.84,4.33-3.18,4.33a.65.65,0,0,1-.65-.6c0-.36.15-.5.62-.67a2.81,2.81,0,0,0,1.68-1.75,3.28,3.28,0,0,1-.5,0,1.74,1.74,0,0,1-1.8-1.75A1.87,1.87,0,0,1,96.24,182Z"/><path class="cls-2" d="M103.65,182.45h4.93c1.2,0,1.67.63,1.67,1.44s-.47,1.43-1.67,1.43h-6.41c-1.17,0-1.72-.52-1.72-1.72V169.82a1.49,1.49,0,0,1,1.72-1.72h6.24c1.2,0,1.68.62,1.68,1.44s-.48,1.43-1.68,1.43h-4.76v4h4.45c1.2,0,1.68.62,1.68,1.44s-.48,1.43-1.68,1.43h-4.45Z"/><path class="cls-2" d="M113.94,182a2.08,2.08,0,0,1,1.91,2.3c0,2.56-1.84,4.33-3.18,4.33a.65.65,0,0,1-.65-.6c0-.36.15-.5.63-.67a2.82,2.82,0,0,0,1.67-1.75,3.28,3.28,0,0,1-.5,0,1.74,1.74,0,0,1-1.8-1.75A1.87,1.87,0,0,1,113.94,182Z"/><path class="cls-2" d="M118.29,169.44a1.61,1.61,0,1,1,3.21,0V184a1.61,1.61,0,1,1-3.21,0Z"/></g></g></svg>