<svg xmlns="http://www.w3.org/2000/svg" xmlns:xlink="http://www.w3.org/1999/xlink" viewBox="0 0 207 207"><defs><style>.cls-1{isolation:isolate;}.cls-2{fill:#fff;stroke:#821966;stroke-miterlimit:10;stroke-width:2px;}.cls-3{stroke:#dbba83;fill:url(#radial-gradient);}.cls-10,.cls-14,.cls-18,.cls-3,.cls-6{stroke-width:0.12px;}.cls-12,.cls-13,.cls-16,.cls-17,.cls-20,.cls-21,.cls-28,.cls-4,.cls-8,.cls-9{opacity:0.5;}.cls-12,.cls-13,.cls-16,.cls-17,.cls-20,.cls-21,.cls-4,.cls-8,.cls-9{mix-blend-mode:screen;}.cls-4{fill:url(#radial-gradient-2);}.cls-11,.cls-15,.cls-19,.cls-23,.cls-28,.cls-5,.cls-7{mix-blend-mode:multiply;}.cls-5{fill:url(#radial-gradient-3);}.cls-10,.cls-14,.cls-18,.cls-6{stroke:#785430;}.cls-10,.cls-11,.cls-14,.cls-15,.cls-18,.cls-19,.cls-6,.cls-7{opacity:0.55;}.cls-6{fill:url(#radial-gradient-4);}.cls-7{fill:url(#radial-gradient-5);}.cls-8{fill:url(#radial-gradient-6);}.cls-9{fill:url(#radial-gradient-7);}.cls-10{fill:url(#radial-gradient-8);}.cls-11{fill:url(#radial-gradient-9);}.cls-12{fill:url(#radial-gradient-10);}.cls-13{fill:url(#radial-gradient-11);}.cls-14{fill:url(#radial-gradient-12);}.cls-15{fill:url(#radial-gradient-13);}.cls-16{fill:url(#radial-gradient-14);}.cls-17{fill:url(#radial-gradient-15);}.cls-18{fill:url(#radial-gradient-16);}.cls-19{fill:url(#radial-gradient-17);}.cls-20{fill:url(#radial-gradient-18);}.cls-21{fill:url(#radial-gradient-19);}.cls-22{fill:#821966;}.cls-23{fill:#b4b4b4;}.cls-24{fill:url(#linear-gradient);}.cls-25{fill:url(#linear-gradient-2);}.cls-26{fill:url(#linear-gradient-3);}.cls-27{fill:url(#linear-gradient-4);}.cls-28{fill:url(#linear-gradient-5);}.cls-29{fill:url(#linear-gradient-6);}</style><radialGradient id="radial-gradient" cx="298.61" cy="2620.04" r="15.48" gradientTransform="matrix(-0.02, 2.96, -3.83, -0.02, 10131.17, -714.69)" gradientUnits="userSpaceOnUse"><stop offset="0" stop-color="#fffdf3"/><stop offset="1" stop-color="#f9f1dc"/></radialGradient><radialGradient id="radial-gradient-2" cx="297.95" cy="2619.47" r="13.69" xlink:href="#radial-gradient"/><radialGradient id="radial-gradient-3" cx="237.51" cy="1786.98" r="18.48" gradientTransform="matrix(2.96, 0.02, -0.02, 2.96, -568.96, -5181.62)" xlink:href="#radial-gradient"/><radialGradient id="radial-gradient-4" cx="285.95" cy="2603.65" r="2.27" gradientTransform="matrix(-0.02, 2.96, -3.83, -0.02, 10131.17, -714.69)" gradientUnits="userSpaceOnUse"><stop offset="0" stop-color="#f1d478"/><stop offset="0.26" stop-color="#f0d274"/><stop offset="0.5" stop-color="#efcc69"/><stop offset="0.73" stop-color="#ecc156"/><stop offset="0.96" stop-color="#e9b33c"/><stop offset="1" stop-color="#e8b037"/></radialGradient><radialGradient id="radial-gradient-5" cx="258.73" cy="1774.31" r="2.61" gradientTransform="matrix(2.96, 0.02, -0.02, 2.96, -568.96, -5181.62)" xlink:href="#radial-gradient-4"/><radialGradient id="radial-gradient-6" cx="293.03" cy="2599.96" r="1.37" gradientTransform="matrix(-0.02, 3.11, -3.97, -0.02, 10488.97, -780.5)" xlink:href="#radial-gradient-4"/><radialGradient id="radial-gradient-7" cx="285.7" cy="2603.08" r="0.66" xlink:href="#radial-gradient-4"/><radialGradient id="radial-gradient-8" cx="1020.15" cy="3086.72" r="2.27" gradientTransform="matrix(-3.82, -0.12, 0.15, -2.95, 3610.19, 9386.49)" xlink:href="#radial-gradient-4"/><radialGradient id="radial-gradient-9" cx="258.73" cy="1799.37" r="2.66" gradientTransform="matrix(2.96, 0.02, -0.02, 2.96, -568.96, -5181.62)" xlink:href="#radial-gradient-4"/><radialGradient id="radial-gradient-10" cx="990.83" cy="3065.71" r="1.37" gradientTransform="matrix(-4.03, -0.13, 0.15, -3.06, 3686.68, 9665.3)" xlink:href="#radial-gradient-4"/><radialGradient id="radial-gradient-11" cx="1019.9" cy="3086.16" r="0.66" gradientTransform="matrix(-3.82, -0.12, 0.15, -2.95, 3610.19, 9386.49)" xlink:href="#radial-gradient-4"/><radialGradient id="radial-gradient-12" cx="286.08" cy="3273.89" r="2.27" gradientTransform="matrix(-0.02, 2.96, 3.83, 0.02, -12483.83, -853.29)" xlink:href="#radial-gradient-4"/><radialGradient id="radial-gradient-13" cx="216.38" cy="1774.94" r="2.61" gradientTransform="matrix(2.96, 0.02, -0.02, 2.96, -568.96, -5181.62)" xlink:href="#radial-gradient-4"/><radialGradient id="radial-gradient-14" cx="293.59" cy="3245.85" r="1.37" gradientTransform="matrix(-0.02, 3.11, 3.97, 0.02, -12839.67, -924.37)" xlink:href="#radial-gradient-4"/><radialGradient id="radial-gradient-15" cx="285.84" cy="3273.33" r="0.66" gradientTransform="matrix(-0.02, 2.96, 3.83, 0.02, -12483.83, -853.29)" xlink:href="#radial-gradient-4"/><radialGradient id="radial-gradient-16" cx="1689.51" cy="3063.88" r="2.27" gradientTransform="matrix(3.82, -0.08, -0.11, -2.96, -6086.38, 9326.27)" xlink:href="#radial-gradient-4"/><radialGradient id="radial-gradient-17" cx="216.43" cy="1799.41" r="2.66" gradientTransform="matrix(2.96, 0.02, -0.02, 2.96, -568.96, -5181.62)" xlink:href="#radial-gradient-4"/><radialGradient id="radial-gradient-18" cx="1626.81" cy="3043.51" r="1.37" gradientTransform="matrix(4.03, -0.08, -0.11, -3.07, -6167.64, 9603.58)" xlink:href="#radial-gradient-4"/><radialGradient id="radial-gradient-19" cx="1689.26" cy="3063.32" r="0.66" gradientTransform="matrix(3.82, -0.08, -0.11, -2.96, -6086.38, 9326.27)" xlink:href="#radial-gradient-4"/><linearGradient id="linear-gradient" x1="77.07" y1="80.12" x2="62.98" y2="122.91" gradientUnits="userSpaceOnUse"><stop offset="0.12" stop-color="#842c0c"/><stop offset="0.36" stop-color="#220b03"/><stop offset="0.6" stop-color="#842c0c"/><stop offset="0.66" stop-color="#7d2a0b"/><stop offset="0.74" stop-color="#682309"/><stop offset="0.83" stop-color="#471806"/><stop offset="0.95" stop-color="#190802"/><stop offset="1"/></linearGradient><linearGradient id="linear-gradient-2" x1="60.19" y1="88.95" x2="75.6" y2="89.56" gradientUnits="userSpaceOnUse"><stop offset="0.12" stop-color="#ff8a2e"/><stop offset="0.3" stop-color="#f9842d"/><stop offset="0.54" stop-color="#ea742a"/><stop offset="0.82" stop-color="#d05925"/><stop offset="1" stop-color="#ba4321"/></linearGradient><linearGradient id="linear-gradient-3" x1="59.44" y1="108.09" x2="74.85" y2="108.7" xlink:href="#linear-gradient-2"/><linearGradient id="linear-gradient-4" x1="80.93" y1="118.06" x2="40.09" y2="67.76" gradientUnits="userSpaceOnUse"><stop offset="0.14" stop-color="#e54e13"/><stop offset="0.29" stop-color="#e55512"/><stop offset="0.51" stop-color="#e66a0d"/><stop offset="0.77" stop-color="#e68b07"/><stop offset="1" stop-color="#e7ad00"/></linearGradient><linearGradient id="linear-gradient-5" x1="50.19" y1="99.74" x2="83.63" y2="99.74" xlink:href="#linear-gradient-4"/><linearGradient id="linear-gradient-6" x1="55.22" y1="98.6" x2="82.6" y2="101.44" xlink:href="#linear-gradient-2"/></defs><title>Asset 66</title><g class="cls-1"><g id="Layer_2" data-name="Layer 2"><g id="Layer_1-2" data-name="Layer 1"><circle class="cls-2" cx="103.5" cy="103.5" r="102.5"/><path class="cls-3" d="M166.09,67.65s1.79,50.88-.14,76.82c0,0-126.57,1-131,.48,0,0-1.25-69-.75-77.75C34.22,67.2,152.18,66.28,166.09,67.65Z"/><path class="cls-4" d="M133.83,72.12c27.35.83,28.22-2.14,28.53,16.35.41,24.11,1.63,47.23-3.08,49.18s-99.45-33-116.4-60C36.74,67.83,100.74,71.11,133.83,72.12Z"/><path class="cls-5" d="M166,144.47c1.93-25.94.14-76.82.14-76.82-13.91-1.37-131.87-.45-131.87-.45C33.72,75.9,35,145,35,145,39.38,145.49,166,144.47,166,144.47ZM55.75,143.2c-8.84-.56-17-2.32-17-10.34s-.47-50.34-1-58.57c-.4-6.66,12.85-5.39,12.85-5.39,7.07-.12,107.59-.29,112,1.27s2.55,51.07,2.5,60.46.81,11.27-9.36,12.23S64.58,143.77,55.75,143.2Z"/><path class="cls-6" d="M171.36,72s-6.3-6.53-13.05-9.87l.07.74-.74-.06.07.68H156.6l.66.74h-.88l-.08.56-1-.12.3.63h-.74s9.61,6.09,13,10.66l.08-.68,1.18.35-.59-.86,1.11.12-.22-.74.74,0v-.8l1.18.12-.36-.85.73.12S171.87,72.51,171.36,72Z"/><path class="cls-7" d="M168,75.27l1.18.35-.59-.86,1.11.12-.22-.74.74,0v-.8l1.18.12-.36-.85.73.12s.08-.17-.43-.69c0,0-6.3-6.53-13.05-9.87l.07.74-.74-.06.07.68H156.6l.66.74h-.88l-.08.56-1-.12.3.63h-.74s9.61,6.09,13,10.66Zm-.36-1.71c-1.39-.52-7.4-5.62-9.82-7s.23-2,1.12-3,5.71,3,7.78,4.61c1.69,1.32,3.81,3,3.14,3.83S169.06,74.08,167.66,73.56Z"/><path class="cls-8" d="M169.21,71.39c1.73.92-5.28-5.6-9.35-7.37-1.67-.73,1,1,1.9,1.75s-.76.47-2.06,0,.22.66,3.57,3,6.16,5.06,5.17,3.69C167.23,70.84,166.4,69.87,169.21,71.39Z"/><path class="cls-9" d="M167.83,70.15c1.37.83-3.66-3.1-4.69-3.67S165.26,68.6,167.83,70.15Z"/><path class="cls-10" d="M158.83,149.21s8.63-4.62,13.16-9.71l-1,0,.1-.56-.88,0,0-.85-1,.48,0-.68-.73-.08.18-.74-.82.2,0-.56s-8.17,7.19-14.19,9.68l.88.08-.49.9,1.13-.42-.19.85,1-.14.05.57,1,0-.19.91,1.11-.25-.17.56S158.15,149.59,158.83,149.21Z"/><path class="cls-11" d="M154.69,146.51l-.49.9,1.13-.42-.19.85,1-.14.05.57,1,0-.19.91,1.11-.25-.17.56s.22.07.9-.31c0,0,8.63-4.62,13.16-9.71l-1,0,.1-.56-.88,0,0-.85-1,.48,0-.68-.73-.08.18-.74-.82.2,0-.56s-8.17,7.19-14.19,9.68Zm2.22-.21c.72-1.06,7.5-5.51,9.28-7.33s2.64.25,3.86,1-4,4.3-6.19,5.83c-1.75,1.26-4,2.84-5.05,2.29S156.19,147.36,156.91,146.3Z"/><path class="cls-12" d="M159.67,147.58c-1.25,1.29,7.41-3.88,9.82-7,1-1.27-1.28.72-2.32,1.4s-.59-.61,0-1.6-.86.15-4,2.65-6.73,4.57-4.93,3.86C160.45,146.07,161.72,145.46,159.67,147.58Z"/><path class="cls-13" d="M161.32,146.55c-1.11,1,4.12-2.71,4.89-3.48S163.41,144.63,161.32,146.55Z"/><path class="cls-14" d="M30.11,73s6.37-6.45,13.17-9.71L43.2,64l.74,0-.08.68H45l-.66.73h.88l.07.57,1-.11-.3.63h.74S37,72.46,33.47,77l-.07-.68-1.18.34.6-.86-1.11.11.23-.74-.74-.06v-.79l-1.17.1.37-.85-.74.11S29.59,73.5,30.11,73Z"/><path class="cls-15" d="M33.47,77c3.49-4.53,13.18-10.5,13.18-10.5h-.74l.3-.63-1,.11-.07-.57H44.3l.66-.73h-1.1l.08-.68-.74,0,.08-.74C36.48,66.54,30.11,73,30.11,73c-.52.51-.45.68-.45.68l.74-.11-.37.85,1.17-.1v.79l.74.06-.23.74,1.11-.11-.6.86,1.18-.34Zm-1.89-3.94c-.66-.8,1.49-2.49,3.19-3.79,2.09-1.59,7-5.48,7.84-4.5s3.52,1.73,1.08,3-8.51,6.32-9.91,6.83S32.24,73.86,31.58,73.05Z"/><path class="cls-16" d="M32.26,72.41c-1.73.91,5.35-5.53,9.44-7.25,1.68-.71-1,1-1.92,1.72s.76.49,2.06.08-.23.66-3.61,3S32,74.91,33,73.56C34.25,71.89,35.09,70.93,32.26,72.41Z"/><path class="cls-17" d="M33.65,71.19c-1.38.81,3.71-3,4.74-3.61S36.24,69.67,33.65,71.19Z"/><path class="cls-18" d="M41.86,148.59s-8.58-4.72-13-9.87l1,0-.1-.57.89,0,0-.86,1,.5,0-.69.73-.07-.17-.73.81.21,0-.57s8.09,7.3,14.07,9.85L46,146l.48.9-1.12-.43.18.85-1-.16-.05.58-1,0,.18.9-1.11-.26.17.57S42.54,149,41.86,148.59Z"/><path class="cls-19" d="M46.91,145.87c-6-2.55-14.07-9.85-14.07-9.85l0,.57-.81-.21.17.73-.73.07,0,.69-1-.5,0,.86-.89,0,.1.57-1,0c4.46,5.15,13,9.87,13,9.87.68.39.9.33.9.33l-.17-.57,1.11.26-.18-.9,1,0,.05-.58,1,.16-.18-.85,1.12.43L46,146Zm-5,1.58c-1,.54-3.28-1.07-5-2.35-2.14-1.56-7.35-5.2-6.12-5.91s2.11-2.77,3.87-.93,8.49,6.38,9.19,7.45S42.9,146.92,41.89,147.45Z"/><path class="cls-20" d="M41,147c1.23,1.31-7.36-4-9.74-7.07-1-1.28,1.27.74,2.31,1.43s.6-.6,0-1.59.86.16,4,2.69,6.67,4.65,4.88,3.92C40.28,145.43,39,144.81,41,147Z"/><path class="cls-21" d="M39.4,145.91c1.1,1-4.08-2.77-4.85-3.55S37.34,144,39.4,145.91Z"/><path class="cls-22" d="M153.88,82.53a2,2,0,0,0-1.56-.69,3.48,3.48,0,0,0-2.4,1.16l-.15.16a24.29,24.29,0,0,0-2.26,3.14c-.42.65-.86,1.35-1.29,2.08-.61,1-1.22,2-1.79,3s-1,1.71-1.4,2.46c-.94,1.69-1.61,2.92-1.7,3.1l-.09,0a.12.12,0,0,1-.09,0,.32.32,0,0,1-.05-.2,2,2,0,0,1,.1-.53c.06-.19.18-.73.34-1.5s.32-1.63.5-2.66c.16-.88.32-1.85.48-2.85s.33-2.15.46-3.22.25-2.1.33-3,.1-1.57.1-2.22c0-.33,0-.63,0-.91a3.44,3.44,0,0,0-.33-1.45,3.24,3.24,0,0,0-2.53-1.64,2.12,2.12,0,0,0-1.53.68,5.13,5.13,0,0,0-1.17,2.24,12.8,12.8,0,0,0-.3,1.39c0,.28-.08.59-.12.9-.16,1.14-.3,2.43-.44,3.76-.08.83-.16,1.67-.25,2.5-.12,1.24-.24,2.46-.36,3.58-.11.93-.22,1.78-.33,2.51a12.5,12.5,0,0,1-.37,1.78,2.25,2.25,0,0,1-.19.47.3.3,0,0,1-.09.1l0,0h0a.89.89,0,0,1-.55-.57,12.16,12.16,0,0,1-.27-2.39c0-.16,0-.32-.07-.48-.08-.39-.18-1.44-.34-2.79-.1-.81-.21-1.73-.35-2.68-.18-1.25-.4-2.57-.67-3.79-.18-.79-.38-1.55-.6-2.22a7.92,7.92,0,0,0-.89-1.93,1.8,1.8,0,0,0-1.16-.9,2,2,0,0,0-.41,0,1.89,1.89,0,0,0-1.66,1,5.85,5.85,0,0,0-.72,2.25,18.3,18.3,0,0,0-.14,2.37c0,.2,0,.41,0,.61s0,.7,0,1c0,.57.08,1.32.15,2.18.09,1.07.19,2.31.29,3.56.08,1,.16,2,.22,3s.11,2,.12,2.85v.08a7.24,7.24,0,0,1-.12,1.58,1.25,1.25,0,0,1-.35.55,9.76,9.76,0,0,0-2.27,2.46,6.68,6.68,0,0,0-.73,3.27c0,.29,0,.59,0,.91a19.54,19.54,0,0,0,.47,2.79c.11.43.24.88.38,1.36.21.69.46,1.42.75,2.21l0,.14h0a7.89,7.89,0,0,0,.78,1.4,5.5,5.5,0,0,0,2.33,2,.15.15,0,0,0,.05.13l0,0a3.26,3.26,0,0,1,.15.57,2.56,2.56,0,0,1,0,.39.86.86,0,0,1,0,.16,6.54,6.54,0,0,1-.14.77c-.08.4-.2,1-.35,1.58-.26,1.14-.62,2.57-1,4-.27,1-.55,2-.84,2.84a20.47,20.47,0,0,1-.84,2.22,4.7,4.7,0,0,1-.37.69.9.9,0,0,1-.3.3,7.39,7.39,0,0,0-.78.34,1.08,1.08,0,0,0-.32.28.7.7,0,0,0-.14.41,1.11,1.11,0,0,0,0,.3c.47,1.43,1.83,2.3,3,3.07a14.44,14.44,0,0,0,5.61,2.4,15,15,0,0,0,2.43.21,9.47,9.47,0,0,0,3.89-.76,14.73,14.73,0,0,0,3.69-2.4l0,0a1.59,1.59,0,0,0,.25-.78.92.92,0,0,0-.46-.79c0-.11,0-.41.07-.85.06-.87.14-2.29.19-4q0-1.06,0-2.22c0-.41,0-.83,0-1.26,0-1.05-.07-2.12-.15-3.14s-.18-1.77-.33-2.57c0-.2-.07-.4-.11-.59a10,10,0,0,0,2.35-1.59,14.89,14.89,0,0,0,1.86-2,16.9,16.9,0,0,0,1.39-2.07,6.71,6.71,0,0,0,.37-.76,11,11,0,0,0,.54-1.62,18.52,18.52,0,0,0,.48-2.64,27,27,0,0,0,.16-3v-.45a26.11,26.11,0,0,0-.23-3.06,11.36,11.36,0,0,0-.79-3,3.2,3.2,0,0,0-.6-.9,1.17,1.17,0,0,0-.67-.32l.57-.75c.37-.5.87-1.17,1.42-2s1-1.41,1.48-2.17c.67-1,1.32-2.07,1.87-3.06a14.44,14.44,0,0,0,1.19-2.7h0a5.06,5.06,0,0,0,.19-1.32A2.79,2.79,0,0,0,153.88,82.53ZM141.35,97h0Z"/><path class="cls-23" d="M69,116H68.9a11.56,11.56,0,0,1-4.17-.76c-.07-.08-.16-.16-.23-.25a4,4,0,0,1-.34-.5l-.09-.15c-.07-.13-.14-.27-.2-.41l-.06-.13a4.34,4.34,0,0,1-.16-.47v0a4.42,4.42,0,0,1-.1-.5l0-.11c0-.2,0-.41,0-.61V112a3.9,3.9,0,0,1,0-.58l0-.14c0-.15.07-.3.11-.45l0-.14a4.53,4.53,0,0,1,.23-.57l0-.09a5.55,5.55,0,0,1,.41-.7l0,0a5.45,5.45,0,0,1,.38-.46l.11-.12c.16-.16.32-.32.49-.46a12.12,12.12,0,0,1,7.46-2.16H73a18.16,18.16,0,0,1,2.47.19,10.43,10.43,0,0,1,2.23.6,4.93,4.93,0,0,1,.69,1.06,4.13,4.13,0,0,1-.42,4,6.94,6.94,0,0,1-1.84,2A12.76,12.76,0,0,1,69,116Zm-.34-20.72h0a5.81,5.81,0,0,1-.72-.05l-.39-.08a4.45,4.45,0,0,1-.26-.43c-.07-.13-.13-.28-.19-.42a3.38,3.38,0,0,1-.11-.34l-.05-.16a2.78,2.78,0,0,1-.11-.5v0a3.77,3.77,0,0,1,0-.58v-.19a1.87,1.87,0,0,1,0-.34l0-.2.06-.29.06-.2c0-.1.08-.21.12-.32l.08-.18a3.87,3.87,0,0,1,.34-.55l.11-.14c.1-.12.21-.24.32-.35l.16-.16c.12-.1.24-.2.37-.29l.17-.13c.19-.12.39-.24.6-.35a6.49,6.49,0,0,1,2.84-.6h0a9.1,9.1,0,0,1,1.58.18,6.58,6.58,0,0,1,.67.15l.06,0,.14,0c.07.11.16.22.22.33a3,3,0,0,1-.19,3.06,7.42,7.42,0,0,1-5.92,3.08Zm1.28-17a15.53,15.53,0,0,0-12.51,7,11.84,11.84,0,0,0-1.47,7.27,13.69,13.69,0,0,0,3.47,6.6,17.36,17.36,0,0,0-5.76,5.33,12.71,12.71,0,0,0-1.41,11.71,12,12,0,0,0,4.48,5.45l0,0h0l2.82,1.92a15.55,15.55,0,0,0,4,1.93c.5.16,1,.3,1.54.43s1,.21,1.55.29l.19,0,.25,0,.49,0,.3,0,.5,0h.14c.36,0,.72,0,1.09,0h.08q.58,0,1.17,0l.4,0c.25,0,.49,0,.73-.06l.13,0,.29,0,.55-.07.27,0,.59-.1.65-.13.59-.14.34-.08.32-.09.49-.14.68-.22.46-.15.21-.08.33-.13.78-.32.5-.22.75-.36c.16-.09.32-.16.47-.25l.76-.43.41-.24c.3-.18.59-.38.88-.58l.2-.13,0,0,0,0,.23-.17.32-.25c.18-.13.35-.27.52-.41l.42-.37.48-.42.4-.4.44-.45.37-.42.39-.46.14-.16.3-.41.13-.17,0-.07,0-.07c.15-.21.29-.43.43-.65h0l0,0c.06-.08.11-.17.16-.25l0,0c.1-.16.18-.32.27-.48l.29-.59c.06-.12.11-.24.16-.36a2.06,2.06,0,0,0,.12-.26l.06-.16a12.89,12.89,0,0,0,.48-1.31h0l.09-.32c0-.17.09-.33.13-.5l0-.07,0-.11c0-.1,0-.21.08-.32l0-.17c0-.12,0-.25.08-.38s.07-.5.09-.76l0-.11c0-.32,0-.63,0-1,0-.08,0-.16,0-.25v-.35c0-.32,0-.63-.07-1a2.58,2.58,0,0,0,0-.29v-.13c0-.16-.07-.31-.1-.47s-.07-.44-.12-.65l0-.15,0-.07c0-.08,0-.16-.07-.25s-.14-.49-.23-.73h0l-.08-.2,0-.11,0-.11c-.11-.26-.24-.5-.36-.75s-.12-.28-.19-.41a12,12,0,0,0-.76-1.23,5.65,5.65,0,0,0-.62-.77l-.08-.09-.12-.12-.15-.16h0l-.25-.22-.19-.16c-.2-.17-.42-.33-.65-.49v0l-2.68-1.82.32-.3.21-.23c.14-.15.29-.3.43-.46l.23-.28.35-.42c.08-.11.15-.21.23-.3l.21-.29.07-.11.11-.15c.15-.22.29-.45.43-.67l0,0c.16-.29.32-.58.46-.87l.09-.17h0c.15-.32.28-.64.4-1,0-.09.06-.18.1-.28l.12-.36c.05-.14.08-.28.12-.43l0-.17c.06-.27.12-.53.16-.8l0-.16,0-.08h0l0-.21,0-.34,0-.13v-.14c0-.09,0-.18,0-.28s0-.21,0-.32a2.44,2.44,0,0,0,0-.27,7.41,7.41,0,0,0-.07-.8h0a2.56,2.56,0,0,0,0-.27c0-.21-.08-.43-.13-.64-.11-.38-.23-.74-.37-1.09l0-.11,0-.08,0-.1c0-.13-.12-.25-.18-.37s-.09-.19-.14-.28l0-.05h0c-.09-.17-.19-.32-.28-.48l-.11-.17a5.87,5.87,0,0,0-.46-.65v0l-.2-.22c-.11-.14-.23-.28-.35-.41l0,0-.1-.09c-.15-.15-.3-.31-.46-.45l-.06,0,.06,0-.1-.08a9.77,9.77,0,0,0-1-.79h0l-.9-.61L79.8,80.93h0l.07,0c-2.41-1.67-5.77-2.6-9.9-2.66Z"/><path class="cls-24" d="M87.26,108.53v-.25c0-.12,0-.23,0-.34,0-.32,0-.65-.07-1,0-.09,0-.18,0-.28a.62.62,0,0,0,0-.13c0-.16-.07-.32-.1-.48s-.07-.42-.12-.64l0-.15a.19.19,0,0,0,0-.07c0-.08,0-.16-.07-.24-.08-.25-.14-.5-.23-.74l0,0h0l0,0-.08-.2h0a.54.54,0,0,0,0-.11.76.76,0,0,0,0-.11c-.1-.25-.23-.5-.34-.74s-.13-.29-.2-.42q-.34-.63-.75-1.23a9.2,9.2,0,0,0-.63-.77l-.08-.09-.13-.12-.14-.16h0l-.25-.22-.18-.16L83,99.42l0,0-2.68-1.82.32-.31.2-.22c.15-.15.3-.31.44-.47l.23-.27.35-.43.23-.31.21-.27.07-.11.11-.16c.15-.22.29-.45.43-.67,0,0,0,0,0,0q.25-.45.48-.9c0-.05,0-.09.07-.14h0a8.93,8.93,0,0,0,.41-1l.09-.27c.05-.12.09-.24.13-.36s.08-.3.12-.45a.83.83,0,0,0,0-.15,7.78,7.78,0,0,0,.17-.81.88.88,0,0,0,0-.16.64.64,0,0,1,0-.07c0-.07,0-.13,0-.2s0-.24,0-.36a.49.49,0,0,1,0-.12v-.14c0-.09,0-.19,0-.28s0-.22,0-.33a2.17,2.17,0,0,0,0-.26,7.35,7.35,0,0,0-.07-.82h0c0-.09,0-.17,0-.26s-.08-.42-.14-.63a10.27,10.27,0,0,0-.36-1.11s0-.07,0-.1l0-.07a.69.69,0,0,1,0-.1c-.06-.13-.12-.26-.19-.39l-.12-.26,0-.06h0c-.09-.16-.19-.32-.29-.48l-.1-.17c-.14-.22-.3-.44-.46-.65h0c-.06-.08-.13-.15-.19-.22l-.36-.42,0,0a.81.81,0,0,0-.1-.09c-.15-.16-.3-.31-.46-.46L81.4,82a11.12,11.12,0,0,0-1-.78h0l-1.18-.81-1.63-1.11h0a10,10,0,0,1,1,.8,6.76,6.76,0,0,1,.55.52l.12.12.35.39.12.15-1-.66-1.41-1-.08,0h0l.08,0h0l-.08,0-.39-.23c-.19-.12-.38-.24-.58-.35l-.06,0,0,0,0,0,0,0h0l0,0h0c-.15-.08-.3-.14-.45-.21l-.53-.25-.57-.21c-.19-.07-.38-.15-.57-.21l-.11,0h0l-.42-.13-.27-.07-.69-.17L72,77.47l-.73-.13-.39-.06h0l-.19,0c-.27,0-.55-.06-.83-.09l-.54,0-.94,0-.4,0h-.43l-.54,0h-.12l-.5,0,.55.38h-.12l-.58,0-.34.06c-.18,0-.35,0-.52.09l-.37.08c-.16,0-.33.07-.49.12L64.1,78l-.47.14-.38.13-.46.17-.37.15-.45.2L61.6,79l-.42.22-.36.19-.42.25-.34.21-.4.27-.33.23-.38.29-.31.25-.36.31-.29.26-.35.33-.26.27-.33.36c-.07.09-.16.18-.23.28s-.21.26-.31.4a2.56,2.56,0,0,0-.2.26l0,0c-.15.21-.29.43-.42.65a5.81,5.81,0,0,0-.4.74v0s0,0,0,0A9.82,9.82,0,0,0,55,86a1.12,1.12,0,0,1,0,.13l0,.12-.09.32c0,.16-.08.32-.11.48s-.05.23-.07.34a2,2,0,0,1-.05.24l0,.25c0,.13,0,.25,0,.38s0,.33,0,.49,0,.25,0,.38,0,.11,0,.17,0,.28,0,.41V90c0,.29,0,.57.06.85l0,.15c0,.12.06.24.08.36s0,.25.09.39.1.31.15.46.09.27.15.42a.14.14,0,0,1,0,.07c.1.23.21.47.32.7a1.09,1.09,0,0,0,.08.15q.18.39.39.75l.05.09c.15.26.31.52.48.77l.1.16.51.72,0,0a7.75,7.75,0,0,0,.5.61l.11.12.09.1a5.56,5.56,0,0,0,.43.42l.43.37-.49.29c-.31.17-.62.36-.91.54l-.29.2-.58.38-.33.25-.48.36-.33.27-.44.37-.31.29c-.14.12-.27.25-.39.37l-.3.3c-.12.13-.24.25-.35.38l-.27.31-.31.39-.24.31-.1.14c-.12.16-.22.31-.32.47-.21.33-.4.66-.58,1l-.13.25-.15.3c-.08.16-.14.32-.21.48l-.13.3c-.14.35-.27.69-.38,1h0v0c-.11.33-.19.67-.27,1,0,.1,0,.2-.05.3s0,.22-.07.33,0,.31-.06.47l0,.26c0,.31-.06.62-.06.93v.08a2.44,2.44,0,0,0,0,.27q0,.39,0,.78c0,.12,0,.24,0,.35s0,.21,0,.32l0,.18-.46-.31,0,.17,0,.12a10.76,10.76,0,0,0,.23,1.1l0,.11a.13.13,0,0,0,0,.06v0s0,0,0,0h0s0,0,0,0a10.17,10.17,0,0,0,.36,1.06l0,.09a3.13,3.13,0,0,0,.15.32c0,.13.1.25.16.37l.08.16c0,.08.08.16.13.24s.23.41.36.62a2.39,2.39,0,0,0,.13.21l0,.08h0c.12.19.26.37.4.56l.14.18a8.42,8.42,0,0,0,.62.72s0,0,0,0h0l0,.06,0,0,0,0,.09.09,0,0h0l0,0,.22.21c.26.24.52.49.8.72l.12.11h0l.24.16h0l-.24-.16.77.56,2.79,1.91a15.29,15.29,0,0,1-3-1.57h0l2.82,1.92a16.39,16.39,0,0,0,5.53,2.35c.5.12,1,.21,1.54.29l.19,0,.27,0,.47.06.31,0,.54,0h.1c.36,0,.72,0,1.09,0s.84,0,1.26,0l.35,0c.26,0,.52,0,.77-.06h.12l.28,0,.57-.07h0l.28,0,.57-.1.66-.13.59-.14.34-.08c.11,0,.21-.06.32-.09l.49-.14.67-.21.48-.17.2-.06.31-.13q.41-.15.81-.33l.48-.21.76-.37.47-.24.76-.43.4-.24c.32-.19.62-.39.91-.6l.18-.12,0,0,0,0,.23-.16.33-.26.51-.41.42-.36.48-.43.39-.39.45-.46.36-.4c.14-.16.27-.32.4-.49l.13-.15c.11-.13.2-.27.3-.41a2.09,2.09,0,0,0,.14-.17l0-.07a.43.43,0,0,1,0-.07c.15-.21.29-.43.43-.64v0h0l0,0,.15-.25,0,0,.27-.48c.1-.2.2-.39.29-.59s.11-.24.16-.35.09-.18.12-.26a1.15,1.15,0,0,0,.06-.17,13.83,13.83,0,0,0,.48-1.31h0l.09-.32c0-.17.09-.33.13-.5s0-.05,0-.08,0-.06,0-.09,0-.22.07-.33a.9.9,0,0,0,0-.16c0-.13,0-.26.08-.38s.07-.52.1-.79a.25.25,0,0,1,0-.08C87.24,109.17,87.26,108.85,87.26,108.53Zm-11.41,2.93c-.09.12-.19.24-.29.35l-.18.19c-.11.12-.23.23-.35.34l-.16.15c-.18.15-.36.3-.55.43h0a13.6,13.6,0,0,1-7.66,2.21q-.47,0-.9,0a11.77,11.77,0,0,1-3.78-.88c-.12-.13-.24-.26-.35-.4s-.3-.42-.43-.63l-.12-.23-.08-.17,2.71,1.86a7.72,7.72,0,0,1-.7-.55l-.18-.17a7.92,7.92,0,0,1-.56-.61,4,4,0,0,1-.34-.5l-.09-.16a3.11,3.11,0,0,1-.2-.41l-.06-.13a4.34,4.34,0,0,1-.16-.47v0a4.42,4.42,0,0,1-.1-.5.41.41,0,0,1,0-.11,3.18,3.18,0,0,1,0-.62s0-.05,0-.08a5.7,5.7,0,0,1,.06-.58.4.4,0,0,1,0-.15,3.13,3.13,0,0,1,.1-.44.83.83,0,0,1,0-.15,5.59,5.59,0,0,1,.22-.57l0-.09a4.56,4.56,0,0,1,.41-.7l0,0c.12-.15.24-.31.37-.45a.8.8,0,0,1,.13-.13c.15-.16.31-.31.48-.46a12.18,12.18,0,0,1,7.56-2.15,15.44,15.44,0,0,1,2.47.19,9.38,9.38,0,0,1,3.67,1.33c.06.13.1.27.15.4a2.25,2.25,0,0,0,.08.24c0,.11.05.22.08.33a1.55,1.55,0,0,0,0,.23c0,.07,0,.14,0,.21l0,.47c0,.09,0,.18,0,.27s0,.24,0,.36,0,.18,0,.28,0,.25-.09.37a2.76,2.76,0,0,1-.08.27c-.06.19-.14.38-.22.57a.84.84,0,0,0-.06.14,6.88,6.88,0,0,1-.36.64c-.11.19-.24.36-.36.54ZM78.53,80.6l.1.05.23.21.22.23.26.3,0,.07-1.9-1.3.51.19Zm2.52,17.55.41.38.19.21c.16.17.29.34.43.52L80.53,98.2l-.19-.13L80,97.86l.3-.28.53.4Zm.77,1.42-1.68-1.14c.37.13.73.28,1.08.44l.15.15C81.53,99.2,81.67,99.38,81.82,99.57ZM57.63,121.16q-.74-.3-1.41-.63l-.37-.34c-.12-.12-.26-.23-.38-.36s-.21-.24-.31-.37ZM74.69,104.1a7.16,7.16,0,0,1,.7.22l.32.12.21.09a4.7,4.7,0,0,1,.35.43l.17.22a6,6,0,0,1,.42.73l-2.64-1.8-.35-.2.51.1ZM72,92.13l-.3.28-.42.32-.35.25c-.15.1-.31.19-.47.28l-.37.21c-.17.09-.35.16-.52.23l-.38.17-.57.18-.37.11c-.21.06-.42.09-.64.13l-.31.06a7.57,7.57,0,0,1-1,.06l-.26,0a3.36,3.36,0,0,1-.29-.24L65.7,94a2.66,2.66,0,0,1-.26-.31l-.12-.15c-.11-.17-.22-.34-.32-.52s-.13-.29-.19-.43l-.11-.32-.06-.17c0-.17-.07-.34-.1-.5v0a4,4,0,0,1,0-.59,1.15,1.15,0,0,1,0-.19,1.84,1.84,0,0,1,0-.33,1.52,1.52,0,0,1,0-.21c0-.09,0-.19.06-.29l.06-.19c0-.11.08-.22.13-.33a1.34,1.34,0,0,1,.07-.18,3.87,3.87,0,0,1,.34-.55l.11-.13a2.74,2.74,0,0,1,.32-.36.75.75,0,0,1,.16-.15,3.47,3.47,0,0,1,.37-.3l.17-.13a6.77,6.77,0,0,1,.6-.35,6.5,6.5,0,0,1,2.88-.59,7.92,7.92,0,0,1,3,.6,2.5,2.5,0,0,0,.25.09l.09.06.26.14a.19.19,0,0,0,0,.07,2.58,2.58,0,0,1,.08.26c0,.07,0,.14,0,.21l0,.23c0,.12,0,.24,0,.36v.18l0,.29c0,.07,0,.14,0,.22s0,.19-.07.29l-.06.21a4.48,4.48,0,0,1-.21.53A4.23,4.23,0,0,1,73,91a6.13,6.13,0,0,1-.38.51l-.26.31C72.26,91.89,72.13,92,72,92.13Zm.28-5.85c.18,0,.36.13.54.19l.08.1a4.66,4.66,0,0,1,.32.53,3.42,3.42,0,0,1,.17.4l0,0-2.19-1.5c.27,0,.55.1.82.17Zm-7.52,7.91L64.65,94a5.2,5.2,0,0,1-.37-.61c0-.1-.1-.2-.14-.3L66,94.39l-.47,0A6.43,6.43,0,0,1,64.77,94.19Z"/><path class="cls-25" d="M65.53,94.36a5.44,5.44,0,0,1-4.07-2.86,4.93,4.93,0,0,1-.1-4.47,5.21,5.21,0,0,1,2.43-2.34A7.15,7.15,0,0,1,67,84c2.32,0,5.12,1,6.2,3.09A3.76,3.76,0,0,1,73,91a8.3,8.3,0,0,1-6.65,3.46A7.55,7.55,0,0,1,65.53,94.36Zm-3.45-7a4.12,4.12,0,0,0,.11,3.74,4.6,4.6,0,0,0,3.46,2.43,5.69,5.69,0,0,0,.72,0,7.43,7.43,0,0,0,5.95-3.07,3,3,0,0,0,.19-3.06c-.79-1.56-3-2.64-5.48-2.65a6.5,6.5,0,0,0-2.88.59,4.38,4.38,0,0,0-2.07,2Z"/><path class="cls-26" d="M70.51,101.87c3,.46,5.42,2,6.35,4a4.9,4.9,0,0,1-.48,4.79,7.52,7.52,0,0,1-2.06,2.21,13.6,13.6,0,0,1-7.66,2.21c-3.37,0-6.23-1.2-7.84-3.23a5.54,5.54,0,0,1,1-7.88,12.83,12.83,0,0,1,8.06-2.34A16.89,16.89,0,0,1,70.51,101.87Zm5.19,8.42a4.11,4.11,0,0,0,.42-4c-.81-1.8-3-3.17-5.74-3.58a15.41,15.41,0,0,0-2.46-.19,12.15,12.15,0,0,0-7.56,2.15,4.77,4.77,0,0,0-.9,6.76c1.45,1.84,4.08,2.9,7.21,2.92a12.73,12.73,0,0,0,7.19-2.06,6.81,6.81,0,0,0,1.84-2Z"/><path class="cls-27" d="M81.62,100a9.42,9.42,0,0,0-5.41-3.39l-.74-.21.59-.49c3.81-3.18,5.58-7.39,4.64-11-1.7-6.54-9.39-7.42-12.76-7.47l-.21,0a14.67,14.67,0,0,0-11.87,6.61,11,11,0,0,0-1.36,6.76,12.82,12.82,0,0,0,3.6,6.46l.43.37-.49.29a16.78,16.78,0,0,0-5.95,5.33,12.4,12.4,0,0,0-1.9,9.12,10.1,10.1,0,0,0,.56,1.85c1.48,3.64,4.82,6.23,9.41,7.3a19.35,19.35,0,0,0,4.33.49c7.38,0,14.59-3.83,17.52-9.41C84.3,108.24,84.16,103.64,81.62,100ZM61.36,87a5.21,5.21,0,0,1,2.43-2.34A7.15,7.15,0,0,1,67,84c2.32,0,5.12,1,6.2,3.09A3.76,3.76,0,0,1,73,91a8.3,8.3,0,0,1-6.65,3.46,7.55,7.55,0,0,1-.83,0,5.44,5.44,0,0,1-4.07-2.86A4.93,4.93,0,0,1,61.36,87Zm-1.5,17a12.83,12.83,0,0,1,8.06-2.34,16.89,16.89,0,0,1,2.59.19c3,.46,5.42,2,6.35,4a4.9,4.9,0,0,1-.48,4.79,7.52,7.52,0,0,1-2.06,2.21,13.6,13.6,0,0,1-7.66,2.21c-3.37,0-6.23-1.2-7.84-3.23A5.54,5.54,0,0,1,59.86,104Z"/><path class="cls-28" d="M67.94,77.46c3.37.05,11.06.93,12.76,7.47.94,3.57-.83,7.78-4.64,11l-.59.49.74.21A9.42,9.42,0,0,1,81.62,100c2.54,3.66,2.68,8.26.39,12.63-2.93,5.58-10.14,9.45-17.52,9.41a19.35,19.35,0,0,1-4.33-.49c-4.59-1.07-7.93-3.66-9.41-7.3a10.1,10.1,0,0,1-.56-1.85,19.85,19.85,0,0,0,15.08,7.33,16.71,16.71,0,0,0,2.65-.2c6.38-1,12.54-5.81,12.7-12.67.14-5.87-6-8.61-11-9.23,2.93-1.9,6.3-3.65,7.81-6.92s-.16-7-2.5-9.38A15.39,15.39,0,0,0,67.94,77.46Z"/><path class="cls-29" d="M82.28,99.51A9.67,9.67,0,0,0,77.14,96c3.66-3.33,5.32-7.6,4.35-11.3-1.32-5-6.29-8-13.75-8.08a15.48,15.48,0,0,0-12.57,7A11.84,11.84,0,0,0,53.7,90.9a13.65,13.65,0,0,0,3.47,6.6,17.6,17.6,0,0,0-5.77,5.33A12.74,12.74,0,0,0,50,114.54c1.57,3.89,5.12,6.65,10,7.78a20.24,20.24,0,0,0,4.51.52c7.67,0,15.17-4,18.24-9.85C85.17,108.34,85,103.42,82.28,99.51Zm-30.19,3.75A16.78,16.78,0,0,1,58,97.93l.49-.29-.43-.37a12.82,12.82,0,0,1-3.6-6.46,11,11,0,0,1,1.36-6.76,14.68,14.68,0,0,1,12.08-6.59c3.37.05,11.06.93,12.76,7.47.94,3.57-.83,7.78-4.64,11l-.59.49.74.21A9.42,9.42,0,0,1,81.62,100c2.54,3.66,2.68,8.26.39,12.63-2.93,5.58-10.14,9.45-17.52,9.41a19.35,19.35,0,0,1-4.33-.49c-4.59-1.07-7.93-3.66-9.41-7.3a10.1,10.1,0,0,1-.56-1.85A12.4,12.4,0,0,1,52.09,103.26Z"/><path class="cls-22" d="M125.22,94.65a2.7,2.7,0,0,0-.87-.67,2.48,2.48,0,0,0-1.17-.27,6.29,6.29,0,0,0-4,2c-.12.12-.23.25-.33.37h0l-.13.18c-.25.36-.42.59-.53.73a2.13,2.13,0,0,0,0-.27c0-.11,0-.43,0-.91s.09-1.36.18-2.26.18-1.68.3-2.57c.15-1.07.34-2.15.57-3.13,0-.23.1-.44.16-.65.2-.74.43-1.54.64-2.37a22.52,22.52,0,0,0,.73-3.77q0-.35,0-.69a4.06,4.06,0,0,0-.36-1.84,2,2,0,0,0-1.25-1.06h0a1.56,1.56,0,0,0-.66-.14,1.77,1.77,0,0,0-1.53,1,10.55,10.55,0,0,0-.72,1.73c-.28.79-.6,1.77-.93,2.85s-.75,2.48-1.1,3.75c-.29,1-.55,2-.78,2.9-.28,1.12-.51,2.09-.64,2.8,0,.14,0,.27-.07.38h0v0a.52.52,0,0,1,0,.11.5.5,0,0,1-.1.22.18.18,0,0,1-.12.05.43.43,0,0,1-.24-.1.52.52,0,0,1-.15-.21,3.3,3.3,0,0,1-.21-.51,17,17,0,0,1-.49-1.66c-.25-1-.51-2.23-.74-3.49-.19-1-.36-2.12-.48-3.12-.06-.47-.11-.91-.15-1.33s-.09-.89-.16-1.32a18.14,18.14,0,0,0-.54-2.43,5.39,5.39,0,0,0-1.54-2.71,1.09,1.09,0,0,0-1.39,0,2.71,2.71,0,0,0-.76,1.15,9.69,9.69,0,0,0-.51,1.91,19.85,19.85,0,0,0-.23,2.2c0,.41,0,.83,0,1.27s0,1.09,0,1.65a25.93,25.93,0,0,0,.39,3.22,21.22,21.22,0,0,0,.75,3h0l0,.1c0,.06,0,.16,0,.27a5,5,0,0,1,.07.8,2,2,0,0,1,0,.44.48.48,0,0,1-.12.25.17.17,0,0,1-.12,0l-.12,0a2.92,2.92,0,0,1-1.45-1.38A15.35,15.35,0,0,1,103.28,89c-.15-.38-.32-.81-.49-1.27-.24-.68-.51-1.4-.79-2.13a27.87,27.87,0,0,0-1.33-3,11.12,11.12,0,0,0-1.32-2.07,4.46,4.46,0,0,0-2.73-1.77h0a2.3,2.3,0,0,0-.94.46,2.52,2.52,0,0,0-.94,2.11,4,4,0,0,0,.09.87h0a.23.23,0,0,0,0,.07,22.92,22.92,0,0,0,1.1,2.85c.27.59.59,1.29,1,2.1s.75,1.53,1.22,2.44h0l.19.31c.11.19.28.47.46.79.36.64.8,1.47,1.11,2.19a4,4,0,0,1,.35,1.27.4.4,0,0,1-.08.28c-.17.16-.28.29-.37.37s-.15.12-.22.12a.57.57,0,0,1-.3-.13,15.37,15.37,0,0,1-1.24-1,11.07,11.07,0,0,1-.8-.78c-.6-.63-1.33-1.47-2.07-2.28-.55-.6-1.11-1.18-1.64-1.67a8.38,8.38,0,0,0-1.14-.91,1.94,1.94,0,0,0-1-.36A.87.87,0,0,0,91,88a.88.88,0,0,0-.3.33,2.06,2.06,0,0,0-.24,1,3.94,3.94,0,0,0,.1.87,10.65,10.65,0,0,0,1.3,3.08,18.79,18.79,0,0,0,1.57,2.21,19.42,19.42,0,0,0,2.72,2.72c.27.22.53.42.81.62h0L97,99a1.44,1.44,0,0,1,.21.15c.18.13.42.32.67.54a4.38,4.38,0,0,1,1,1.13,1.14,1.14,0,0,1,.15.5c0,.08,0,.21,0,.37a20.51,20.51,0,0,0-.25,2.29c0,.18,0,.36,0,.54A10.82,10.82,0,0,0,99,107a9.22,9.22,0,0,0,1.56,3.44,9.35,9.35,0,0,0,.82,1,11.69,11.69,0,0,0,1.14,1.06h0c-.1.42-.61,2.63-1.13,5.61-.24,1.34-.47,2.83-.67,4.39-.11.84-.21,1.71-.29,2.57-.14,1.55-.23,3.11-.23,4.59v.49q0,1.19.12,2.28h0v.19l0,0h0a3.7,3.7,0,0,0-.35.12,1.07,1.07,0,0,0-.46.34.7.7,0,0,0-.14.41,1,1,0,0,0,0,.29,2.33,2.33,0,0,0,.7.82,7.57,7.57,0,0,0,1.72,1.08,15.83,15.83,0,0,0,6.9,1.36,25.82,25.82,0,0,0,2.93-.17h0a12.66,12.66,0,0,0,6-3,5.72,5.72,0,0,0,1.57-3v0a1.06,1.06,0,0,0-.3-.57.48.48,0,0,0-.32-.12.77.77,0,0,0-.28.07c0-.1-.08-.27-.16-.51-.11-.4-.28-1-.47-1.68s-.51-1.89-.78-3c-.23-1-.46-2-.67-3.13-.24-1.27-.44-2.57-.57-3.82a25.21,25.21,0,0,1-.14-2.53,11.56,11.56,0,0,1,.2-2.31v0a6.35,6.35,0,0,0,1.28-1.23,13.18,13.18,0,0,0,1.22-1.75,22.59,22.59,0,0,0,1.65-3.51c.09-.25.19-.51.28-.78.25-.73.5-1.4.73-2,.1-.27.21-.53.31-.78.33-.85.66-1.59,1-2.23.38-.82.73-1.5,1-2.05a12.77,12.77,0,0,1,1.3-1.89,6.34,6.34,0,0,0,.61-.76,1.62,1.62,0,0,0,.3-.85A1.07,1.07,0,0,0,125.22,94.65Z"/><path d="M54.46,134.87c.07.91,1,1.35,2,1.35a6.45,6.45,0,0,0,1.95-.29l.29,1.49a6.94,6.94,0,0,1-2.56.43c-2.41,0-3.79-1.39-3.79-3.61a3.55,3.55,0,0,1,3.59-3.78c2.29,0,3.16,1.78,3.16,3.54a5,5,0,0,1-.08.87Zm2.59-1.51a1.28,1.28,0,0,0-1.24-1.44,1.45,1.45,0,0,0-1.37,1.44Z"/><path d="M62.69,128.65a1.11,1.11,0,0,1-1.18,1.1,1.11,1.11,0,1,1,0-2.22A1.1,1.1,0,0,1,62.69,128.65Zm-2.27,9.06v-7.09h2.2v7.09Z"/><path d="M71.16,130.62c0,.45-.06,1-.06,2.1v4A4.07,4.07,0,0,1,70,139.87a4.34,4.34,0,0,1-2.88.87,5.59,5.59,0,0,1-2.56-.55l.44-1.67a4.36,4.36,0,0,0,2.06.54,1.69,1.69,0,0,0,1.84-1.87v-.46h0a2.27,2.27,0,0,1-1.91.92c-1.76,0-3-1.42-3-3.46,0-2.28,1.48-3.73,3.22-3.73a2.15,2.15,0,0,1,2,1h0l.07-.84ZM68.9,133.5a1.64,1.64,0,0,0,0-.4,1.21,1.21,0,0,0-1.19-1c-.8,0-1.45.72-1.45,2,0,1.06.52,1.89,1.45,1.89a1.21,1.21,0,0,0,1.16-.9,1.81,1.81,0,0,0,.07-.58Z"/><path d="M72.87,127.41h2.21v4.05h0a2.57,2.57,0,0,1,.87-.73,2.52,2.52,0,0,1,1.14-.27c1.41,0,2.48,1,2.48,3.1v4.15H77.4v-3.9c0-.93-.32-1.57-1.15-1.57a1.17,1.17,0,0,0-1.1.77,1.35,1.35,0,0,0-.07.49v4.21H72.87Z"/><path d="M83.75,128.59v2h1.58v1.62H83.75v2.57c0,.86.2,1.25.87,1.25a3.42,3.42,0,0,0,.65-.06l0,1.67a4.54,4.54,0,0,1-1.44.18,2.3,2.3,0,0,1-1.65-.6,2.94,2.94,0,0,1-.61-2.11v-2.9h-.94v-1.62h.94v-1.54Z"/></g></g></g></svg>