<svg xmlns="http://www.w3.org/2000/svg" viewBox="0 0 207 207"><defs><style>.cls-1,.cls-4{fill:#fff;}.cls-1{stroke:#821966;stroke-miterlimit:10;stroke-width:2px;}.cls-2{fill:#755946;}.cls-3{fill:#ed7d77;}.cls-5{fill:#dbdbdb;}.cls-6{fill:#821966;}</style></defs><title>Asset 67</title><g id="Layer_2" data-name="Layer 2"><g id="Layer_1-2" data-name="Layer 1"><circle class="cls-1" cx="103.5" cy="103.5" r="102.5"/><path class="cls-2" d="M175.63,74.94c-8.47-4.87-18.77-8.2-28.29-10.48C132.17,60.83,117,60.6,101.47,60.6c-5.83,0-11.48.84-17.19,1.1-2.5.12-6.23-1-9.14-1l.65-.11c-6.05-.42-13.18,2.81-19,4.09-5.08,1.12-10.53,2.37-15.5,3.74-7.34,2-19.71,8.21-15.57,17.65C28.52,92.53,33,97.83,37.45,103.3c8.94,11.06,20.75,19.31,34.81,22.08a162.55,162.55,0,0,0,62.9-.16c4.65-.91,9.76-1.7,13.77-4.37,2.75-1.84,4.64-4.71,7-6.95,3.24-3,6.76-5.54,9.38-9.15,4.26-5.85,9.69-10.76,13.79-16.7C182.62,83,180.65,77.83,175.63,74.94Z"/><path class="cls-3" d="M69.82,106.76c8.67,6.34,16.32,8.69,37.11,8.69,15,0,28-3.88,36.64-10.17C142.41,99,125.31,93.48,116,95.9c-10.16,2.66-22.29-.64-28.63.8C80.44,98.29,72.14,101.09,69.82,106.76Z"/><path class="cls-4" d="M167.86,70.73s-11.12-4-12.3-4.28-52.91-7-52.91-7-51.75,6.74-52.92,7-12.3,4.28-12.3,4.28-2,13.29,0,15,5-.63,26.65-2.35c24-1.9,38.57-1.61,38.57-1.61s14.56-.29,38.57,1.61c21.6,1.72,24.59,4.1,26.64,2.35S167.86,70.73,167.86,70.73Z"/><path class="cls-5" d="M167.86,68.34s-11.12-2.73-12.3-2.93-52.91-4.81-52.91-4.81S50.9,65.21,49.73,65.41s-12.3,2.93-12.3,2.93-2,9.11,0,10.31,4.83.62,26.21-2.68c26.79-4.14,54.46-4.14,78.9,0,21.33,3.61,23.27,3.88,25.32,2.68S167.86,68.34,167.86,68.34Z"/><path class="cls-6" d="M182.11,79.76c-.61-4.65-15.5-15.49-35.47-20.92s-43.59-5.42-43.59-5.42-23.63,0-43.6,5.42S24.6,75.11,24,79.76s3.49,0,3.49,0c.29-3.36,18.15-8,37.47-10.59a327.64,327.64,0,0,1,38.1-2.58,327.41,327.41,0,0,1,38.09,2.58c19.32,2.58,37.18,7.23,37.48,10.59C178.62,79.76,182.72,84.4,182.11,79.76Z"/><path class="cls-4" d="M168.77,96.29s-12.28,6.19-24.1,7.77-42,2.17-42,2.17-30-.31-39.89-1.53c-11.88-1.47-24.29-7.53-24.29-7.53l25.86,26,38,2.7h.06l3.15.22v-.48l37.79-3.07Z"/><path class="cls-6" d="M182.49,81c-.73-5.3-3.87-1.21-3.87-1.21.54,6.93-24.52,33.34-38.54,37.82s-60.69,4.26-73.85,0c-14-4.53-39.32-30.89-38.75-37.82,0,0-2.94-5.34-3.49,1S42.81,120,59.32,129.58s43.91,10.65,43.91,10.65v-.16C106,140,131.31,138.6,147,129.59,163.49,120.07,183.37,87.33,182.49,81Z"/><path class="cls-2" d="M21.39,78c.12-5.22,4.35-7.17,3.42-8.85-1.47-2.7-4.83.92-5.57,2.46-1.3,2.74-3.49,14.31,2.21,14C23.41,85,21.26,84.17,21.39,78Z"/><path class="cls-2" d="M188.14,75.13a10.11,10.11,0,0,0-2.66-5.63,6.38,6.38,0,0,0-2.64-1.84v0l-.1,0a1.38,1.38,0,0,0-1.39.66c-.77,1.09-.44,2.2.26,3.28a7.36,7.36,0,0,0,.63,1.51c1.23,2.2,2.66,3.72,3.19,6.51a26.05,26.05,0,0,1-.15,8.23c-.1.8-.44,2.51.33,3s1.58-.81,1.88-1.55C189.1,85.31,189,79.54,188.14,75.13Z"/><path class="cls-2" d="M84.82,181.28l-.65,3.11c-.21,1.08-.64,1.51-1.67,1.51A1.34,1.34,0,0,1,81,184.51a6.41,6.41,0,0,1,.19-1.31l3.07-12.9c.4-1.74.83-2.24,2.63-2.24,1.62,0,2.22.5,2.63,2.24l3,12.8a8.39,8.39,0,0,1,.24,1.32,1.43,1.43,0,0,1-1.58,1.48c-1.18,0-1.63-.48-1.94-2.08l-.5-2.54Zm3.44-2.53-1.41-7.15h0l-1.46,7.15Z"/><path class="cls-2" d="M96,182.27a2.08,2.08,0,0,1,1.91,2.29c0,2.56-1.84,4.33-3.18,4.33a.64.64,0,0,1-.65-.6c0-.36.15-.5.62-.67a2.82,2.82,0,0,0,1.68-1.74,4.9,4.9,0,0,1-.5,0,1.74,1.74,0,0,1-1.8-1.74A1.87,1.87,0,0,1,96,182.27Z"/><path class="cls-2" d="M103.38,182.72h4.93c1.2,0,1.67.62,1.67,1.44s-.47,1.43-1.67,1.43H101.9a1.49,1.49,0,0,1-1.72-1.72V170.09c0-1.2.55-1.72,1.72-1.72h6.24c1.2,0,1.68.62,1.68,1.43s-.48,1.44-1.68,1.44h-4.76v4h4.45c1.2,0,1.68.62,1.68,1.43s-.48,1.44-1.68,1.44h-4.45Z"/><path class="cls-2" d="M113.67,182.27a2.08,2.08,0,0,1,1.91,2.29c0,2.56-1.84,4.33-3.18,4.33a.64.64,0,0,1-.65-.6c0-.36.15-.5.63-.67a2.83,2.83,0,0,0,1.67-1.74,4.9,4.9,0,0,1-.5,0,1.74,1.74,0,0,1-1.8-1.74A1.87,1.87,0,0,1,113.67,182.27Z"/><path class="cls-2" d="M118,169.71a1.61,1.61,0,1,1,3.21,0v14.54a1.61,1.61,0,1,1-3.21,0Z"/></g></g></svg>