<svg xmlns="http://www.w3.org/2000/svg" viewBox="0 0 207 207"><defs><style>.cls-1{fill:#fff;stroke:#821966;stroke-miterlimit:10;stroke-width:2px;}.cls-2{fill:#821966;}.cls-3{fill:#ecf9fb;}.cls-4{fill:#a2e2e8;}.cls-5{opacity:0.2;}</style></defs><title>Asset 68</title><g id="Layer_2" data-name="Layer 2"><g id="Layer_1-2" data-name="Layer 1"><circle class="cls-1" cx="103.5" cy="103.5" r="102.5"/><polygon class="cls-2" points="107.51 61.22 93.74 61.22 37.62 61.22 37.62 148.98 93.74 148.98 107.51 148.98 163.63 148.98 163.63 61.22 107.51 61.22"/><path class="cls-3" d="M156.75,140.82a78,78,0,0,0-56.12,0V61.22a77.92,77.92,0,0,1,56.12,0Z"/><path class="cls-2" d="M148.58,67.59a1.53,1.53,0,0,1-.3,0,76.67,76.67,0,0,0-39.19,0,1.14,1.14,0,1,1-.59-2.21,79.14,79.14,0,0,1,40.37,0,1.14,1.14,0,0,1,.81,1.4A1.13,1.13,0,0,1,148.58,67.59Z"/><path class="cls-2" d="M148.58,76.71a.92.92,0,0,1-.29,0,76.82,76.82,0,0,0-39.2,0,1.14,1.14,0,1,1-.59-2.21,79.14,79.14,0,0,1,40.37,0,1.14,1.14,0,0,1-.29,2.25Z"/><path class="cls-2" d="M148.58,85.83a1.53,1.53,0,0,1-.3,0,76.67,76.67,0,0,0-39.19,0,1.14,1.14,0,1,1-.59-2.21,79.14,79.14,0,0,1,40.37,0,1.14,1.14,0,0,1,.81,1.4A1.13,1.13,0,0,1,148.58,85.83Z"/><path class="cls-2" d="M148.58,95a.92.92,0,0,1-.29,0,76.82,76.82,0,0,0-39.2,0,1.14,1.14,0,1,1-.59-2.21,79.14,79.14,0,0,1,40.37,0,1.14,1.14,0,0,1-.29,2.25Z"/><path class="cls-2" d="M108.79,104.08a1.15,1.15,0,0,1-.29-2.26,79.14,79.14,0,0,1,40.37,0,1.15,1.15,0,0,1-.59,2.22,76.56,76.56,0,0,0-39.19,0A1.54,1.54,0,0,1,108.79,104.08Z"/><path class="cls-2" d="M108.79,113.19a1.13,1.13,0,0,1-1.1-.85,1.14,1.14,0,0,1,.81-1.4,79.14,79.14,0,0,1,40.37,0,1.14,1.14,0,0,1-.58,2.21,76.71,76.71,0,0,0-39.2,0A1.53,1.53,0,0,1,108.79,113.19Z"/><path class="cls-2" d="M148.58,122.32a1.35,1.35,0,0,1-.29,0,76.82,76.82,0,0,0-39.2,0,1.14,1.14,0,0,1-.59-2.21,78.92,78.92,0,0,1,40.37,0,1.13,1.13,0,0,1,.81,1.39A1.14,1.14,0,0,1,148.58,122.32Z"/><path class="cls-2" d="M108.79,131.44a1.14,1.14,0,0,1-1.1-.86,1.13,1.13,0,0,1,.81-1.39,79,79,0,0,1,40.37,0,1.15,1.15,0,0,1,.81,1.4,1.13,1.13,0,0,1-1.39.81,76.71,76.71,0,0,0-39.2,0A1.54,1.54,0,0,1,108.79,131.44Z"/><path class="cls-3" d="M100.63,140.82a78.05,78.05,0,0,0-56.13,0V61.22a78,78,0,0,1,56.13,0Z"/><path class="cls-2" d="M92.46,67.59a1.53,1.53,0,0,1-.3,0,76.67,76.67,0,0,0-39.19,0,1.14,1.14,0,0,1-.59-2.21,79.14,79.14,0,0,1,40.37,0,1.14,1.14,0,0,1,.81,1.4A1.12,1.12,0,0,1,92.46,67.59Z"/><path class="cls-2" d="M52.67,76.71a1.14,1.14,0,0,1-.29-2.25,79.14,79.14,0,0,1,40.37,0,1.14,1.14,0,1,1-.59,2.21,76.78,76.78,0,0,0-39.19,0A1,1,0,0,1,52.67,76.71Z"/><path class="cls-2" d="M92.46,85.83a1.53,1.53,0,0,1-.3,0,76.67,76.67,0,0,0-39.19,0,1.14,1.14,0,0,1-.59-2.21,79.14,79.14,0,0,1,40.37,0,1.14,1.14,0,0,1,.81,1.4A1.12,1.12,0,0,1,92.46,85.83Z"/><path class="cls-2" d="M52.67,95a1.14,1.14,0,0,1-.29-2.25,79.14,79.14,0,0,1,40.37,0,1.14,1.14,0,1,1-.59,2.21,76.78,76.78,0,0,0-39.19,0A1,1,0,0,1,52.67,95Z"/><path class="cls-2" d="M92.46,104.08a1.54,1.54,0,0,1-.3,0A76.56,76.56,0,0,0,53,104a1.15,1.15,0,0,1-.59-2.22,79.14,79.14,0,0,1,40.37,0,1.14,1.14,0,0,1,.81,1.4A1.13,1.13,0,0,1,92.46,104.08Z"/><path class="cls-2" d="M52.67,113.19a1.13,1.13,0,0,1-1.1-.85,1.15,1.15,0,0,1,.81-1.4,79.14,79.14,0,0,1,40.37,0,1.14,1.14,0,1,1-.59,2.21,76.67,76.67,0,0,0-39.19,0A1.53,1.53,0,0,1,52.67,113.19Z"/><path class="cls-2" d="M52.67,122.32a1.14,1.14,0,0,1-.29-2.25,78.92,78.92,0,0,1,40.37,0,1.14,1.14,0,0,1-.59,2.21,76.78,76.78,0,0,0-39.19,0A1.54,1.54,0,0,1,52.67,122.32Z"/><path class="cls-2" d="M52.67,131.44a1.14,1.14,0,0,1-.29-2.25,79,79,0,0,1,40.37,0,1.14,1.14,0,1,1-.59,2.21,76.67,76.67,0,0,0-39.19,0A1.54,1.54,0,0,1,52.67,131.44Z"/><path class="cls-4" d="M44.5,140.82h56.13A78.05,78.05,0,0,0,44.5,140.82Z"/><path class="cls-4" d="M100.63,140.82h56.12A78,78,0,0,0,100.63,140.82Z"/><path class="cls-5" d="M156.75,61.22v79.6H44.5l3.82,3.82H160.56V65Z"/><path class="cls-5" d="M100.63,140.82s-.07-1.24-.19-3.42-.26-5.28-.35-9-.24-8.08-.3-12.74-.1-9.64-.12-14.62,0-10,.12-14.61.22-9,.3-12.75.27-6.85.35-9,.19-3.42.19-3.42.06,1.24.18,3.42.27,5.29.35,9,.25,8.08.3,12.75.1,9.64.12,14.61,0,10-.12,14.62-.22,9-.3,12.74-.27,6.85-.35,9S100.63,140.82,100.63,140.82Z"/></g></g></svg>