<svg xmlns="http://www.w3.org/2000/svg" viewBox="0 0 212.16 212.16"><defs><style>.cls-1{fill:#128cbe;}.cls-2{fill:#fff;}.cls-3{fill:#115e9c;}</style></defs><title>cspl3</title><g id="Layer_2" data-name="Layer 2"><g id="Layer_1-2" data-name="Layer 1"><circle class="cls-1" cx="106.08" cy="106.08" r="106.08"/><path class="cls-2" d="M181.42,110.48A22.4,22.4,0,0,1,159,132.88H53.15a22.4,22.4,0,0,1-22.41-22.4h0A22.41,22.41,0,0,1,53.15,88.07H159a22.41,22.41,0,0,1,22.41,22.41Z"/><path class="cls-2" d="M106.16,154.51a48.42,48.42,0,0,0,37.66-17.94H68.49A48.45,48.45,0,0,0,106.16,154.51Z"/><path class="cls-2" d="M154.34,136.57a57.08,57.08,0,0,1-96.52,0H53.15a26.15,26.15,0,0,1-5-.49l-.57,5,5.93,2.34.27,6.37L60,151.19l1.26,6.25,6.36.4,2.22,6,6.34-.6,3.14,5.56,6.17-1.59,4,5,5.85-2.54L100,174l5.39-3.42,5.3,3.54,4.79-4.22,5.79,2.66,4.06-4.91,6.15,1.71,3.23-5.49,6.34.72,2.34-5.93,6.37-.27,1.39-6.22,6.25-1.26.4-6.36,6-2.22-.57-6.09a25.71,25.71,0,0,1-4.24.38Z"/><path class="cls-2" d="M53.26,84.39a57.09,57.09,0,0,1,105.62,0H159A26,26,0,0,1,167.83,86l1.48-5.31-5.49-3.23.72-6.34-5.93-2.34-.27-6.37L152.12,61l-1.25-6.25-6.37-.4-2.21-6-6.35.6-3.14-5.56L126.64,45l-4-5-5.84,2.54-4.7-4.31-5.39,3.42-5.3-3.54-4.78,4.22-5.8-2.66-4.06,4.91-6.15-1.71-3.23,5.5-6.34-.73-2.34,5.93-6.37.27L61,60,54.72,61.3l-.4,6.36-6,2.22.6,6.35-5.56,3.13L45,85.53l-.43.35a25.87,25.87,0,0,1,8.61-1.49Z"/><path class="cls-2" d="M106.16,57.46A48.53,48.53,0,0,0,62.7,84.39h86.91A48.5,48.5,0,0,0,106.16,57.46ZM84.86,75.51l-1.12,3.1-.92-3.16-3.29-.11,2.73-1.85-.91-3.16,2.6,2,2.72-1.85-1.11,3.1,2.59,2Zm23.94-7.33-2.72-2-2.72,2,1-3.2-2.72-2H105l1-3.2,1,3.2h3.36l-2.72,2Zm20.69,7.27-.91,3.16-1.12-3.1-3.29.12,2.59-2-1.12-3.1,2.73,1.85,2.6-2-.91,3.16,2.72,1.85Z"/><path class="cls-3" d="M53.27,116.74l-.91,5.73H48.44l4.24-24.91h5.17L62,122.47h-4l-.88-5.73Zm2-13.47-1.39,9.82h2.78Z"/><path class="cls-3" d="M71.11,97.56a5.73,5.73,0,0,1,4.37,1.73A6,6,0,0,1,77,103.5v3.62a5.79,5.79,0,0,1-1.72,4.22,5.63,5.63,0,0,1-4.16,1.75H68.94v9.38H65.18V97.56Zm2.24,6a2.14,2.14,0,0,0-.58-1.57,2.07,2.07,0,0,0-1.56-.59H68.94v8h2.27a2,2,0,0,0,1.52-.64,2.07,2.07,0,0,0,.62-1.53Z"/><path class="cls-3" d="M85.92,97.56a5.72,5.72,0,0,1,4.37,1.73,6,6,0,0,1,1.51,4.21v3.62a5.79,5.79,0,0,1-1.72,4.22,5.63,5.63,0,0,1-4.16,1.75H83.75v9.38H80V97.56Zm2.24,6a2.14,2.14,0,0,0-.58-1.57A2.07,2.07,0,0,0,86,101.4H83.75v8H86a2,2,0,0,0,1.52-.64,2.07,2.07,0,0,0,.62-1.53Z"/><path class="cls-3" d="M100.73,97.56a5.74,5.74,0,0,1,4.61,1.73,6.29,6.29,0,0,1,1.29,4.21v3.62a5.84,5.84,0,0,1-2,4.48l2.79,10.87h-4.07l-2.27-9.38H98.56v9.38H94.8V97.56Zm2.25,6a1.91,1.91,0,0,0-2.15-2.16H98.56v8h2.27a2,2,0,0,0,1.52-.64,2.08,2.08,0,0,0,.63-1.53Z"/><path class="cls-3" d="M115.94,97.24a6,6,0,0,1,6,6V116.8A6,6,0,0,1,111.72,121,5.8,5.8,0,0,1,110,116.8V103.21a6,6,0,0,1,6-6Zm2,5.89a2,2,0,0,0-.62-1.52,2.16,2.16,0,0,0-3,0,2,2,0,0,0-.64,1.52v13.63a2.05,2.05,0,0,0,.64,1.53,2.19,2.19,0,0,0,3,0,2.07,2.07,0,0,0,.62-1.53Z"/><path class="cls-3" d="M128.94,122.47l-4.46-24.91h3.94L131.55,117l3.15-19.42h3.94l-4.53,24.91Z"/><path class="cls-3" d="M141.78,122.47V97.54h10.7v3.78h-6.94v6.8h5.07v3.77h-5.07v6.8h6.94v3.78Z"/><path class="cls-3" d="M166.87,116.51a5.79,5.79,0,0,1-1.73,4.21,5.63,5.63,0,0,1-4.17,1.75h-5.91V97.54H161a5.63,5.63,0,0,1,4.18,1.75,5.75,5.75,0,0,1,1.72,4.19Zm-8.05,2.24h2.26a2,2,0,0,0,1.52-.64,2.13,2.13,0,0,0,.61-1.52v-13a2.15,2.15,0,0,0-.62-1.53,2.05,2.05,0,0,0-1.51-.63h-2.26Z"/></g></g></svg>