<svg xmlns="http://www.w3.org/2000/svg" viewBox="0 0 39.56 39.56"><defs><style>.cls-1{fill:#b3b3b3;}</style></defs><title>face-icon</title><g id="Layer_2" data-name="Layer 2"><g id="Layer_1-2" data-name="Layer 1"><path class="cls-1" d="M19.78,39.56A19.78,19.78,0,1,1,39.56,19.78,19.8,19.8,0,0,1,19.78,39.56Zm0-38.06A18.28,18.28,0,1,0,38.06,19.78,18.3,18.3,0,0,0,19.78,1.5Z"/><path class="cls-1" d="M16.88,31.28h4.63V19.68h3.24l.34-3.88H21.51V13.59c0-.92.19-1.28,1.07-1.28h2.51v-4H21.88c-3.44,0-5,1.52-5,4.42v3.1H14.47v3.93h2.41Z"/></g></g></svg>