<svg xmlns="http://www.w3.org/2000/svg" viewBox="0 0 204.75 204.75"><defs><style>.cls-1{fill:#c2e4ef;}.cls-2{fill:#d56b00;}.cls-3{fill:#f5ab09;}.cls-4{fill:#fff;}.cls-5{fill:#a21b00;}.cls-6{fill:#e03c00;}.cls-7{fill:#0b304f;}</style></defs><title>tainguyen9</title><g id="Layer_2" data-name="Layer 2"><g id="Layer_1-2" data-name="Layer 1"><circle class="cls-1" cx="102.37" cy="102.37" r="102.37"/><path class="cls-2" d="M51.52,47.34C45.34,47.34,40.7,52,40.7,59s5.83,11.62,10.82,11.62h15.4V47.34Z"/><path class="cls-3" d="M51.52,70.59c8.08,0,10.19-11.47,2.29-13.9H74.24v13.9Z"/><path class="cls-2" d="M152.8,137.56V61.92c0-10.28-5.67-14.58-14.2-14.58H51.09c8.63,0,12.37,4.18,12.37,10.15v80.07c0,11.84,9.95,19.85,18.47,19.85h80.81s2.84-.85.16-2.39A20.12,20.12,0,0,1,152.8,137.56Z"/><path class="cls-3" d="M81.93,156.53c-8.32,0-17.58-7.79-17.58-19V57.5c0-4.29-1.8-7.46-5.13-9.28H138.6c8.84,0,13.31,4.61,13.31,13.7v75.64a21.1,21.1,0,0,0,10.54,18.22,2.46,2.46,0,0,1,.65.48,2.17,2.17,0,0,1-.51.27Z"/><polygon class="cls-4" points="97.85 130.13 87.02 130.13 87.02 145.19 92.43 142.72 97.85 145.19 97.85 130.13"/><polygon class="cls-5" points="92.43 111.01 94.46 113.14 97.12 111.89 98.24 114.61 101.17 114.4 101.23 117.34 104.05 118.2 103.04 120.97 105.35 122.79 103.42 125 104.91 127.54 102.31 128.9 102.79 131.8 99.86 132.13 99.26 135.01 96.42 134.27 94.82 136.74 92.43 135.01 90.05 136.74 88.45 134.27 85.61 135.01 85 132.13 82.08 131.8 82.56 128.9 79.96 127.54 81.45 125 79.52 122.79 81.83 120.97 80.82 118.2 83.63 117.34 83.69 114.4 86.63 114.61 87.75 111.89 90.41 113.14 92.43 111.01"/><path class="cls-6" d="M101.47,123.88a9,9,0,1,1-9-9A9,9,0,0,1,101.47,123.88Z"/><path class="cls-5" d="M100.54,123.88a8.11,8.11,0,1,1-8.11-8.11A8.11,8.11,0,0,1,100.54,123.88Z"/><path class="cls-6" d="M96.79,122c-.85-1.83-2.53-1.33-3.94-1.22,0-.1.09-.19.13-.27a3.09,3.09,0,0,1,.57-.7c.09-.1.41-.18.41-.28s-.43-.26-.48-.2a4.31,4.31,0,0,0-.68,1c-.09.16-.17.34-.24.49h-.13c-1.48,0-3.41-.81-4.35,1.2a5.38,5.38,0,0,0,.51,5.08c1.1,1.95,2.45,2.11,2.74,2.11s.57-.14,1.1-.14.82.14,1.11.14,1.64-.16,2.74-2.11A5.38,5.38,0,0,0,96.79,122Z"/><path class="cls-6" d="M90.29,120.2c.85.57,2.12.75,2.43.29a1,1,0,0,0-.21-1.2,3,3,0,0,0-3.35-.43A3.82,3.82,0,0,0,90.29,120.2Z"/><polygon class="cls-7" points="144.35 130.33 127.77 123.79 133.28 138.01 136.57 135.73 142.87 142.02 147.85 140.73 140.28 133.16 144.35 130.33"/><rect class="cls-4" x="87.66" y="62.46" width="39.81" height="4.03"/><rect class="cls-4" x="74.32" y="75.73" width="66.49" height="4.03"/><rect class="cls-4" x="74.32" y="88.56" width="66.49" height="4.03"/><rect class="cls-4" x="74.32" y="101.39" width="66.49" height="4.03"/><rect class="cls-4" x="113.11" y="120.75" width="32.26" height="1.66"/></g></g></svg>