<svg xmlns="http://www.w3.org/2000/svg" viewBox="0 0 204.75 204.75"><defs><style>.cls-1{fill:#c2e4ef;}.cls-2{fill:#a3acb1;}.cls-3{fill:#0b304f;}.cls-4{fill:#f5ab09;}.cls-5{fill:#56afc9;}.cls-6{fill:#fff;}</style></defs><title>tainguyen1</title><g id="Layer_2" data-name="Layer 2"><g id="Layer_1-2" data-name="Layer 1"><circle class="cls-1" cx="102.37" cy="102.37" r="102.37"/><path class="cls-2" d="M102.83,44.78c-30.4,0-50.38,10.53-50.38,18.36V83.52c0,1.37,3.33,1.36,3.33-.26V62.75S68.36,50,102.83,50s47.05,12.73,47.05,12.73V83.26c0,1.62,3.33,1.63,3.33.26V63.14C153.21,55.31,133.23,44.78,102.83,44.78Z"/><rect class="cls-3" x="144.56" y="85.34" width="11.73" height="46.32" rx="1.14" transform="translate(300.86 217) rotate(180)"/><path class="cls-4" d="M170.67,108.5c0,17.26-14.37,21.2-14.37,21.2V87.29S170.67,91.24,170.67,108.5Z"/><rect class="cls-3" x="48.45" y="85.34" width="11.73" height="46.32" rx="1.14"/><path class="cls-4" d="M34.08,108.5c0,17.26,14.37,21.2,14.37,21.2V87.29S34.08,91.24,34.08,108.5Z"/><path class="cls-3" d="M76.1,134.05a13,13,0,1,0,0,25.92H140c-3.66-5.74-3.76-19.84,0-25.92Z"/><path class="cls-2" d="M76.1,158.36a11.35,11.35,0,1,1,0-22.7h61.36c-2.44,6.32-2.45,16.46,0,22.7Z"/><path class="cls-5" d="M76.1,62.64a13,13,0,0,0-13,13V147a13,13,0,0,1,13-13h65.52V62.64Z"/><rect class="cls-3" x="137.44" y="158.36" width="4.18" height="1.61"/><rect class="cls-3" x="137.44" y="134.05" width="4.18" height="1.61"/><path class="cls-6" d="M120,90.3c-3.8-8.18-11.64-4.89-17.64-4.89S88.54,82.12,84.74,90.3C81.63,97,82.93,104,86.82,110.86c4.45,7.9,9.92,8.51,11.09,8.51s2.32-.55,4.46-.55,3.29.55,4.47.55,6.64-.61,11.09-8.51C121.82,104,123.12,97,120,90.3Z"/><path class="cls-6" d="M102.37,86a41.21,41.21,0,0,1,1.95-4.44,19.67,19.67,0,0,1,2.76-3.93c.22-.23,2,.44,2,.83s-1.27.73-1.65,1.12a13.51,13.51,0,0,0-2.31,2.84c-.64,1.2-1.65,3.58-1.65,3.58a1.45,1.45,0,0,1-.56.28C102.63,86.31,102.37,86,102.37,86Z"/><path class="cls-6" d="M90.82,73.41a16,16,0,0,0,3.05,7.26c2.54,3.2,6.66,4.18,8.64,2.87a4,4,0,0,0,.67-4.89C101.28,75,95.05,72.09,90.82,73.41Z"/><path class="cls-5" d="M89.39,89.51C87,93,85.87,95.59,86,99.81c.13,4.75,2.51,10.91,4.84,10.29C94.14,109.21,85.81,102.76,89.39,89.51Z"/></g></g></svg>