<svg xmlns="http://www.w3.org/2000/svg" viewBox="0 0 205.48 205.14"><defs><style>.cls-1{fill:#c2e4ef;}.cls-2{font-size:22px;fill:#115e9c;font-family:Arial-BoldMT, Arial;font-weight:700;}.cls-3{fill:#f5ab09;}.cls-4{fill:#29aae3;}.cls-5{fill:#004d68;}.cls-6{fill:#0098c1;}.cls-7{fill:#2382a3;}.cls-8{fill:#7ccae5;}.cls-9{fill:#196c91;}.cls-10{fill:#3ac0ef;}.cls-11{fill:#aacdc1;}.cls-12{fill:#e0e0e0;}.cls-13{fill:#bcfaff;}.cls-14{fill:#edf3f7;}</style></defs><title>tainguyen12</title><g id="Layer_2" data-name="Layer 2"><g id="Layer_1-2" data-name="Layer 1"><circle class="cls-1" cx="102.73" cy="102.77" r="102.37"/><text class="cls-2" transform="translate(18.43 100.8) rotate(-82.91)">w</text><text class="cls-2" transform="translate(20.5 83.96) rotate(-71.3)">w</text><text class="cls-2" transform="matrix(0.51, -0.86, 0.86, 0.51, 25.95, 67.84)">w</text><text class="cls-2" transform="translate(34.49 53.86) rotate(-52.24)">.</text><text class="cls-2" transform="matrix(0.7, -0.71, 0.71, 0.7, 38.17, 48.77)">p</text><text class="cls-2" transform="translate(47.61 39.17) rotate(-36.38)">h</text><text class="cls-2" transform="translate(58.45 31.18) rotate(-27.21)">u</text><text class="cls-2" transform="matrix(0.95, -0.31, 0.31, 0.95, 70.41, 25.03)">o</text><text class="cls-2" transform="matrix(0.99, -0.15, 0.15, 0.99, 83.19, 20.88)">n</text><text class="cls-2" transform="matrix(1, 0.02, -0.02, 1, 96.46, 18.76)">g</text><text class="cls-2" transform="translate(109.95 18.91) rotate(9.43)">n</text><text class="cls-2" transform="translate(123.22 21.16) rotate(18.25)">a</text><text class="cls-2" transform="translate(134.93 24.65) rotate(29.1)">m</text><text class="cls-2" transform="translate(151.77 34.62) rotate(37.86)">.</text><text class="cls-2" transform="matrix(0.72, 0.7, -0.7, 0.72, 156.84, 38.36)">e</text><text class="cls-2" transform="translate(165.67 46.88) rotate(52.93)">d</text><text class="cls-2" transform="translate(173.78 57.62) rotate(62.1)">u</text><text class="cls-2" transform="translate(179.93 69.72) rotate(68.9)">.</text><text class="cls-2" transform="matrix(0.25, 0.97, -0.97, 0.25, 182.35, 75.53)">v</text><text class="cls-2" transform="translate(185.5 87.41) rotate(84.13)">n</text><path class="cls-3" d="M97.39,146.22h0c-1.22,0-2.45-.05-3.66-.14l.14-1.83c1.17.09,2.35.13,3.52.13Zm3.71-.15-.15-1.83c1.17-.09,2.37-.23,3.54-.42l.29,1.81C103.55,145.83,102.31,146,101.1,146.07ZM90,145.65c-1.23-.19-2.45-.43-3.64-.71l.42-1.79c1.15.27,2.32.5,3.5.69Zm18.42-.74-.43-1.78c1.16-.28,2.31-.61,3.43-1l.57,1.74C110.82,144.28,109.62,144.62,108.42,144.91Zm-25.64-1c-1.16-.38-2.34-.81-3.48-1.28L80,141c1.1.45,2.23.86,3.35,1.23Zm32.68-1.32-.7-1.7c1.09-.45,2.18-.95,3.23-1.49l.84,1.63C117.73,141.62,116.6,142.15,115.46,142.62ZM75.93,141.1c-1.1-.56-2.19-1.16-3.24-1.81l1-1.57c1,.62,2.06,1.21,3.11,1.75Zm46.13-1.85-1-1.57c1-.61,2-1.28,3-2l1.08,1.48C124.14,137.91,123.1,138.6,122.06,139.25Zm-52.46-2c-1-.73-2-1.5-2.91-2.29l1.19-1.4c.89.77,1.84,1.51,2.8,2.21Zm58.45-2.35-1.19-1.39c.89-.77,1.77-1.59,2.61-2.43l1.3,1.3C129.9,133.24,129,134.08,128.05,134.88ZM64,132.42c-.87-.86-1.72-1.78-2.52-2.72l1.39-1.19c.78.9,1.59,1.78,2.42,2.61Zm69.33-2.78-1.39-1.19c.77-.91,1.52-1.85,2.21-2.81l1.48,1.08C134.87,127.71,134.1,128.69,133.29,129.64Zm-74.16-2.85c-.72-1-1.42-2-2.06-3.08l1.56-1c.62,1,1.29,2,2,3Zm78.52-3.15-1.56-1c.62-1,1.21-2.06,1.74-3.11l1.64.83C138.91,121.49,138.3,122.59,137.65,123.64Zm-82.41-3.16c-.55-1.09-1.08-2.22-1.56-3.36l1.7-.71c.46,1.1,1,2.19,1.5,3.24ZM141,117l-1.7-.7c.46-1.1.87-2.23,1.23-3.35l1.75.57C141.93,114.71,141.5,115.88,141,117Zm-88.64-3.38c-.38-1.17-.72-2.37-1-3.57l1.79-.44c.28,1.16.6,2.32,1,3.44ZM143.31,110l-1.78-.42c.27-1.15.51-2.33.69-3.5l1.81.29C143.84,107.56,143.6,108.78,143.31,110Zm-92.65-3.53c-.2-1.21-.34-2.45-.44-3.68l1.83-.15c.09,1.19.23,2.38.42,3.54Zm93.81-3.79-1.84-.14c.1-1.18.14-2.38.14-3.56v-.2h1.84V99C144.61,100.17,144.56,101.42,144.47,102.65Zm-94.4-3.6V99c0-1.21,0-2.42.13-3.61l1.83.14c-.09,1.14-.13,2.31-.13,3.47Zm92.55-3.86c-.1-1.18-.24-2.37-.43-3.54l1.81-.29c.2,1.21.35,2.45.45,3.68ZM52.44,91.94l-1.82-.28c.19-1.21.43-2.43.72-3.64l1.78.42C52.85,89.6,52.62,90.78,52.44,91.94Zm89-3.79c-.28-1.14-.61-2.29-1-3.42l1.74-.58c.39,1.18.73,2.38,1,3.57ZM54.08,85l-1.75-.56c.38-1.18.81-2.35,1.28-3.49l1.69.7C54.86,82.75,54.44,83.88,54.08,85Zm85.17-3.62c-.45-1.09-1-2.17-1.5-3.23l1.63-.84c.57,1.1,1.09,2.23,1.57,3.36Zm-82.46-3-1.63-.83c.56-1.11,1.17-2.2,1.81-3.24l1.56,1C57.92,76.3,57.34,77.35,56.79,78.41ZM136,75.06c-.63-1-1.3-2-2-3L135.48,71c.72,1,1.42,2,2.07,3.07ZM60.51,72.33,59,71.25c.72-1,1.49-2,2.29-2.91l1.4,1.19C61.94,70.44,61.2,71.38,60.51,72.33Zm71.27-3c-.78-.9-1.6-1.78-2.43-2.61l1.29-1.3c.86.86,1.72,1.77,2.53,2.71ZM65.13,66.9l-1.3-1.29c.87-.88,1.78-1.73,2.72-2.53l1.19,1.39C66.85,65.24,66,66.06,65.13,66.9Zm61.59-2.61c-.9-.76-1.84-1.5-2.81-2.2L125,60.6c1,.73,2,1.5,2.92,2.29Zm-56.19-2-1.08-1.48c1-.74,2-1.44,3.08-2.08l1,1.57C72.49,60.88,71.5,61.55,70.53,62.26Zm50.41-2.14c-1-.62-2.06-1.21-3.11-1.74l.82-1.64c1.1.56,2.19,1.17,3.25,1.81ZM76.59,58.51l-.84-1.63c1.1-.56,2.23-1.09,3.37-1.56l.7,1.69C78.73,57.47,77.64,58,76.59,58.51Zm38-1.61c-1.09-.45-2.22-.86-3.35-1.22l.56-1.75c1.18.38,2.35.8,3.49,1.27ZM83.16,55.76,82.59,54c1.17-.38,2.37-.73,3.57-1l.43,1.79C85.44,55.07,84.29,55.4,83.16,55.76Zm24.63-1c-1.14-.27-2.32-.5-3.5-.68l.28-1.81c1.22.19,2.45.42,3.65.7Zm-17.71-.63-.29-1.82c1.22-.19,2.46-.34,3.69-.44l.14,1.83C92.44,53.76,91.25,53.9,90.08,54.09Zm10.67-.45c-1.13-.09-2.29-.13-3.41-.13l-.15-1.83h.15c1.17,0,2.37,0,3.55.13Z"/><path class="cls-4" d="M96.85,88.79A29.23,29.23,0,1,1,67.63,59.56,29.23,29.23,0,0,1,96.85,88.79Z"/><path class="cls-5" d="M67.63,118.89a30.1,30.1,0,1,1,30.1-30.1A30.14,30.14,0,0,1,67.63,118.89Zm0-58.46A28.36,28.36,0,1,0,96,88.79,28.39,28.39,0,0,0,67.63,60.43Z"/><path class="cls-6" d="M67.63,59.56a29.23,29.23,0,0,1,0,58.46Z"/><path class="cls-5" d="M67.63,118.89a.87.87,0,1,1,0-1.74,28.36,28.36,0,0,0,0-56.72.87.87,0,1,1,0-1.74,30.1,30.1,0,1,1,0,60.2Z"/><ellipse class="cls-4" cx="67.63" cy="88.79" rx="16.12" ry="29.12"/><path class="cls-5" d="M67.63,118.78c-9.37,0-17-13.46-17-30s7.62-30,17-30,17,13.45,17,30S77,118.78,67.63,118.78Zm0-58.25c-8.41,0-15.25,12.68-15.25,28.26S59.22,117,67.63,117s15.24-12.68,15.24-28.25S76,60.53,67.63,60.53Z"/><path class="cls-6" d="M67.63,59.67c8.9,0,16.11,13,16.11,29.12s-7.21,29.12-16.11,29.12Z"/><path class="cls-5" d="M67.63,118.78a.87.87,0,1,1,0-1.74c8.4,0,15.24-12.68,15.24-28.25S76,60.53,67.63,60.53a.87.87,0,1,1,0-1.73c9.36,0,17,13.45,17,30S77,118.78,67.63,118.78Z"/><path class="cls-4" d="M38.4,88.79h0Z"/><path class="cls-5" d="M96.85,89.66H38.4a.87.87,0,1,1,0-1.74H96.85a.87.87,0,1,1,0,1.74Z"/><path class="cls-4" d="M43.47,72.33h0Z"/><path class="cls-5" d="M91.79,73.2H43.47a.87.87,0,0,1,0-1.74H91.79a.87.87,0,1,1,0,1.74Z"/><path class="cls-4" d="M43.47,105h0Z"/><path class="cls-5" d="M91.79,105.86H43.47a.87.87,0,1,1,0-1.74H91.79a.87.87,0,0,1,0,1.74Z"/><path class="cls-4" d="M67.63,59.56v0Z"/><path class="cls-5" d="M67.63,118.89a.87.87,0,0,1-.88-.87V59.56a.88.88,0,0,1,1.75,0V118A.87.87,0,0,1,67.63,118.89Z"/><rect class="cls-7" x="66.64" y="100.48" width="67.71" height="42.77"/><rect class="cls-8" x="70.8" y="104.64" width="59.39" height="34.46"/><polygon class="cls-9" points="146.36 157.21 54.63 157.21 66.64 143.26 134.35 143.26 146.36 157.21"/><polygon class="cls-5" points="132.88 145.38 68.1 145.38 65.35 150.24 135.64 150.24 132.88 145.38"/><polygon class="cls-5" points="94.32 151.81 93.79 155.09 107.2 155.09 106.67 151.81 94.32 151.81"/><rect class="cls-9" x="104.75" y="75.48" width="30.63" height="41.36"/><rect class="cls-10" x="107.43" y="77.17" width="27.96" height="38.1"/><rect class="cls-5" x="135.39" y="75.48" width="30.63" height="41.36"/><rect class="cls-4" x="135.39" y="77.17" width="27.96" height="38.1"/><path class="cls-11" d="M135.39,113c8-4.72,16.63.07,24.62,0V74.89c-8,.07-16.64-4.72-24.62,0Z"/><path class="cls-12" d="M135.39,113c8-4.72,16.63.07,24.62,0V74.89c-8,.07-16.64-4.72-24.62,0Z"/><path class="cls-5" d="M138,115.28h-5.46v0a2.26,2.26,0,0,1,2.26-2.26h.93a2.27,2.27,0,0,1,2.27,2.26Z"/><rect class="cls-9" x="132.58" y="115.17" width="5.46" height="1.66"/><polygon class="cls-7" points="163.35 115.21 160.01 112.99 160.01 74.89 163.35 77.11 163.35 115.21"/><polygon class="cls-13" points="107.43 115.21 110.77 112.99 110.77 74.89 107.43 77.11 107.43 115.21"/><path class="cls-14" d="M135.39,113c-8-4.72-16.64.07-24.62,0V74.89c8,.07,16.63-4.72,24.62,0Z"/><path class="cls-9" d="M113.6,110.43l-.09-.78c1.56-.18,3.17-.49,4.87-.81a48.25,48.25,0,0,1,8.91-1.11,20.34,20.34,0,0,1,5.41.69l-.21.76a19.18,19.18,0,0,0-5.2-.67,47,47,0,0,0-8.76,1.1C116.81,109.93,115.19,110.24,113.6,110.43Z"/><path class="cls-9" d="M113.6,107.72l-.09-.78c1.6-.18,3.23-.49,5-.82a47.49,47.49,0,0,1,8.82-1.1,19.57,19.57,0,0,1,5.42.72l-.22.75a18.74,18.74,0,0,0-5.2-.69,46.32,46.32,0,0,0-8.67,1.09C116.87,107.22,115.22,107.53,113.6,107.72Z"/><path class="cls-9" d="M113.6,105l-.09-.78c1.64-.18,3.3-.49,5-.83a47.59,47.59,0,0,1,8.73-1.09,18.74,18.74,0,0,1,5.42.75l-.22.75a18,18,0,0,0-5.2-.72,46.3,46.3,0,0,0-8.58,1.08C117,104.49,115.27,104.82,113.6,105Z"/><path class="cls-9" d="M113.6,102.3l-.09-.77c1.66-.19,3.34-.5,5.11-.84a46.63,46.63,0,0,1,8.67-1.09,17.77,17.77,0,0,1,5.43.78l-.24.74a17.09,17.09,0,0,0-5.19-.74,45.76,45.76,0,0,0-8.5,1.07C117,101.8,115.29,102.12,113.6,102.3Z"/><path class="cls-9" d="M113.6,99.59l-.09-.77c1.7-.19,3.41-.51,5.21-.85a46.51,46.51,0,0,1,8.57-1.08,17.33,17.33,0,0,1,5.43.8l-.24.75a16.43,16.43,0,0,0-5.19-.77,45.86,45.86,0,0,0-8.41,1.06C117.13,99.07,115.33,99.41,113.6,99.59Z"/><path class="cls-9" d="M113.6,96.88l-.08-.77c1.73-.19,3.54-.53,5.29-.86a45.76,45.76,0,0,1,8.48-1.07,16.78,16.78,0,0,1,5.44.83l-.26.74a16,16,0,0,0-5.18-.79A45.1,45.1,0,0,0,119,96C117.19,96.35,115.36,96.7,113.6,96.88Z"/><path class="cls-9" d="M113.6,94.18l-.08-.78c1.77-.19,3.61-.53,5.38-.87a45.75,45.75,0,0,1,8.39-1.06,16.17,16.17,0,0,1,5.44.86l-.26.73a15.43,15.43,0,0,0-5.18-.81,44.47,44.47,0,0,0-8.23,1C117.26,93.64,115.4,94,113.6,94.18Z"/><path class="cls-9" d="M113.6,91.47l-.08-.78c1.8-.18,3.66-.54,5.45-.88a45.21,45.21,0,0,1,8.32-1,15.84,15.84,0,0,1,5.44.88l-.26.74a14.86,14.86,0,0,0-5.18-.84,44.13,44.13,0,0,0-8.14,1C117.31,90.92,115.43,91.28,113.6,91.47Z"/><path class="cls-9" d="M113.59,88.76l-.07-.78c1.84-.18,3.73-.54,5.55-.89a44.14,44.14,0,0,1,8.22-1,15.39,15.39,0,0,1,5.45.91l-.28.73a14.53,14.53,0,0,0-5.17-.86,43.62,43.62,0,0,0-8.06,1C117.38,88.21,115.47,88.57,113.59,88.76Z"/><path class="cls-9" d="M113.59,86.05l-.07-.77c1.88-.19,3.79-.56,5.65-.91a44.13,44.13,0,0,1,8.12-1,14.67,14.67,0,0,1,5.45.94l-.28.73a14,14,0,0,0-5.17-.89,42.87,42.87,0,0,0-8,1C117.44,85.49,115.51,85.86,113.59,86.05Z"/><path class="cls-9" d="M113.59,83.35l-.07-.78c1.92-.19,3.86-.56,5.74-.92a43.31,43.31,0,0,1,8-1,14.23,14.23,0,0,1,5.45,1l-.29.72a13.53,13.53,0,0,0-5.16-.91,43,43,0,0,0-7.88,1C117.51,82.78,115.55,83.15,113.59,83.35Z"/><path class="cls-9" d="M113.59,80.64l-.07-.78c2-.19,3.92-.56,5.82-.92a42.77,42.77,0,0,1,8-1,14,14,0,0,1,5.46,1l-.3.72a13.27,13.27,0,0,0-5.16-.93,42.32,42.32,0,0,0-7.8,1C117.57,80.07,115.58,80.44,113.59,80.64Z"/><path class="cls-9" d="M113.59,77.93l-.07-.78c2-.19,4-.57,5.91-.93a42.92,42.92,0,0,1,7.86-1,13.63,13.63,0,0,1,5.46,1l-.3.72a12.87,12.87,0,0,0-5.16-1,42.43,42.43,0,0,0-7.71,1C117.63,77.35,115.62,77.73,113.59,77.93Z"/><path class="cls-9" d="M157.17,110.43c-1.58-.19-3.21-.5-4.93-.82a47,47,0,0,0-8.76-1.1,19.23,19.23,0,0,0-5.2.67l-.21-.76a20.4,20.4,0,0,1,5.41-.69,48,48,0,0,1,8.9,1.11c1.71.32,3.32.63,4.88.81Z"/><path class="cls-9" d="M157.18,107.72c-1.63-.19-3.27-.5-5-.83a46.53,46.53,0,0,0-8.69-1.09,18.79,18.79,0,0,0-5.2.69l-.21-.75a19.55,19.55,0,0,1,5.41-.72,47.39,47.39,0,0,1,8.82,1.1c1.74.33,3.37.64,5,.82Z"/><path class="cls-9" d="M157.18,105c-1.67-.19-3.34-.5-5.11-.84a46.51,46.51,0,0,0-8.59-1.08,17.84,17.84,0,0,0-5.19.72l-.23-.75a18.79,18.79,0,0,1,5.42-.75,47.48,47.48,0,0,1,8.73,1.09c1.76.34,3.42.65,5,.83Z"/><path class="cls-9" d="M157.18,102.3c-1.69-.18-3.38-.5-5.17-.84a45.46,45.46,0,0,0-8.53-1.08,17.13,17.13,0,0,0-5.19.74l-.23-.74a17.66,17.66,0,0,1,5.42-.78,46.94,46.94,0,0,1,8.65,1.08c1.79.35,3.47.66,5.13.85Z"/><path class="cls-9" d="M157.18,99.59c-1.73-.18-3.53-.52-5.27-.86a46.18,46.18,0,0,0-8.43-1.06,16.48,16.48,0,0,0-5.19.77l-.24-.75a17.42,17.42,0,0,1,5.43-.8A46.19,46.19,0,0,1,152,98c1.82.34,3.52.66,5.22.85Z"/><path class="cls-9" d="M157.18,96.88c-1.77-.18-3.59-.53-5.35-.86A44.8,44.8,0,0,0,143.48,95a16,16,0,0,0-5.18.79l-.25-.74a16.76,16.76,0,0,1,5.43-.83A45.33,45.33,0,0,1,152,95.25c1.85.35,3.58.67,5.31.86Z"/><path class="cls-9" d="M157.18,94.18c-1.81-.19-3.66-.54-5.45-.88a44.68,44.68,0,0,0-8.25-1,15.47,15.47,0,0,0-5.18.81l-.25-.73a16.15,16.15,0,0,1,5.43-.86,45.75,45.75,0,0,1,8.39,1.06c1.78.34,3.62.68,5.39.87Z"/><path class="cls-9" d="M157.18,91.47c-1.84-.19-3.72-.55-5.53-.89a43.84,43.84,0,0,0-8.17-1,14.84,14.84,0,0,0-5.17.84l-.27-.74a15.92,15.92,0,0,1,5.44-.88,44.68,44.68,0,0,1,8.3,1c1.81.34,3.67.7,5.48.88Z"/><path class="cls-9" d="M157.18,88.76c-1.88-.19-3.78-.55-5.62-.9a43.93,43.93,0,0,0-8.08-1,14.53,14.53,0,0,0-5.17.86L138,87a15.15,15.15,0,0,1,5.44-.91,43.93,43.93,0,0,1,8.21,1c1.84.35,3.73.71,5.57.89Z"/><path class="cls-9" d="M157.18,86.05c-1.91-.19-3.84-.56-5.71-.91a43.18,43.18,0,0,0-8-1,14,14,0,0,0-5.16.89l-.29-.73a14.74,14.74,0,0,1,5.45-.94,44.13,44.13,0,0,1,8.13,1c1.86.35,3.77.72,5.65.91Z"/><path class="cls-9" d="M157.18,83.35c-2-.2-3.91-.57-5.81-.93a43.07,43.07,0,0,0-7.89-1,13.53,13.53,0,0,0-5.16.91L138,81.6a14.27,14.27,0,0,1,5.45-1,43.31,43.31,0,0,1,8,1c1.89.36,3.83.73,5.75.92Z"/><path class="cls-9" d="M157.18,80.64c-2-.2-4-.57-5.89-.94a42.42,42.42,0,0,0-7.81-1,13.25,13.25,0,0,0-5.15.93l-.3-.72a14,14,0,0,1,5.45-1,43.48,43.48,0,0,1,8,1c1.91.37,3.87.74,5.83.93Z"/><path class="cls-9" d="M157.18,77.93c-2-.2-4-.58-6-1a42.53,42.53,0,0,0-7.72-1,12.86,12.86,0,0,0-5.15,1l-.31-.72a13.67,13.67,0,0,1,5.46-1,43,43,0,0,1,7.87,1c1.93.36,3.92.74,5.91.93Z"/></g></g></svg>