<svg xmlns="http://www.w3.org/2000/svg" viewBox="0 0 204.75 204.75"><defs><style>.cls-1{fill:#c2e4ef;}.cls-2{fill:#0b304f;}.cls-3{fill:#a3acb1;}.cls-4{fill:#56afc9;}.cls-5{fill:#fff;}</style></defs><title>tainguyen3</title><g id="Layer_2" data-name="Layer 2"><g id="Layer_1-2" data-name="Layer 1"><circle class="cls-1" cx="102.37" cy="102.37" r="102.37"/><path class="cls-2" d="M70.07,130.33a15.94,15.94,0,1,0,0,31.87h78.59c-4.49-7.06-4.62-24.4,0-31.87Z"/><path class="cls-3" d="M70.07,160.22a14,14,0,1,1,0-27.91H145.5c-3,7.78-3,20.23,0,27.91Z"/><path class="cls-4" d="M70.07,42.55A15.94,15.94,0,0,0,54.13,58.48v87.79a15.94,15.94,0,0,1,15.94-15.94h80.55V42.55Z"/><rect class="cls-2" x="145.48" y="160.22" width="5.14" height="1.98"/><rect class="cls-2" x="145.48" y="130.33" width="5.14" height="1.98"/><path class="cls-5" d="M106,57a29.56,29.56,0,1,0,29.56,29.56A29.57,29.57,0,0,0,106,57Zm28,28.79h-6.5a33.79,33.79,0,0,0-4.39-16.94c1.24-.4,2.39-.83,3.48-1.25A27.94,27.94,0,0,1,134,85.75ZM114.76,59.92a28,28,0,0,1,10.64,6.43c-1,.38-2.05.75-3.16,1.1A28.29,28.29,0,0,0,114.76,59.92Zm11.17,25.83H115.52a55.33,55.33,0,0,0-2.3-14.65,59.16,59.16,0,0,0,8.42-1.85C124.07,73.29,125.81,78.66,125.93,85.75Zm-5.16-17.86a56,56,0,0,1-8,1.71,61.62,61.62,0,0,0-4.72-11c.6,0,1.19.11,1.78.19A26.37,26.37,0,0,1,120.77,67.89ZM114,85.75H98a53.79,53.79,0,0,1,2.3-14.45,49,49,0,0,0,11.36,0A53.79,53.79,0,0,1,114,85.75ZM99.21,69.6a56.13,56.13,0,0,1-8-1.71,26.45,26.45,0,0,1,11-9.1c.59-.08,1.18-.15,1.78-.19A61.62,61.62,0,0,0,99.21,69.6Zm-9.47-2.15c-1.12-.35-2.16-.72-3.16-1.1a28,28,0,0,1,10.64-6.43A28.29,28.29,0,0,0,89.74,67.45Zm.6,1.8a59.16,59.16,0,0,0,8.42,1.85,55.33,55.33,0,0,0-2.3,14.65H86.05C86.17,78.66,87.91,73.29,90.34,69.25Zm6.12,18A55.46,55.46,0,0,0,98.76,102a58,58,0,0,0-8.55,1.88c-2.36-4-4-9.4-4.16-16.53Zm-.2,25.47a28,28,0,0,1-9.68-6.08c.92-.35,1.89-.7,2.92-1A26.79,26.79,0,0,0,96.26,112.77Zm-5.2-7.58a56.55,56.55,0,0,1,8.14-1.75,62.25,62.25,0,0,0,4.73,11c-.73,0-1.45-.14-2.16-.25A25.35,25.35,0,0,1,91.06,105.19ZM98,87.3h16a53.72,53.72,0,0,1-2.3,14.44,49.13,49.13,0,0,0-11.37,0A54.13,54.13,0,0,1,98,87.3Zm14.76,16.14a57.19,57.19,0,0,1,8.23,1.78,24.65,24.65,0,0,1-10.57,8.94c-.78.13-1.57.22-2.38.28A61.62,61.62,0,0,0,112.77,103.44Zm9.7,2.22c1,.33,2,.68,2.93,1a28.11,28.11,0,0,1-9.68,6.08A26.61,26.61,0,0,0,122.47,105.66Zm-.63-1.8a57.09,57.09,0,0,0-8.62-1.91,55.46,55.46,0,0,0,2.3-14.65h10.41C125.82,94.45,124.17,99.83,121.84,103.86ZM106,58.5h.24a60,60,0,0,1,5,11.28,45.56,45.56,0,0,1-10.44,0,60,60,0,0,1,5-11.28ZM85.41,67.56c1.09.42,2.24.85,3.48,1.25A33.79,33.79,0,0,0,84.5,85.75H78A27.94,27.94,0,0,1,85.41,67.56ZM78,87.3h6.5a35,35,0,0,0,4.18,17c-1.15.39-2.24.78-3.27,1.19A27.94,27.94,0,0,1,78,87.3Zm27.75,27.23a59.66,59.66,0,0,1-5-11.28,47.12,47.12,0,0,1,10.44,0,60,60,0,0,1-5,11.28l-.24,0Zm20.81-9c-1-.41-2.11-.81-3.27-1.19,2.39-4.2,4.08-9.74,4.19-17H134A27.9,27.9,0,0,1,126.56,105.49Z"/></g></g></svg>