<svg xmlns="http://www.w3.org/2000/svg" viewBox="0 0 204.75 204.75"><defs><style>.cls-1{fill:#c2e4ef;}.cls-2{fill:#0b304f;}.cls-3{fill:#9ee3f2;}.cls-4{fill:#56afc9;}.cls-5{fill:#ced7dc;}.cls-6{fill:#313131;}.cls-7{fill:#f5ab09;}.cls-8{fill:#f0beb4;}.cls-9{fill:#754c24;}</style></defs><title>tainguyen8</title><g id="Layer_2" data-name="Layer 2"><g id="Layer_1-2" data-name="Layer 1"><circle class="cls-1" cx="102.37" cy="102.37" r="102.37"/><path class="cls-2" d="M173.28,151.49H38.59c-2.2,0-4.26-.4-4.26-2.6V145h143v4.27C177.32,151.47,175.48,151.49,173.28,151.49Z"/><path class="cls-2" d="M52.5,53.26H159.15a1,1,0,0,1,1,1v73.44a0,0,0,0,1,0,0H51.46a0,0,0,0,1,0,0V54.3A1,1,0,0,1,52.5,53.26Z"/><rect class="cls-3" x="73.21" y="41.21" width="65.22" height="98.59" transform="translate(196.33 -15.33) rotate(90)"/><polygon class="cls-4" points="56.53 123.11 155.12 57.89 155.12 123.11 56.53 123.11"/><path class="cls-5" d="M51.5,127.74,34.65,144.2c-1,1.38.51,2.53,3.46,2.53H173.54c3,0,4.49-1.15,3.47-2.53l-16.85-16.46Z"/><path class="cls-2" d="M126.16,143.51c0,.06-.18.12-.46.12H79.18c-.27,0-.48-.06-.45-.12l2.73-5.86c0-.05.25-.09.49-.09h41c.25,0,.48,0,.5.09Z"/><polygon class="cls-2" points="59.97 130.02 53.04 130.02 53.96 129.32 60.76 129.32 59.97 130.02"/><polygon class="cls-2" points="74.13 130.02 67.2 130.02 67.86 129.32 74.66 129.32 74.13 130.02"/><polygon class="cls-2" points="82.63 130.02 75.7 130.02 76.2 129.32 83 129.32 82.63 130.02"/><polygon class="cls-2" points="91.13 130.02 84.2 130.02 84.54 129.32 91.34 129.32 91.13 130.02"/><polygon class="cls-2" points="99.63 130.02 92.7 130.02 92.88 129.32 99.68 129.32 99.63 130.02"/><polygon class="cls-2" points="108.13 130.02 101.2 130.02 101.22 129.32 108.02 129.32 108.13 130.02"/><polygon class="cls-2" points="116.63 130.02 109.7 130.02 109.56 129.32 116.36 129.32 116.63 130.02"/><polygon class="cls-2" points="125.13 130.02 118.2 130.02 117.9 129.32 124.7 129.32 125.13 130.02"/><polygon class="cls-2" points="73.17 131.28 66.01 131.28 66.71 130.54 73.73 130.54 73.17 131.28"/><polygon class="cls-2" points="81.96 131.28 74.8 131.28 75.33 130.54 82.35 130.54 81.96 131.28"/><polygon class="cls-2" points="90.75 131.28 83.58 131.28 83.95 130.54 90.97 130.54 90.75 131.28"/><polygon class="cls-2" points="99.53 131.28 92.37 131.28 92.56 130.54 99.59 130.54 99.53 131.28"/><polygon class="cls-2" points="108.32 131.28 101.16 131.28 101.18 130.54 108.21 130.54 108.32 131.28"/><polygon class="cls-2" points="119.97 131.28 109.94 131.28 109.8 130.54 119.64 130.54 119.97 131.28"/><polygon class="cls-2" points="126.34 132.02 119.04 132.02 118.42 130.54 125.44 130.54 126.34 132.02"/><polygon class="cls-2" points="72.14 132.64 64.73 132.64 65.48 131.85 72.75 131.85 72.14 132.64"/><polygon class="cls-2" points="81.24 132.64 73.83 132.64 74.39 131.85 81.66 131.85 81.24 132.64"/><polygon class="cls-2" points="90.34 132.64 82.92 132.64 83.31 131.85 90.58 131.85 90.34 132.64"/><polygon class="cls-2" points="99.43 132.64 92.02 132.64 92.22 131.85 99.49 131.85 99.43 132.64"/><polygon class="cls-2" points="108.53 132.64 101.11 132.64 101.14 131.85 108.41 131.85 108.53 132.64"/><polygon class="cls-2" points="117.62 132.64 110.21 132.64 110.05 131.85 117.32 131.85 117.62 132.64"/><polygon class="cls-2" points="126.72 132.64 119.3 132.64 118.97 131.85 126.23 131.85 126.72 132.64"/><polygon class="cls-2" points="71.04 134.1 63.36 134.1 64.17 133.24 71.69 133.24 71.04 134.1"/><polygon class="cls-2" points="80.47 134.1 72.78 134.1 73.4 133.24 80.92 133.24 80.47 134.1"/><polygon class="cls-2" points="89.9 134.1 82.21 134.1 82.63 133.24 90.16 133.24 89.9 134.1"/><polygon class="cls-2" points="99.32 134.1 91.64 134.1 91.86 133.24 99.39 133.24 99.32 134.1"/><polygon class="cls-2" points="108.75 134.1 101.06 134.1 101.09 133.24 108.62 133.24 108.75 134.1"/><polygon class="cls-2" points="118.17 134.1 110.49 134.1 110.32 133.24 117.85 133.24 118.17 134.1"/><polygon class="cls-2" points="127.6 134.1 119.92 134.1 119.56 133.24 127.08 133.24 127.6 134.1"/><polygon class="cls-2" points="139.1 130.02 132.18 130.02 131.62 129.32 138.42 129.32 139.1 130.02"/><polygon class="cls-2" points="147.6 130.02 140.68 130.02 139.96 129.32 146.76 129.32 147.6 130.02"/><polygon class="cls-2" points="156.1 130.02 149.17 130.02 148.3 129.32 155.1 129.32 156.1 130.02"/><polygon class="cls-2" points="140.35 131.28 133.18 131.28 132.59 130.54 139.62 130.54 140.35 131.28"/><polygon class="cls-2" points="149.13 131.28 141.97 131.28 141.21 130.54 148.24 130.54 149.13 131.28"/><polygon class="cls-2" points="157.92 131.28 150.76 131.28 149.83 130.54 156.85 130.54 157.92 131.28"/><polygon class="cls-2" points="141.35 132.31 134 132.31 133.38 131.53 140.59 131.53 141.35 132.31"/><polygon class="cls-2" points="150.37 132.31 143.02 132.31 142.22 131.53 149.43 131.53 150.37 132.31"/><polygon class="cls-2" points="159.39 132.31 152.04 132.31 151.06 131.53 158.27 131.53 159.39 132.31"/><polygon class="cls-2" points="154.13 135.42 146.2 135.42 145.27 134.51 153.03 134.51 154.13 135.42"/><polygon class="cls-2" points="145.64 136.69 137.47 136.69 136.71 135.72 144.69 135.72 145.64 136.69"/><polygon class="cls-2" points="112.96 136.37 69.2 136.37 70.27 134.96 112.63 134.96 112.96 136.37"/><polygon class="cls-2" points="128.98 136.37 115.76 136.37 115.33 134.96 128.13 134.96 128.98 136.37"/><polygon class="cls-2" points="65.97 136.37 52.75 136.37 54.35 134.96 67.14 134.96 65.97 136.37"/><polygon class="cls-2" points="155.65 136.69 147.49 136.69 146.5 135.72 154.49 135.72 155.65 136.69"/><polygon class="cls-2" points="165.66 136.69 157.5 136.69 156.3 135.72 164.28 135.72 165.66 136.69"/><circle class="cls-6" cx="105.93" cy="55.58" r="1.44"/><path class="cls-7" d="M105.84,59.64c-9,0-14.88,3.11-14.88,5.43v6c0,.4,1,.4,1-.08V65s3.72-3.76,13.9-3.76S119.74,65,119.74,65V71c0,.48,1,.48,1,.08v-6C120.72,62.75,114.82,59.64,105.84,59.64Z"/><path class="cls-8" d="M107.32,89.26h-3.26c-.48,2-1.59,3.16-3.24,5.4,0,2.14,3.6,3.21,4.87,3.2s4.9-1.19,4.9-3.22C108.94,92.4,107.8,91.24,107.32,89.26Z"/><path class="cls-9" d="M105.71,64.45c-7.26-3.24-16.15,6.76-12.53,11.13,0,0,5.79.41,12.53.41s12.52-.41,12.52-.41C122.5,72,113.25,61.37,105.71,64.45Z"/><path class="cls-8" d="M118.43,78.34c0,6.46-5.7,11.69-12.73,11.69S93,84.8,93,78.34s5.7-11.68,12.72-11.68S118.43,71.89,118.43,78.34Z"/><path class="cls-8" d="M95.22,78.28a2,2,0,1,1-2-2.29A2.16,2.16,0,0,1,95.22,78.28Z"/><path class="cls-8" d="M116.19,78.28a2,2,0,1,0,2-2.29A2.16,2.16,0,0,0,116.19,78.28Z"/><path class="cls-8" d="M86.79,119.39c0,2.42.62,3.71,1.89,3.72s1.83-1.69,1.89-3.72Z"/><path class="cls-8" d="M125.24,119.39c0,2.42-.61,3.71-1.89,3.72s-1.83-1.69-1.89-3.72Z"/><path class="cls-2" d="M111.22,94.66a7.07,7.07,0,0,1-10.4,0c-12,3.88-14.91,12.53-14.91,24.73h5.65c0-11.17,1.69-11.67,2.21-11.83v15.55h24.49V107.56c.52.16,2.22.66,2.22,11.83h5.64C126.12,107.19,123.26,98.54,111.22,94.66Z"/><rect class="cls-2" x="118.17" y="71.62" width="3.47" height="13.68" rx="0.34" transform="translate(239.8 156.93) rotate(180)"/><path class="cls-7" d="M125.88,78.47a6.25,6.25,0,0,1-4.25,6.26V72.2A6.26,6.26,0,0,1,125.88,78.47Z"/><rect class="cls-2" x="89.78" y="71.62" width="3.47" height="13.68" rx="0.34"/><path class="cls-7" d="M85.53,78.47a6.25,6.25,0,0,0,4.25,6.26V72.2A6.26,6.26,0,0,0,85.53,78.47Z"/></g></g></svg>