<svg xmlns="http://www.w3.org/2000/svg" viewBox="0 0 204.75 204.75"><defs><style>.cls-1{fill:#c2e4ef;}.cls-2{fill:#f5ab09;}.cls-3{fill:#004d68;}.cls-4{fill:#29aae3;}.cls-5{fill:#f9c478;}.cls-6{fill:#fbb242;}.cls-7{fill:#bcfaff;}.cls-8{fill:#9b5107;}.cls-9{fill:#db3923;}.cls-10{fill:#ef503f;}.cls-11{fill:#3ac0ef;}.cls-12{fill:#2a5973;}.cls-13{fill:#196c91;}</style></defs><title>tainguyen11</title><g id="Layer_2" data-name="Layer 2"><g id="Layer_1-2" data-name="Layer 1"><circle class="cls-1" cx="102.37" cy="102.37" r="102.37"/><path class="cls-2" d="M163.17,86.17c1.06.81,2.13,1.67,3.21,2.56.53.45,1.1.9,1.62,1.37l1.5,1.47-2.68.59.09.44c0,.19.1.44.15.72.14.7.36,1.48.47,2.39a63.37,63.37,0,0,1,.54,15,61.51,61.51,0,0,1-19.85,40.16,63,63,0,0,1-20.94,12.68,64.11,64.11,0,0,1-21.1,3.83,66.64,66.64,0,0,1-15.12-1.71c-1.79-.4-3.16-.89-4.11-1.14l-1.45-.43,1.24-3.59,1.36.39c.9.24,2.18.69,3.86,1.07a62.41,62.41,0,0,0,14.19,1.61A60.37,60.37,0,0,0,126,160,58.76,58.76,0,0,0,145.6,148.1a58.11,58.11,0,0,0,13.52-18.44,58.77,58.77,0,0,0,5.12-19.24,60.21,60.21,0,0,0-.51-14.11c-.1-.85-.32-1.58-.44-2.24,0-.27-.1-.49-.14-.67l-.09-.42-2.69.59.82-1.78c.25-.6.46-1.2.69-1.81C162.32,88.75,162.76,87.48,163.17,86.17Z"/><path class="cls-2" d="M48.29,125.11c-1.06-.81-2.13-1.66-3.22-2.55l-1.62-1.36-1.52-1.46,2.69-.6-.74-3.56a62.9,62.9,0,0,1-.59-15.09A61.41,61.41,0,0,1,63.15,60.13a62.91,62.91,0,0,1,21-12.72,65,65,0,0,1,21.21-3.81,67.52,67.52,0,0,1,15.17,1.78c1.81.42,3.18.91,4.13,1.17l1.45.43-1.26,3.6-1.36-.41c-.89-.24-2.18-.7-3.87-1.09a62.9,62.9,0,0,0-14.25-1.67A60.87,60.87,0,0,0,85.5,51,59,59,0,0,0,65.77,62.92,58.16,58.16,0,0,0,52.2,81.45a58.78,58.78,0,0,0-5.08,19.34A59.67,59.67,0,0,0,47.68,115l.69,3.34,2.69-.6-.82,1.78c-.23.6-.45,1.2-.67,1.82C49.13,122.53,48.7,123.8,48.29,125.11Z"/><path class="cls-3" d="M105.72,136.86a31.36,31.36,0,1,1,31.35-31.35A31.39,31.39,0,0,1,105.72,136.86Zm0-60.89a29.54,29.54,0,1,0,29.54,29.54A29.57,29.57,0,0,0,105.72,76Z"/><path class="cls-3" d="M105.72,136.75c-9.76,0-17.7-14-17.7-31.24S96,74.27,105.72,74.27s17.69,14,17.69,31.24S115.47,136.75,105.72,136.75Zm0-60.67c-8.76,0-15.88,13.2-15.88,29.43s7.12,29.43,15.88,29.43,15.88-13.21,15.88-29.43S114.47,76.08,105.72,76.08Z"/><path class="cls-4" d="M75.27,105.51h0Z"/><path class="cls-3" d="M136.16,106.41H75.27a.91.91,0,1,1,0-1.81h60.89a.91.91,0,1,1,0,1.81Z"/><path class="cls-4" d="M80.55,88.37h0Z"/><path class="cls-3" d="M130.88,89.28H80.55a.91.91,0,0,1,0-1.82h50.33a.91.91,0,1,1,0,1.82Z"/><path class="cls-4" d="M80.55,122.39h0Z"/><path class="cls-3" d="M130.88,123.3H80.55a.91.91,0,0,1,0-1.82h50.33a.91.91,0,0,1,0,1.82Z"/><path class="cls-4" d="M105.72,75.06v0Z"/><path class="cls-3" d="M105.72,136.86a.9.9,0,0,1-.91-.9V75.06a.91.91,0,1,1,1.81,0V136A.9.9,0,0,1,105.72,136.86Z"/><polygon class="cls-5" points="57.72 146.94 57.72 154.21 64.42 154.21 64.42 151.21 63.2 152.42 57.72 146.94"/><path class="cls-6" d="M61.21,148.37a5,5,0,0,1-3.48-1.45v0l5.48,5.48,1.22-1.21v-4.05A5,5,0,0,1,61.21,148.37Z"/><polygon class="cls-7" points="57.24 148.37 61.15 150.52 64.95 148.37 68.29 150.67 61.07 159.92 54.25 150.38 57.24 148.37"/><path class="cls-5" d="M66.76,143.43a.18.18,0,0,1-.11,0l-.1-.07,0,.11c-.57,2.9-2.76,4.93-5.32,4.93s-4.75-2-5.32-4.93l0-.11-.09.07a.17.17,0,0,1-.1,0h0c-.45,0-1.26-1.21-1.36-2.5a5.73,5.73,0,0,1,.09-2.48l0,0c.16,0,.38.18.6.49l.26.35-.12-.41a4.32,4.32,0,0,1-.21-1.29,6.26,6.26,0,1,1,12.48,0,4.66,4.66,0,0,1-.21,1.29l-.12.41.25-.35c.23-.31.45-.49.61-.49l0,0a5.64,5.64,0,0,1,.08,2.48C68,142.22,67.2,143.43,66.76,143.43Z"/><path class="cls-8" d="M61.07,134.88a20.2,20.2,0,0,0,3-.45c.91-.05,1.52.89,2,1.91.75,1.71.19,3.74,1.09,2.93s0-4.84,0-4.84-1-3.43-4.11-3.78-6.45.4-7.55,3.53-.52,4.69-.16,5.09.53-.51,1-2.48,1.11-2.71,1.91-2.57A10.63,10.63,0,0,0,61.07,134.88Z"/><polygon class="cls-9" points="62.92 150.38 61.17 150.26 61.17 161.38 61.17 161.4 62.92 158.84 61.9 152.47 62.92 150.38"/><polygon class="cls-10" points="61.13 150.25 61.11 150.26 61.09 150.25 59.41 150.38 60.44 152.47 59.41 158.84 61.16 161.4 61.17 161.38 61.17 150.26 61.13 150.25"/><polygon class="cls-4" points="61.07 167.8 61.07 159.92 66.95 149.76 76.69 153.7 79.47 167.8 61.07 167.8"/><polygon class="cls-11" points="61.07 167.8 61.07 159.92 55.19 149.76 45.45 153.7 42.67 167.8 61.07 167.8"/><polygon class="cls-11" points="69.18 150.64 66.95 149.76 61.07 159.92 65.51 156.49 65.47 154.84 67.17 154.84 69.18 150.64"/><polygon class="cls-4" points="52.96 150.64 55.19 149.76 61.07 159.92 56.63 156.49 56.66 154.84 54.96 154.84 52.96 150.64"/><path class="cls-12" d="M67,134.08A17.1,17.1,0,0,1,55.49,134c0-1.85,0-3.7,0-5.55,3.84,0,7.68.05,11.52.05Z"/><path class="cls-13" d="M71.89,129,61.36,131.7a.37.37,0,0,1-.21,0l-10.5-2.85a.41.41,0,0,1,0-.8l10.53-2.76a.38.38,0,0,1,.21,0l10.5,2.86A.41.41,0,0,1,71.89,129Z"/><path class="cls-6" d="M67.26,134.15h0a.19.19,0,0,1-.18-.19l0-3.66-5.83-1.58a.19.19,0,0,1-.13-.23.17.17,0,0,1,.22-.12l6.1,1.66,0,3.93A.18.18,0,0,1,67.26,134.15Z"/><path class="cls-6" d="M68.32,135a3.47,3.47,0,0,1-2.23,0c0-.55,0-1.1,0-1.65a1.12,1.12,0,0,1,1.1-1.1h0a1.12,1.12,0,0,1,1.09,1.11Z"/><polygon class="cls-5" points="145.66 58.61 145.66 65.88 152.35 65.88 152.35 62.88 151.14 64.09 145.66 58.61"/><path class="cls-6" d="M149.15,60a5,5,0,0,1-3.48-1.45v0l5.48,5.48,1.22-1.21V58.83A5,5,0,0,1,149.15,60Z"/><polygon class="cls-7" points="145.18 60.04 149.09 62.19 152.89 60.04 156.23 62.34 149.01 71.59 142.19 62.05 145.18 60.04"/><path class="cls-5" d="M154.7,55.1a.16.16,0,0,1-.11,0l-.1-.07,0,.11C153.89,58,151.7,60,149.15,60s-4.75-2-5.32-4.93l0-.11-.09.07a.19.19,0,0,1-.1,0h0c-.45,0-1.27-1.21-1.36-2.5a5.73,5.73,0,0,1,.09-2.48l0,0c.15,0,.38.18.6.5l.26.34-.12-.41a4.33,4.33,0,0,1-.21-1.3,6.26,6.26,0,1,1,12.48,0,4.67,4.67,0,0,1-.21,1.3l-.12.41.25-.35c.22-.31.45-.49.61-.49l0,0A5.39,5.39,0,0,1,156,52.6C156,53.89,155.14,55.1,154.7,55.1Z"/><path class="cls-8" d="M149,46.55a20.2,20.2,0,0,0,3-.45c.91-.05,1.52.89,2,1.91.76,1.71.2,3.74,1.1,2.93s0-4.84,0-4.84-1-3.43-4.11-3.78-6.45.41-7.56,3.53-.51,4.69-.15,5.09.53-.51,1-2.47,1.11-2.72,1.91-2.57A11.15,11.15,0,0,0,149,46.55Z"/><polygon class="cls-9" points="150.86 62.05 149.1 61.93 149.1 73.06 149.11 73.07 150.86 70.51 149.84 64.14 150.86 62.05"/><polygon class="cls-10" points="149.07 61.92 149.05 61.93 149.03 61.92 147.35 62.05 148.38 64.14 147.35 70.51 149.1 73.07 149.1 73.06 149.1 61.93 149.07 61.92"/><polygon class="cls-4" points="149.01 79.47 149.01 71.59 154.89 61.43 164.62 65.37 167.41 79.47 149.01 79.47"/><polygon class="cls-11" points="149.01 79.47 149.01 71.59 143.13 61.43 133.39 65.37 130.61 79.47 149.01 79.47"/><polygon class="cls-11" points="157.12 62.31 154.89 61.43 149.01 71.59 153.45 68.16 153.41 66.51 155.11 66.51 157.12 62.31"/><polygon class="cls-4" points="140.9 62.31 143.13 61.43 149.01 71.59 144.56 68.16 144.6 66.51 142.9 66.51 140.9 62.31"/><path class="cls-12" d="M154.94,45.75a17.13,17.13,0,0,1-11.52-.06l0-5.55c3.84,0,7.68,0,11.52,0Z"/><path class="cls-13" d="M159.83,40.62,149.3,43.38a.5.5,0,0,1-.21,0l-10.51-2.85a.41.41,0,0,1,0-.8L149.11,37a.41.41,0,0,1,.22,0l10.5,2.86A.41.41,0,0,1,159.83,40.62Z"/><path class="cls-6" d="M155.2,45.82h0a.18.18,0,0,1-.18-.19V42l-5.83-1.58a.18.18,0,0,1-.12-.22.17.17,0,0,1,.22-.13l6.1,1.65,0,4A.18.18,0,0,1,155.2,45.82Z"/><path class="cls-6" d="M156.25,46.67a3.38,3.38,0,0,1-2.22,0V45a1.12,1.12,0,0,1,1.1-1.1h0a1.12,1.12,0,0,1,1.1,1.11C156.26,45.57,156.26,46.12,156.25,46.67Z"/></g></g></svg>