<svg xmlns="http://www.w3.org/2000/svg" viewBox="0 0 204.75 204.75"><defs><style>.cls-1{fill:#c2e4ef;}.cls-2{fill:#0b304f;}.cls-3{fill:#9ee3f2;}.cls-4{fill:#56afc9;}.cls-5{fill:#acbbc7;}.cls-6{fill:#fff;}.cls-7{fill:#a21b00;}.cls-8{fill:#f0beb4;}.cls-9{fill:#ffffe2;}.cls-10{fill:#754c24;}.cls-11{fill:#34373d;}.cls-12{fill:#90a8bb;}</style></defs><title>tainguyen10</title><g id="Layer_2" data-name="Layer 2"><g id="Layer_1-2" data-name="Layer 1"><circle class="cls-1" cx="102.37" cy="102.37" r="102.37"/><rect class="cls-2" x="44.78" y="52.77" width="120.9" height="99.21" rx="2.24" transform="translate(210.46 204.75) rotate(180)"/><rect class="cls-3" x="53.61" y="62.2" width="103.25" height="80.49" transform="translate(210.46 204.89) rotate(180)"/><polygon class="cls-4" points="53.61 142.69 156.86 142.69 156.86 62.2 53.61 142.69"/><path class="cls-5" d="M108.56,150.38a2.86,2.86,0,0,0,0-5.72h-6.65a2.86,2.86,0,0,0,0,5.72Z"/><circle class="cls-5" cx="105.23" cy="57.46" r="1.97"/><rect class="cls-6" x="110.41" y="111.77" width="42.11" height="2.68"/><rect class="cls-6" x="110.41" y="101.16" width="42.11" height="2.68"/><rect class="cls-6" x="110.41" y="90.55" width="42.11" height="2.68"/><rect class="cls-6" x="129.19" y="79.95" width="23.33" height="2.68"/><path class="cls-7" d="M115,82.8l-1.26,4.08h-2l5.17-16h2.56l5.15,16h-2.14l-1.23-4.08Zm3.1-10.21-2.62,8.56h5.22Z"/><path class="cls-8" d="M89.64,99.67H85.77c-.56,2.35-1.88,3.75-3.84,6.4a12.89,12.89,0,0,0,5.78,2,13,13,0,0,0,5.8-2C91.55,103.4,90.2,102,89.64,99.67Z"/><path class="cls-2" d="M116,124.12h-2.41c-9.43,0-6.11-14.34-20.08-18.07,0,0-1.23,2.73-5.42,2.73a7.76,7.76,0,0,1-6.16-2.71c-14.27,4.6-17.67,14.86-17.67,29.32H71c0-13.24,2-13.84,2.63-14v21.32h28.29V121.37c2.72,5.55,4.32,8.53,10.5,8.53H116Z"/><polygon class="cls-9" points="87.7 107.42 81.91 106.01 87.7 120.4 93.5 106.01 87.7 107.42"/><path class="cls-7" d="M89.67,112.25a12,12,0,0,0-1.18-3,2.58,2.58,0,0,0,1.39-1.68c0-.25-1.08-.37-2.16-.37s-2.16.12-2.16.37A2.58,2.58,0,0,0,87,109.25a12.45,12.45,0,0,0-1.18,3,20.66,20.66,0,0,0-.37,4.07l2.34,4.13,2.31-4.13A21,21,0,0,0,89.67,112.25Z"/><polygon class="cls-5" points="86.9 142.69 86.38 142.69 86.38 123.72 86.9 123.02 86.9 142.69"/><circle class="cls-5" cx="88.64" cy="126.79" r="1.16"/><circle class="cls-5" cx="88.64" cy="136" r="1.16"/><path class="cls-5" d="M98.68,108.33a16.76,16.76,0,0,0-5.17-2.28l-7.13,17.71L95,114.4l-2.15-1.86,3.3-.7Z"/><path class="cls-5" d="M87.72,120.45l-5.79-14.38h0a22.54,22.54,0,0,0-4.31,1.72l2.18,3,2.68.57-1.75,1.51,6.69,8.33Z"/><path class="cls-10" d="M87.72,70.27c-8.59-3.84-19.13,8-14.84,13.2,0,0,6.86.47,14.84.47s14.84-.47,14.84-.47C107.63,79.15,96.67,66.62,87.72,70.27Z"/><path class="cls-8" d="M102.81,86.73c0,7.65-6.75,13.86-15.09,13.86S72.64,94.38,72.64,86.73s6.75-13.85,15.08-13.85S102.81,79.09,102.81,86.73Z"/><path class="cls-8" d="M75.29,86.67A2.37,2.37,0,1,1,73,83.94,2.55,2.55,0,0,1,75.29,86.67Z"/><path class="cls-8" d="M100.16,86.67a2.36,2.36,0,1,0,2.34-2.73A2.55,2.55,0,0,0,100.16,86.67Z"/><path class="cls-8" d="M116,128.74c2.86-.22,4.91-1,4.63-2.43s-2.23-1.88-4.63-1.76Z"/><path class="cls-8" d="M65.31,135.39c0,2.87.72,4.4,2.24,4.41s2.17-2,2.24-4.41Z"/><path class="cls-11" d="M89.59,88.4a1.58,1.58,0,0,0,1.54,1.29h5.52A1.31,1.31,0,0,0,98,88.38V83.77a.26.26,0,0,0-.26-.25H89a.25.25,0,0,0-.2.09.21.21,0,0,0-.05.2Z"/><path class="cls-12" d="M96.65,89.19a.81.81,0,0,0,.81-.81V84H89.28l.8,4.29a1.07,1.07,0,0,0,1,.88Z"/><path class="cls-11" d="M85.86,88.4a1.59,1.59,0,0,1-1.55,1.29H78.79a1.31,1.31,0,0,1-1.3-1.31V83.77a.25.25,0,0,1,.26-.25h8.71a.25.25,0,0,1,.19.09.24.24,0,0,1,.06.2Z"/><path class="cls-12" d="M84.31,89.19a1.08,1.08,0,0,0,1.06-.88L86.16,84H78v4.36a.8.8,0,0,0,.8.81Z"/><rect class="cls-11" x="86.26" y="83.86" width="2.92" height="1.21" transform="translate(175.45 168.93) rotate(180)"/><polygon class="cls-11" points="72.24 83.82 77.68 85.07 77.68 83.86 72.24 83.21 72.24 83.82"/><polygon class="cls-11" points="103.21 83.82 97.77 85.07 97.77 83.86 103.21 83.21 103.21 83.82"/><path class="cls-2" d="M137.66,111.21l0-.06c.06,0,.13,0,.18-.06a.6.6,0,1,0-.78-.9c-.06,0-.06.11-.09.17l0-.06-18.15,15.1a1.14,1.14,0,0,0,1.49,1.72Z"/></g></g></svg>