<svg xmlns="http://www.w3.org/2000/svg" viewBox="0 0 204.75 204.75"><defs><style>.cls-1{fill:#c2e4ef;}.cls-2{fill:#0b304f;}.cls-3{fill:#9ee3f2;}.cls-4{fill:#56afc9;}.cls-5{fill:#acbbc7;}.cls-6{fill:#f5ab09;}.cls-7{fill:#d56b00;}.cls-8{fill:#a3acb1;}.cls-9{fill:#fff;}</style></defs><title>tainguyen5</title><g id="Layer_2" data-name="Layer 2"><g id="Layer_1-2" data-name="Layer 1"><circle class="cls-1" cx="102.37" cy="102.37" r="102.37"/><rect class="cls-2" x="42.28" y="53.07" width="120.18" height="98.62" rx="2.24" transform="translate(204.75 204.75) rotate(180)"/><rect class="cls-3" x="51.06" y="62.44" width="102.64" height="80.01" transform="translate(204.75 204.89) rotate(180)"/><polygon class="cls-4" points="51.06 142.45 153.69 142.45 153.69 62.44 51.06 142.45"/><path class="cls-5" d="M105.68,150.09a2.84,2.84,0,0,0,0-5.68H99.07a2.84,2.84,0,1,0,0,5.68Z"/><path class="cls-5" d="M104.33,57.73a2,2,0,1,1-2-2A2,2,0,0,1,104.33,57.73Z"/><path class="cls-6" d="M144.65,75.8l-37.27,3.3,0,.46c0,.19-.58,4.6-5,4.6s-4.93-4.41-5-4.6l0-.46L60.05,75.79a.57.57,0,0,0-.56.53v48.56a.58.58,0,0,0,.52.62l36.34,3.22,0,.19a6.09,6.09,0,0,0,12,0l0-.19,36.34-3.22a.58.58,0,0,0,.52-.62V76.32A.57.57,0,0,0,144.65,75.8Z"/><path class="cls-7" d="M102.37,133.86a6,6,0,0,1-6-5l0-.19L60,125.5a.58.58,0,0,1-.52-.62.57.57,0,0,1,.56-.53l37.32,3.3,0,.47c0,.19.61,4.59,5,4.59s4.94-4.41,5-4.59l0-.47,37.27-3.3a.58.58,0,0,1,.09,1.15l-36.34,3.22,0,.19A6,6,0,0,1,102.37,133.86Z"/><path class="cls-8" d="M143.29,74.18c-3.21.25-6.29.37-9.43.37-5.77,0-10.46-.42-14.23-.76-2.62-.24-4.88-.45-6.81-.45-3.83,0-6.84.76-9,4.43l-.12.21h-2.57l-.12-.21c-2.2-3.67-5.21-4.43-9-4.43-1.93,0-4.19.21-6.81.45-3.77.34-8.46.76-14.23.76-3.14,0-6.22-.12-9.43-.37l-.94-.07v48.73l.8.06c3.21.25,6.43.38,9.57.38,5.85,0,10.58-.43,14.39-.78,2.57-.23,4.8-.44,6.65-.44,4,0,6,.94,7.54,3.58l.4.67a.65.65,0,0,0,.74.3l0,0h3.45l0,0a.65.65,0,0,0,.74-.3l.4-.67c1.58-2.64,3.55-3.58,7.54-3.58,1.85,0,4.08.21,6.65.44,3.81.35,8.54.78,14.39.78,3.14,0,6.36-.13,9.57-.38l.8-.06V74.11Z"/><path class="cls-9" d="M61.39,75.05v47c25.18,2,34.05-4.83,38.83,3.17v-47C95.44,70.22,86.57,77,61.39,75.05Z"/><path class="cls-8" d="M96.89,82.26a10.2,10.2,0,0,0-5-1c-1.85,0-4.07.2-6.65.44-3.79.34-8.52.77-14.35.77h0V79.89c5.73,0,10.39-.42,14.14-.76,2.65-.24,4.93-.45,6.9-.45a13.06,13.06,0,0,1,5.75,1l.5.23v3Z"/><path class="cls-8" d="M96.89,90.89a10.2,10.2,0,0,0-5-1c-1.85,0-4.07.2-6.65.44-3.79.34-8.52.77-14.35.77h0c-2,0-4,0-5.94-.15l-.83,0V88.33l.92,0c2,.1,4,.15,5.84.15,5.73,0,10.39-.42,14.14-.76,2.65-.24,4.93-.45,6.9-.45a13.21,13.21,0,0,1,5.75,1l.5.24v3Z"/><path class="cls-8" d="M96.89,99.52a10.2,10.2,0,0,0-5-1c-1.85,0-4.07.2-6.65.44-3.79.34-8.52.77-14.35.77h0c-2,0-4,0-5.94-.15l-.83,0V97l.92,0c2,.1,4,.15,5.84.15,5.73,0,10.39-.42,14.14-.76,2.65-.24,4.93-.45,6.9-.45a13.21,13.21,0,0,1,5.75,1l.5.24v3Z"/><path class="cls-8" d="M96.89,108.15a10.2,10.2,0,0,0-5-1c-1.85,0-4.07.2-6.65.43-3.79.35-8.52.77-14.35.77h0c-2,0-4,0-5.94-.14l-.83,0v-2.62l.92,0c2,.1,4,.15,5.84.15,5.73,0,10.39-.42,14.14-.76,2.65-.24,4.93-.45,6.9-.45a13.21,13.21,0,0,1,5.75,1l.5.24v3Z"/><path class="cls-8" d="M96.89,116.78a10.2,10.2,0,0,0-5-1c-1.85,0-4.07.2-6.65.43-3.79.35-8.52.77-14.35.77h0c-2,0-4,0-5.94-.14l-.83,0v-2.63l.92.05c2,.1,4,.15,5.84.15,5.73,0,10.39-.42,14.14-.76,2.65-.25,4.93-.45,6.9-.45a13.21,13.21,0,0,1,5.75,1l.5.24v3Z"/><path class="cls-9" d="M104.53,78.22v47c4.78-8,13.65-1.2,38.83-3.17v-47C118.18,77,109.31,70.22,104.53,78.22Z"/><path class="cls-8" d="M107.86,82.26a10.2,10.2,0,0,1,5-1c1.85,0,4.07.2,6.65.44,3.79.34,8.52.77,14.35.77h0c2,0,4-.05,5.94-.15l.83,0V79.7l-.92,0c-2,.1-3.95.15-5.84.15-5.73,0-10.39-.42-14.14-.76-2.65-.24-4.93-.45-6.9-.45a13.06,13.06,0,0,0-5.75,1l-.5.23v3Z"/><path class="cls-8" d="M107.86,90.89a10.2,10.2,0,0,1,5-1c1.85,0,4.07.2,6.65.44,3.79.34,8.52.77,14.35.77h0c2,0,4,0,5.94-.15l.83,0V88.33l-.92,0c-2,.1-3.95.15-5.84.15-5.73,0-10.39-.42-14.14-.76-2.65-.24-4.93-.45-6.9-.45a13.21,13.21,0,0,0-5.75,1l-.5.24v3Z"/><path class="cls-8" d="M107.86,99.52a10.2,10.2,0,0,1,5-1c1.85,0,4.07.2,6.65.44,3.79.34,8.52.77,14.35.77h0c2,0,4,0,5.94-.15l.83,0V97l-.92,0c-2,.1-3.95.15-5.84.15-5.73,0-10.39-.42-14.14-.76-2.65-.24-4.93-.45-6.9-.45a13.21,13.21,0,0,0-5.75,1l-.5.24v3Z"/><path class="cls-8" d="M107.86,108.15a10.2,10.2,0,0,1,5-1c1.85,0,4.07.2,6.65.43,3.79.35,8.52.77,14.35.77h0c2,0,4,0,5.94-.14l.83,0v-2.62l-.92,0c-2,.1-3.95.15-5.84.15-5.73,0-10.39-.42-14.14-.76-2.65-.24-4.93-.45-6.9-.45a13.21,13.21,0,0,0-5.75,1l-.5.24v3Z"/><path class="cls-8" d="M107.86,116.78a10.2,10.2,0,0,1,5-1c1.85,0,4.07.2,6.65.43,3.79.35,8.52.77,14.35.77h0c2,0,4,0,5.94-.14l.83,0v-2.63l-.92.05c-2,.1-3.95.15-5.84.15-5.73,0-10.39-.42-14.14-.76-2.65-.25-4.93-.45-6.9-.45a13.21,13.21,0,0,0-5.75,1l-.5.24v3Z"/></g></g></svg>