<svg xmlns="http://www.w3.org/2000/svg" viewBox="0 0 204.75 204.75"><defs><style>.cls-1{fill:#c2e4ef;}.cls-2{fill:#0b304f;}.cls-3{fill:#9ee3f2;}.cls-4{fill:#56afc9;}.cls-5{fill:#acbbc7;}.cls-6{fill:#ced7dc;}.cls-7{fill:#313131;}.cls-8{fill:#f5ab09;}.cls-9{fill:#d56b00;}.cls-10{fill:#a3acb1;}.cls-11{fill:#fff;}.cls-12{fill:#a21b00;}</style></defs><title>tainguyen6</title><g id="Layer_2" data-name="Layer 2"><g id="Layer_1-2" data-name="Layer 1"><circle class="cls-1" cx="102.37" cy="102.37" r="102.37"/><rect class="cls-2" x="85.64" y="138.73" width="24.39" height="37.94" rx="1.26" transform="translate(195.66 315.4) rotate(180)"/><rect class="cls-3" x="87.46" y="141.9" width="20.75" height="30.4" transform="translate(195.66 314.2) rotate(180)"/><polygon class="cls-4" points="87.46 172.3 108.2 172.3 108.2 141.9 87.46 172.3"/><path class="cls-5" d="M99,175.62a1.2,1.2,0,0,0,0-2.39H96.18a1.2,1.2,0,1,0,0,2.39Z"/><circle class="cls-5" cx="89.15" cy="140.18" r="0.65"/><rect class="cls-5" x="92.18" y="139.87" width="11.3" height="0.97"/><rect class="cls-2" x="133.31" y="110.38" width="36.74" height="30.15" rx="0.58" transform="translate(303.36 250.91) rotate(180)"/><rect class="cls-3" x="135.99" y="113.25" width="31.38" height="24.46" transform="translate(303.36 250.95) rotate(180)"/><polygon class="cls-4" points="135.99 137.71 167.37 137.71 167.37 113.25 135.99 137.71"/><path class="cls-5" d="M152.69,140a.87.87,0,0,0,0-1.74h-2a.87.87,0,0,0,0,1.74Z"/><path class="cls-5" d="M152.28,111.81a.6.6,0,0,1-1.2,0,.6.6,0,1,1,1.2,0Z"/><path class="cls-2" d="M68.65,141.19H25.5c-.71,0-1.36-.13-1.36-.83v-1.25H70v1.37C70,141.18,69.36,141.19,68.65,141.19Z"/><path class="cls-2" d="M29.93,109.72H64.15a.3.3,0,0,1,.3.3v23.56a0,0,0,0,1,0,0H29.62a0,0,0,0,1,0,0V110A.3.3,0,0,1,29.93,109.72Z"/><rect class="cls-3" x="36.59" y="105.86" width="20.9" height="31.59" transform="translate(168.69 74.61) rotate(90)"/><polygon class="cls-4" points="31.25 132.1 62.83 111.2 62.83 132.1 31.25 132.1"/><path class="cls-6" d="M29.63,133.58l-5.39,5.27c-.33.45.16.81,1.11.81H68.74c.94,0,1.43-.36,1.11-.81l-5.4-5.27Z"/><path class="cls-2" d="M53.55,138.63s0,0-.14,0H38.5c-.08,0-.15,0-.14,0l.87-1.87s.08,0,.16,0H52.52c.08,0,.15,0,.16,0Z"/><polygon class="cls-2" points="32.35 134.31 30.13 134.31 30.42 134.09 32.6 134.09 32.35 134.31"/><polygon class="cls-2" points="36.88 134.31 34.67 134.31 34.88 134.09 37.05 134.09 36.88 134.31"/><polygon class="cls-2" points="39.61 134.31 37.39 134.31 37.55 134.09 39.73 134.09 39.61 134.31"/><polygon class="cls-2" points="42.33 134.31 40.11 134.31 40.22 134.09 42.4 134.09 42.33 134.31"/><polygon class="cls-2" points="45.05 134.31 42.84 134.31 42.89 134.09 45.07 134.09 45.05 134.31"/><polygon class="cls-2" points="47.78 134.31 45.56 134.31 45.57 134.09 47.74 134.09 47.78 134.31"/><polygon class="cls-2" points="50.5 134.31 48.28 134.31 48.24 134.09 50.42 134.09 50.5 134.31"/><polygon class="cls-2" points="53.22 134.31 51 134.31 50.91 134.09 53.09 134.09 53.22 134.31"/><polygon class="cls-2" points="36.58 134.72 34.28 134.72 34.51 134.48 36.76 134.48 36.58 134.72"/><polygon class="cls-2" points="39.39 134.72 37.1 134.72 37.27 134.48 39.52 134.48 39.39 134.72"/><polygon class="cls-2" points="42.21 134.72 39.91 134.72 40.03 134.48 42.28 134.48 42.21 134.72"/><polygon class="cls-2" points="45.02 134.72 42.73 134.72 42.79 134.48 45.04 134.48 45.02 134.72"/><polygon class="cls-2" points="47.84 134.72 45.55 134.72 45.55 134.48 47.8 134.48 47.84 134.72"/><polygon class="cls-2" points="51.57 134.72 48.36 134.72 48.31 134.48 51.47 134.48 51.57 134.72"/><polygon class="cls-2" points="53.61 134.95 51.27 134.95 51.08 134.48 53.33 134.48 53.61 134.95"/><polygon class="cls-2" points="36.25 135.15 33.87 135.15 34.11 134.9 36.44 134.9 36.25 135.15"/><polygon class="cls-2" points="39.16 135.15 36.79 135.15 36.97 134.9 39.3 134.9 39.16 135.15"/><polygon class="cls-2" points="42.08 135.15 39.7 135.15 39.83 134.9 42.16 134.9 42.08 135.15"/><polygon class="cls-2" points="44.99 135.15 42.62 135.15 42.68 134.9 45.01 134.9 44.99 135.15"/><polygon class="cls-2" points="47.91 135.15 45.53 135.15 45.54 134.9 47.87 134.9 47.91 135.15"/><polygon class="cls-2" points="50.82 135.15 48.44 135.15 48.4 134.9 50.72 134.9 50.82 135.15"/><polygon class="cls-2" points="53.73 135.15 51.36 135.15 51.25 134.9 53.58 134.9 53.73 135.15"/><polygon class="cls-2" points="35.9 135.62 33.43 135.62 33.69 135.34 36.1 135.34 35.9 135.62"/><polygon class="cls-2" points="38.92 135.62 36.45 135.62 36.65 135.34 39.06 135.34 38.92 135.62"/><polygon class="cls-2" points="41.94 135.62 39.48 135.62 39.61 135.34 42.02 135.34 41.94 135.62"/><polygon class="cls-2" points="44.96 135.62 42.49 135.62 42.57 135.34 44.98 135.34 44.96 135.62"/><polygon class="cls-2" points="47.98 135.62 45.52 135.62 45.52 135.34 47.94 135.34 47.98 135.62"/><polygon class="cls-2" points="51 135.62 48.53 135.62 48.48 135.34 50.89 135.34 51 135.62"/><polygon class="cls-2" points="54.02 135.62 51.55 135.62 51.44 135.34 53.85 135.34 54.02 135.62"/><polygon class="cls-2" points="57.7 134.31 55.48 134.31 55.3 134.09 57.48 134.09 57.7 134.31"/><polygon class="cls-2" points="60.43 134.31 58.21 134.31 57.98 134.09 60.16 134.09 60.43 134.31"/><polygon class="cls-2" points="63.15 134.31 60.93 134.31 60.65 134.09 62.83 134.09 63.15 134.31"/><polygon class="cls-2" points="58.1 134.72 55.8 134.72 55.62 134.48 57.87 134.48 58.1 134.72"/><polygon class="cls-2" points="60.92 134.72 58.62 134.72 58.38 134.48 60.63 134.48 60.92 134.72"/><polygon class="cls-2" points="63.73 134.72 61.44 134.72 61.14 134.48 63.39 134.48 63.73 134.72"/><polygon class="cls-2" points="58.42 135.05 56.07 135.05 55.87 134.79 58.18 134.79 58.42 135.05"/><polygon class="cls-2" points="61.31 135.05 58.96 135.05 58.7 134.79 61.01 134.79 61.31 135.05"/><polygon class="cls-2" points="64.2 135.05 61.85 135.05 61.53 134.79 63.84 134.79 64.2 135.05"/><polygon class="cls-2" points="62.52 136.04 59.98 136.04 59.68 135.75 62.16 135.75 62.52 136.04"/><polygon class="cls-2" points="59.8 136.45 57.18 136.45 56.93 136.14 59.49 136.14 59.8 136.45"/><polygon class="cls-2" points="49.33 136.35 35.31 136.35 35.65 135.9 49.22 135.9 49.33 136.35"/><polygon class="cls-2" points="54.46 136.35 50.22 136.35 50.09 135.9 54.19 135.9 54.46 136.35"/><polygon class="cls-2" points="34.27 136.35 30.04 136.35 30.55 135.9 34.65 135.9 34.27 136.35"/><polygon class="cls-2" points="63 136.45 60.39 136.45 60.07 136.14 62.63 136.14 63 136.45"/><polygon class="cls-2" points="66.21 136.45 63.6 136.45 63.21 136.14 65.77 136.14 66.21 136.45"/><path class="cls-7" d="M47.54,110.46a.47.47,0,1,1-.46-.46A.47.47,0,0,1,47.54,110.46Z"/><polygon class="cls-2" points="83.43 101.48 83.43 120.55 73.2 120.55 73.2 117.58 67.59 121.52 73.2 125.45 73.2 122.49 83.43 122.49 84.9 122.49 85.37 122.49 85.37 101.48 83.43 101.48"/><polygon class="cls-2" points="128.07 121.52 122.45 117.58 122.45 120.55 112.23 120.55 112.23 101.48 110.29 101.48 110.29 122.49 110.76 122.49 112.23 122.49 122.45 122.49 122.45 125.45 128.07 121.52"/><polygon class="cls-2" points="98.8 125.45 98.8 101.48 96.86 101.48 96.86 125.45 93.89 125.45 97.83 131.06 101.77 125.45 98.8 125.45"/><path class="cls-8" d="M152.78,31.27l-48.44,4.29-.07.61c0,.24-.75,6-6.44,6s-6.41-5.72-6.44-6l-.07-.61L42.81,31.27a.74.74,0,0,0-.73.69V95.07a.75.75,0,0,0,.68.81L90,100.07l.06.25c.73,3.11,3.15,6.43,7.78,6.43s7-3.32,7.77-6.43l.06-.25,47.24-4.19a.75.75,0,0,0,.68-.81V32A.76.76,0,0,0,152.78,31.27Z"/><path class="cls-9" d="M97.83,106.75c-4.63,0-7-3.32-7.78-6.43l-.06-.25L42.76,95.88a.75.75,0,0,1-.68-.81.74.74,0,0,1,.73-.69l48.51,4.29.07.61c0,.25.8,6,6.44,6s6.41-5.72,6.44-6l.07-.61,48.44-4.28a.76.76,0,0,1,.8.68.75.75,0,0,1-.68.81l-47.24,4.19-.06.25C104.88,103.43,102.46,106.75,97.83,106.75Z"/><path class="cls-10" d="M151,29.17c-4.18.33-8.19.49-12.26.49-7.5,0-13.6-.56-18.5-1-3.4-.31-6.34-.58-8.85-.58-5,0-8.9,1-11.75,5.76l-.16.27H96.16L96,33.84c-2.86-4.78-6.76-5.76-11.75-5.76-2.51,0-5.45.27-8.85.58-4.9.44-11,1-18.5,1-4.07,0-8.09-.16-12.26-.49l-1.22-.09V92.42l1,.08c4.18.33,8.36.49,12.44.49,7.61,0,13.76-.56,18.7-1,3.35-.3,6.24-.57,8.65-.57,5.18,0,7.75,1.22,9.8,4.66l.53.87a.85.85,0,0,0,1,.39l0,0h4.49l.05,0a.86.86,0,0,0,1-.39l.52-.87c2.06-3.44,4.62-4.66,9.81-4.66,2.41,0,5.3.27,8.65.57,4.94.45,11.09,1,18.7,1,4.08,0,8.26-.16,12.43-.49l1.05-.08V29.08Z"/><path class="cls-11" d="M44.55,30.3V91.37C77.28,93.93,88.81,85.09,95,95.49V34.42C88.81,24,77.28,32.86,44.55,30.3Z"/><path class="cls-10" d="M90.69,39.67a13.22,13.22,0,0,0-6.48-1.24c-2.4,0-5.29.26-8.64.56-3.7.34-8.08.73-13.23.91l.14-3.4c5-.18,9.21-.57,12.81-.9,3.44-.31,6.4-.58,9-.58a17,17,0,0,1,7.47,1.35l.65.3v3.92Z"/><path class="cls-10" d="M90.69,50.89a13.22,13.22,0,0,0-6.48-1.24c-2.4,0-5.29.26-8.64.56-4.93.45-11.07,1-18.65,1h0c-2.56,0-5.15-.06-7.73-.19L48.11,51V47.56l1.19.06c2.66.13,5.15.19,7.6.19,7.45,0,13.51-.55,18.39-1,3.44-.31,6.4-.58,9-.58a17,17,0,0,1,7.47,1.34l.65.31v3.92Z"/><path class="cls-10" d="M90.69,62.11a13.21,13.21,0,0,0-6.48-1.25c-2.4,0-5.29.27-8.64.57-4.93.44-11.07,1-18.65,1h0c-2.56,0-5.15-.07-7.73-.19l-1.08-.05V58.78l1.19.06C52,59,54.45,59,56.9,59c7.45,0,13.51-.55,18.39-1,3.44-.32,6.4-.58,9-.58a17,17,0,0,1,7.47,1.34l.65.31V63Z"/><path class="cls-10" d="M90.69,73.33a13.21,13.21,0,0,0-6.48-1.25c-2.4,0-5.29.26-8.64.56-4.93.45-11.07,1-18.65,1h0c-2.56,0-5.15-.07-7.73-.2l-1.08,0V70l1.19.06c2.66.13,5.15.2,7.6.2,7.45,0,13.51-.55,18.39-1,3.44-.31,6.4-.58,9-.58A17,17,0,0,1,91.72,70l.65.3v3.92Z"/><path class="cls-10" d="M90.69,84.54a13.22,13.22,0,0,0-6.48-1.24c-2.4,0-5.29.26-8.64.56-4.93.45-11.07,1-18.65,1h0c-2.56,0-5.15-.06-7.73-.19l-1.08,0V81.21l1.19.06c2.66.13,5.15.2,7.6.2,7.45,0,13.51-.56,18.39-1,3.44-.31,6.4-.58,9-.58a17,17,0,0,1,7.47,1.34l.65.31v3.92Z"/><path class="cls-11" d="M100.63,34.42V95.49c6.22-10.4,17.75-1.56,50.47-4.12V30.3C118.38,32.86,106.85,24,100.63,34.42Z"/><path class="cls-10" d="M105,39.67a13.27,13.27,0,0,1,6.48-1.24c2.41,0,5.3.26,8.64.56,4.94.45,11.08,1,18.66,1h0c2.55,0,5.15-.06,7.72-.19l1.08,0V36.34l-1.19.06c-2.65.13-5.14.2-7.59.2-7.45,0-13.51-.55-18.39-1-3.44-.31-6.4-.58-9-.58a17,17,0,0,0-7.47,1.35l-.65.3v3.92Z"/><path class="cls-10" d="M105,50.89a13.27,13.27,0,0,1,6.48-1.24c2.41,0,5.3.26,8.64.56,4.94.45,11.08,1,18.66,1h0c2.55,0,5.15-.06,7.72-.19l1.08-.05V47.56l-1.19.06c-2.65.13-5.14.19-7.59.19-7.45,0-13.51-.55-18.39-1-3.44-.31-6.4-.58-9-.58a17,17,0,0,0-7.47,1.34l-.65.31v3.92Z"/><path class="cls-10" d="M105,62.11a13.26,13.26,0,0,1,6.48-1.25c2.41,0,5.3.27,8.64.57,4.94.44,11.08,1,18.66,1h0c2.55,0,5.15-.07,7.72-.19l1.08-.05V58.78l-1.19.06c-2.65.13-5.14.19-7.59.19-7.45,0-13.51-.55-18.39-1-3.44-.32-6.4-.58-9-.58a17,17,0,0,0-7.47,1.34l-.65.31V63Z"/><path class="cls-10" d="M105,73.33a13.26,13.26,0,0,1,6.48-1.25c2.41,0,5.3.26,8.64.56,4.94.45,11.08,1,18.66,1h0c2.55,0,5.15-.07,7.72-.2l1.08,0V70l-1.19.06c-2.65.13-5.14.2-7.59.2-7.45,0-13.51-.55-18.39-1-3.44-.31-6.4-.58-9-.58A17,17,0,0,0,103.94,70l-.65.3v3.92Z"/><path class="cls-10" d="M105,84.54a13.27,13.27,0,0,1,6.48-1.24c2.41,0,5.3.26,8.64.56,4.94.45,11.08,1,18.66,1h0c2.55,0,5.15-.06,7.72-.19l1.08,0V81.21l-1.19.06c-2.65.13-5.14.2-7.59.2-7.45,0-13.51-.56-18.39-1-3.44-.31-6.4-.58-9-.58a17,17,0,0,0-7.47,1.34l-.65.31v3.92Z"/><path class="cls-12" d="M52.57,42.91l-1,3.39h-1.7L54.13,33h2.12L60.53,46.3H58.76l-1-3.39Zm2.58-8.48L53,41.54h4.34Z"/></g></g></svg>