<svg xmlns="http://www.w3.org/2000/svg" viewBox="0 0 204.75 204.75"><defs><style>.cls-1{fill:#c2e4ef;}.cls-2{fill:#0b304f;}.cls-3{fill:#fff;}.cls-4{fill:#f5ab09;}</style></defs><title>tainguyen4</title><g id="Layer_2" data-name="Layer 2"><g id="Layer_1-2" data-name="Layer 1"><circle class="cls-1" cx="102.37" cy="102.37" r="102.37"/><path class="cls-2" d="M74.34,95.9l24-13.85c3-1.74,5.5-.32,5.5,3.18v68.12c0,3.49-2.48,4.92-5.5,3.18l-24-13.86Z"/><path class="cls-2" d="M100.78,158.16a5.72,5.72,0,0,1-2.88-.87l-24-13.85a.89.89,0,0,1-.44-.77V95.9a.88.88,0,0,1,.44-.76l24-13.86a5.8,5.8,0,0,1,2.88-.86c2.36,0,4,1.93,4,4.81v68.12C104.73,156.23,103.14,158.16,100.78,158.16Zm-25.55-16,23.55,13.6a4.11,4.11,0,0,0,2,.62c1.36,0,2.17-1.13,2.17-3V85.23c0-1.9-.81-3-2.17-3a4.13,4.13,0,0,0-2,.63L75.23,96.42Z"/><rect class="cls-3" x="68.79" y="100.64" width="5.56" height="37.3"/><path d="M74.34,138.83H68.79a.89.89,0,0,1-.89-.89v-37.3a.89.89,0,0,1,.89-.89h5.55a.89.89,0,0,1,.89.89v37.3A.89.89,0,0,1,74.34,138.83Zm-4.66-1.78h3.78V101.53H69.68Z"/><path class="cls-4" d="M55.86,103.49H68.79v31.6H55.86a15.8,15.8,0,0,1,0-31.6Z"/><path class="cls-4" d="M68.79,136H55.86a16.69,16.69,0,0,1,0-33.38H68.79a.89.89,0,0,1,.89.89v31.6A.89.89,0,0,1,68.79,136ZM55.86,104.37a14.92,14.92,0,1,0,0,29.83h12V104.37Z"/><path class="cls-3" d="M103.84,104.74h2.73a4,4,0,0,1,4,4v21.16a4,4,0,0,1-4,4h-2.73Z"/><path d="M106.57,134.73h-2.73a.89.89,0,0,1-.89-.89v-29.1a.89.89,0,0,1,.89-.89h2.73a4.87,4.87,0,0,1,4.86,4.86v21.16A4.87,4.87,0,0,1,106.57,134.73ZM104.73,133h1.84a3.08,3.08,0,0,0,3.08-3.08V108.71a3.09,3.09,0,0,0-3.08-3.09h-1.84Z"/><line class="cls-3" x1="68.79" y1="129.35" x2="54.42" y2="129.35"/><path d="M68.79,130.24H54.42a.89.89,0,0,1,0-1.78H68.79a.89.89,0,0,1,0,1.78Z"/><line class="cls-3" x1="79.51" y1="138.86" x2="96.43" y2="148.62"/><path d="M96.43,149.51a.89.89,0,0,1-.45-.12l-16.91-9.76a.89.89,0,0,1,.89-1.54l16.91,9.77a.87.87,0,0,1,.32,1.21A.88.88,0,0,1,96.43,149.51Z"/><path class="cls-4" d="M164.79,69.82a22.44,22.44,0,1,1-22.43-22.44A22.43,22.43,0,0,1,164.79,69.82Z"/><path d="M142.36,93a23.23,23.23,0,1,1,23.22-23.22A23.25,23.25,0,0,1,142.36,93Zm0-44.86A21.64,21.64,0,1,0,164,69.82,21.66,21.66,0,0,0,142.36,48.18Z"/><path class="cls-3" d="M153.7,82.77a3.92,3.92,0,1,1-3.91-3.91A3.91,3.91,0,0,1,153.7,82.77Z"/><path d="M149.79,87.48a4.71,4.71,0,1,1,4.7-4.71A4.71,4.71,0,0,1,149.79,87.48Zm0-7.83a3.13,3.13,0,1,0,3.12,3.12A3.13,3.13,0,0,0,149.79,79.65Z"/><path d="M130.57,97.41a.8.8,0,0,1-.79-.79V68.54a.79.79,0,0,1,.46-.72l23.13-10.55a.82.82,0,0,1,.76,0,.79.79,0,0,1,.36.67V82.77a.79.79,0,1,1-1.58,0V59.22l-21.55,9.83V96.62A.79.79,0,0,1,130.57,97.41Z"/><path d="M130.57,107.75a.79.79,0,0,1-.68-.39l-6-10.35a.75.75,0,0,1,0-.79.8.8,0,0,1,.68-.4h11.94a.8.8,0,0,1,.69,1.19l-6,10.35A.79.79,0,0,1,130.57,107.75ZM126,97.41l4.6,8,4.6-8Z"/></g></g></svg>