<svg xmlns="http://www.w3.org/2000/svg" viewBox="0 0 204.75 204.75"><defs><style>.cls-1{fill:#c2e4ef;}.cls-2{fill:#f5ab09;}.cls-3{fill:#d56b00;}.cls-4{fill:#a3acb1;}.cls-5{fill:#fff;}.cls-6{fill:#a21b00;}.cls-7{fill:#0b304f;}.cls-8{fill:#56afc9;}.cls-9{fill:#9ee3f2;}</style></defs><title>tainguyen2</title><g id="Layer_2" data-name="Layer 2"><g id="Layer_1-2" data-name="Layer 1"><circle class="cls-1" cx="102.37" cy="102.37" r="102.37"/><path class="cls-2" d="M172.93,56l-62.2,5.51-.08.78c0,.31-1,7.66-8.28,7.66s-8.23-7.34-8.27-7.66L94,61.48,31.74,56a1,1,0,0,0-.95.88v81a1,1,0,0,0,.88,1l60.65,5.38.07.32c.93,4,4,8.26,10,8.26s9.06-4.27,10-8.26l.07-.32,60.65-5.38a1,1,0,0,0,.88-1v-81A1,1,0,0,0,172.93,56Z"/><path class="cls-3" d="M102.37,152.88c-5.94,0-9.05-4.27-10-8.26l-.07-.32-60.65-5.38a1,1,0,0,1,.07-1.92L94,142.51l.08.78c0,.32,1,7.67,8.27,7.67s8.24-7.36,8.28-7.67l.08-.78,62.2-5.51a1,1,0,0,1,1,.88,1,1,0,0,1-.88,1l-60.65,5.38-.07.32C111.43,148.61,108.32,152.88,102.37,152.88Z"/><path class="cls-4" d="M170.66,53.28c-5.36.41-10.5.62-15.74.62-9.63,0-17.46-.71-23.74-1.29-4.37-.39-8.15-.74-11.37-.74-6.4,0-11.42,1.26-15.09,7.4l-.21.34h-4.28l-.2-.34c-3.67-6.14-8.69-7.4-15.1-7.4-3.22,0-7,.35-11.36.74-6.29.58-14.11,1.29-23.74,1.29-5.24,0-10.39-.21-15.74-.62l-1.57-.13v81.33l1.34.1c5.36.42,10.73.63,16,.63,9.76,0,17.66-.72,24-1.29,4.29-.39,8-.73,11.09-.73,6.67,0,10,1.56,12.6,6l.67,1.12a1.08,1.08,0,0,0,1.23.5l.06,0h5.77l.06,0a1.09,1.09,0,0,0,1.23-.5l.67-1.12c2.64-4.41,5.93-6,12.59-6,3.09,0,6.8.34,11.1.73,6.35.57,14.25,1.29,24,1.29,5.24,0,10.61-.21,16-.63l1.34-.1V53.15Z"/><path class="cls-5" d="M34,54.73v78.4c42,3.28,56.83-8.07,64.81,5.29V60C90.8,46.66,76,58,34,54.73Z"/><path class="cls-4" d="M93.21,66.76c-2-1.11-4.58-1.6-8.32-1.6-3.08,0-6.79.34-11.09.72-4.75.43-10.37.94-17,1.17L57,62.68c6.38-.23,11.82-.73,16.44-1.15,4.42-.4,8.22-.75,11.5-.75a21.9,21.9,0,0,1,9.6,1.73l.84.4v5Z"/><path class="cls-4" d="M93.21,81.16c-2-1.1-4.58-1.6-8.32-1.6-3.08,0-6.79.34-11.09.73-6.33.57-14.22,1.28-23.95,1.28h0c-3.28,0-6.62-.08-9.92-.24l-1.38-.07V76.88l1.52.08c3.41.17,6.6.25,9.76.25,9.56,0,17.34-.71,23.6-1.28,4.42-.4,8.22-.74,11.5-.74,4.11,0,7.07.53,9.6,1.72l.84.4v5Z"/><path class="cls-4" d="M93.21,95.56c-2-1.1-4.58-1.6-8.32-1.6-3.08,0-6.79.34-11.09.73C67.47,95.26,59.58,96,49.85,96h0c-3.28,0-6.62-.08-9.92-.24l-1.38-.07V91.29l1.52.07c3.41.17,6.6.25,9.76.25,9.56,0,17.34-.71,23.6-1.27,4.42-.41,8.22-.75,11.5-.75,4.11,0,7.07.53,9.6,1.72l.84.4v5Z"/><path class="cls-4" d="M93.21,110c-2-1.1-4.58-1.59-8.32-1.59-3.08,0-6.79.33-11.09.72-6.33.57-14.22,1.28-23.95,1.28h0c-3.28,0-6.62-.08-9.92-.24l-1.38-.07v-4.37l1.52.07c3.41.17,6.6.25,9.76.25,9.56,0,17.34-.7,23.6-1.27,4.42-.41,8.22-.75,11.5-.75,4.11,0,7.07.53,9.6,1.73l.84.39v5Z"/><path class="cls-4" d="M93.21,124.37c-2-1.11-4.58-1.6-8.32-1.6-3.08,0-6.79.33-11.09.72-6.33.57-14.22,1.29-23.95,1.29h0c-3.28,0-6.62-.09-9.92-.25l-1.38-.07v-4.37l1.52.07c3.41.17,6.6.26,9.76.26,9.56,0,17.34-.71,23.6-1.28,4.42-.4,8.22-.75,11.5-.75,4.11,0,7.07.53,9.6,1.73l.84.39v5Z"/><path class="cls-5" d="M106,60v78.41c8-13.36,22.79-2,64.81-5.29V54.73C128.76,58,114,46.66,106,60Z"/><path class="cls-4" d="M111.53,66.76c2-1.11,4.59-1.6,8.33-1.6,3.08,0,6.79.34,11.09.72,6.33.58,14.22,1.29,24,1.29h0c3.28,0,6.62-.08,9.92-.25l1.38-.06V62.48l-1.52.08c-3.42.17-6.61.25-9.76.25-9.56,0-17.34-.71-23.6-1.28-4.42-.4-8.22-.75-11.51-.75a21.88,21.88,0,0,0-9.59,1.73l-.84.4v5Z"/><path class="cls-4" d="M111.53,81.16c2-1.1,4.59-1.6,8.33-1.6,3.08,0,6.79.34,11.09.73,6.33.57,14.22,1.28,24,1.28h0c3.28,0,6.62-.08,9.92-.24l1.38-.07V76.88l-1.52.08c-3.42.17-6.61.25-9.76.25-9.56,0-17.34-.71-23.6-1.28-4.42-.4-8.22-.74-11.51-.74a21.89,21.89,0,0,0-9.59,1.72l-.84.4v5Z"/><path class="cls-4" d="M111.53,95.56c2-1.1,4.59-1.6,8.33-1.6,3.08,0,6.79.34,11.09.73,6.33.57,14.22,1.28,24,1.28h0c3.28,0,6.62-.08,9.92-.24l1.38-.07V91.29l-1.52.07c-3.42.17-6.61.25-9.76.25-9.56,0-17.34-.71-23.6-1.27-4.42-.41-8.22-.75-11.51-.75a21.89,21.89,0,0,0-9.59,1.72l-.84.4v5Z"/><path class="cls-4" d="M111.53,110c2-1.1,4.59-1.59,8.33-1.59,3.08,0,6.79.33,11.09.72,6.33.57,14.22,1.28,24,1.28h0c3.28,0,6.62-.08,9.92-.24l1.38-.07v-4.37l-1.52.07c-3.42.17-6.61.25-9.76.25-9.56,0-17.34-.7-23.6-1.27-4.42-.41-8.22-.75-11.51-.75-4.1,0-7.06.53-9.59,1.73l-.84.39v5Z"/><path class="cls-4" d="M111.53,124.37c2-1.11,4.59-1.6,8.33-1.6,3.08,0,6.79.33,11.09.72,6.33.57,14.22,1.29,24,1.29h0c3.28,0,6.62-.09,9.92-.25l1.38-.07v-4.37l-1.52.07c-3.42.17-6.61.26-9.76.26-9.56,0-17.34-.71-23.6-1.28-4.42-.4-8.22-.75-11.51-.75-4.1,0-7.06.53-9.59,1.73l-.84.39v5Z"/><path class="cls-6" d="M44.26,70.92l-1.34,4.35H40.75l5.51-17H49l5.5,17H52.2l-1.31-4.35ZM47.58,60l-2.8,9.13h5.57Z"/><path class="cls-7" d="M137.35,127a33.43,33.43,0,1,1,33.43-33.42A33.46,33.46,0,0,1,137.35,127Zm0-41A7.61,7.61,0,1,0,145,93.61,7.62,7.62,0,0,0,137.35,86Z"/><path class="cls-8" d="M170.18,93.61a32.83,32.83,0,1,1-32.83-32.83A32.82,32.82,0,0,1,170.18,93.61ZM137.35,85.4a8.21,8.21,0,1,0,8.21,8.21A8.21,8.21,0,0,0,137.35,85.4Z"/><path class="cls-9" d="M109.05,79.49a31.68,31.68,0,0,1,14.19-14.18l9.21,20.27A9.67,9.67,0,0,0,130.7,87a9.37,9.37,0,0,0-1.37,1.75Z"/><path class="cls-9" d="M151.47,121.91a31.68,31.68,0,0,0,14.18-14.19l-20.27-9.21a9.34,9.34,0,0,1-3.13,3.12Z"/><path class="cls-7" d="M150.16,93.61A12.81,12.81,0,1,1,137.35,80.8,12.81,12.81,0,0,1,150.16,93.61ZM137.35,85.4a8.21,8.21,0,1,0,8.21,8.21A8.21,8.21,0,0,0,137.35,85.4Z"/></g></g></svg>