<svg xmlns="http://www.w3.org/2000/svg" viewBox="0 0 22.47 22.47"><defs><style>.cls-1{fill:#00994e;}</style></defs><title>tele-icon</title><g id="Layer_2" data-name="Layer 2"><g id="Layer_1-2" data-name="Layer 1"><path class="cls-1" d="M11.24,0A11.24,11.24,0,1,0,22.47,11.24,11.24,11.24,0,0,0,11.24,0Zm-2,6.08A4.9,4.9,0,0,1,16.22,13a.21.21,0,0,1-.18.07.2.2,0,0,1-.17-.07.24.24,0,0,1,0-.35A4.41,4.41,0,0,0,9.63,6.43a.25.25,0,0,1-.35-.35ZM14,8.28a1.84,1.84,0,0,0-2.54,0,.25.25,0,1,1-.35-.35,2.36,2.36,0,0,1,3.24,0,2.28,2.28,0,0,1,0,3.24.28.28,0,0,1-.17.07.29.29,0,0,1-.18-.07.26.26,0,0,1,0-.35A1.8,1.8,0,0,0,14,8.28Zm.91,3.46a3.08,3.08,0,0,0,0-4.37,3,3,0,0,0-4.36,0,.26.26,0,0,1-.35,0,.24.24,0,0,1,0-.35,3.58,3.58,0,0,1,5.06,5.07.24.24,0,0,1-.17.07.34.34,0,0,1-.18-.07A.26.26,0,0,1,14.93,11.74Zm2.12,5.83L16,18.23a4.13,4.13,0,0,1-2.35.63c-1.58,0-3.89-.68-6.72-3.5l0,0C1.43,9.86,3.87,6.37,4,6.23l.64-1.06s0,0,0,0A1.52,1.52,0,0,1,6.91,5L8.19,6.26a1.53,1.53,0,0,1,.14,2L7.47,9.59s-.31.87,2,3.16,3.18,2,3.19,2L14,13.86a1.52,1.52,0,0,1,2,.15l1.28,1.28a1.49,1.49,0,0,1-.16,2.28Z"/></g></g></svg>