<svg xmlns="http://www.w3.org/2000/svg" viewBox="0 0 39.56 39.56"><defs><style>.cls-1{fill:#b3b3b3;}</style></defs><title>youtube-icon</title><g id="Layer_2" data-name="Layer 2"><g id="Layer_1-2" data-name="Layer 1"><path class="cls-1" d="M19.78,39.56A19.78,19.78,0,1,1,39.56,19.78,19.8,19.8,0,0,1,19.78,39.56Zm0-38.06A18.28,18.28,0,1,0,38.06,19.78,18.3,18.3,0,0,0,19.78,1.5Z"/><path class="cls-1" d="M29,28.07H10.57a4.3,4.3,0,0,1-4.29-4.29v-8a4.3,4.3,0,0,1,4.29-4.29H29a4.29,4.29,0,0,1,4.29,4.29v8A4.29,4.29,0,0,1,29,28.07ZM10.57,13a2.79,2.79,0,0,0-2.79,2.79v8a2.79,2.79,0,0,0,2.79,2.79H29a2.79,2.79,0,0,0,2.79-2.79v-8A2.79,2.79,0,0,0,29,13Z"/><polygon class="cls-1" points="23.52 19.78 16.04 15.46 16.04 24.1 23.52 19.78"/></g></g></svg>