<svg xmlns="http://www.w3.org/2000/svg" viewBox="0 0 39.56 39.56"><defs><style>.cls-1{fill:#b3b3b3;}</style></defs><title>zalo-icon</title><g id="Layer_2" data-name="Layer 2"><g id="Layer_1-2" data-name="Layer 1"><path class="cls-1" d="M19.78,39.56A19.78,19.78,0,1,1,39.56,19.78,19.8,19.8,0,0,1,19.78,39.56Zm0-38.06A18.28,18.28,0,1,0,38.06,19.78,18.3,18.3,0,0,0,19.78,1.5Z"/><path class="cls-1" d="M13.23,19.3c1.25,0,2.42,0,3.59,0,.65,0,1,.28,1.07.8a.93.93,0,0,1-1,1.1h-4c-.39,0-.77,0-1.15,0a1.14,1.14,0,0,1-.94-2l3.83-4.86c.08-.1.15-.2.23-.29-.09-.14-.2-.07-.3-.08H11.86a2.56,2.56,0,0,1-.62-.07.86.86,0,0,1,0-1.68,2.48,2.48,0,0,1,.61-.07h4.42a2.5,2.5,0,0,1,.77.09.9.9,0,0,1,.58,1.25,5.62,5.62,0,0,1-.83,1.28q-1.62,2.07-3.24,4.11l-.31.4Z"/><path class="cls-1" d="M22.81,15a1.31,1.31,0,0,1,.74-.57,1,1,0,0,1,1.27.95c0,1.66,0,3.31,0,5a1,1,0,0,1-.68.93A1,1,0,0,1,23,20.91c-.14-.18-.19-.21-.39-.05a2.52,2.52,0,0,1-2.52.42,3.27,3.27,0,0,1-2.24-3,3.42,3.42,0,0,1,1.69-3.59,2.61,2.61,0,0,1,3.29.29Zm-2.92,3a1.79,1.79,0,0,0,.34,1,1.37,1.37,0,0,0,1.9.27,1.42,1.42,0,0,0,.28-.27,2.07,2.07,0,0,0,0-2.29,1.28,1.28,0,0,0-1-.52C20.52,16.1,19.88,16.81,19.89,18Zm8.64.05a3.52,3.52,0,1,1,7-.36,3.45,3.45,0,0,1-3.19,3.77A3.38,3.38,0,0,1,28.53,18Zm2.07-.2A1.88,1.88,0,0,0,31,19a1.34,1.34,0,0,0,1.9.24A1.29,1.29,0,0,0,33.1,19a2.05,2.05,0,0,0,0-2.31,1.31,1.31,0,0,0-1-.52A1.48,1.48,0,0,0,30.6,17.82Zm-2.79-1.44v3.83a1.08,1.08,0,0,1-1,1.09,1.05,1.05,0,0,1-.3,0,1.07,1.07,0,0,1-.73-1.06V13.64c0-.38,0-.76,0-1.15a1,1,0,1,1,2.08,0Z"/><path class="cls-1" d="M11.14,28.32a1.55,1.55,0,0,1,.23,2.24,8.41,8.41,0,0,1-2.84,2.66l-.35.23c-.18.15-.07.23.08.3A.77.77,0,0,0,8.4,34c.57.5,1.13,1,1.68,1.56a18.34,18.34,0,0,1,3.71-33,17.1,17.1,0,0,0-3.45,3,16.27,16.27,0,0,0-4.09,8.37A16,16,0,0,0,11.14,28.32Z"/><path class="cls-1" d="M32.93,32.55a18.34,18.34,0,0,1-22.85,3h0C9.53,35,9,34.46,8.4,34a.77.77,0,0,1-.14-.21h0a13,13,0,0,0,6.34-.49c.7-.22,1.41-.43,2.11-.61a2.35,2.35,0,0,1,1.46.07A21.12,21.12,0,0,0,32.93,32.55Z"/></g></g></svg>