<svg xmlns="http://www.w3.org/2000/svg" viewBox="0 0 22.47 22.47"><defs><style>.cls-1{fill:#00994e;}</style></defs><title>home-icon</title><g id="Layer_2" data-name="Layer 2"><g id="Layer_1-2" data-name="Layer 1"><path class="cls-1" d="M11.24,0A11.24,11.24,0,1,0,22.47,11.24,11.24,11.24,0,0,0,11.24,0Zm7.42,11.54a.34.34,0,0,1-.32.21H16.48v6.57a.35.35,0,0,1-.35.35H12.84a.35.35,0,0,1-.35-.35V16A1.25,1.25,0,0,0,10,16v2.32a.36.36,0,0,1-.36.35H6.35A.35.35,0,0,1,6,18.32V11.75H4.14a.36.36,0,0,1-.33-.21.36.36,0,0,1,.08-.38L6.2,8.79V5.19a.35.35,0,0,1,.35-.35H7.94a.35.35,0,0,1,.36.35V6.65L11,3.91a.35.35,0,0,1,.5,0l7.1,7.25A.34.34,0,0,1,18.66,11.54Z"/></g></g></svg>